<svg width="700" height="629" viewBox="0 0 700 629" fill="none" xmlns="http://www.w3.org/2000/svg">
<path d="M108.924 0.678223C126.625 0.678223 140.997 15.0499 140.997 32.7507C140.997 50.4515 126.625 64.8232 108.924 64.8232C91.2235 64.8232 76.8518 50.4515 76.8518 32.7507C76.8518 15.0499 91.2235 0.678223 108.924 0.678223Z" fill="url(#paint0_linear_229_6519)"/>
<path d="M130.914 315.056C136.479 315.056 140.997 319.574 140.997 325.139C140.997 330.704 136.479 335.222 130.914 335.222C125.349 335.222 120.831 330.704 120.831 325.139C120.831 319.574 125.349 315.056 130.914 315.056Z" fill="url(#paint1_linear_229_6519)"/>
<path d="M619.242 64.8237C630.435 64.8237 639.524 73.9121 639.524 85.1057C639.524 96.2994 630.435 105.388 619.242 105.388C608.048 105.388 598.96 96.2994 598.96 85.1057C598.96 73.9121 608.048 64.8237 619.242 64.8237Z" fill="url(#paint2_linear_229_6519)"/>
<path d="M677.327 584.311C689.462 584.311 699.316 594.165 699.316 606.3C699.316 618.436 689.462 628.289 677.327 628.289C665.191 628.289 655.338 618.436 655.338 606.3C655.338 594.165 665.191 584.311 677.327 584.311Z" fill="url(#paint3_linear_229_6519)"/>
<path d="M13.1489 496.441C19.9848 496.441 25.5349 501.991 25.5349 508.827C25.5349 515.663 19.9848 521.213 13.1489 521.213C6.31311 521.213 0.762939 515.663 0.762939 508.827C0.762939 501.991 6.31311 496.441 13.1489 496.441Z" fill="url(#paint4_linear_229_6519)"/>
<path d="M495.353 494.996H266.091C245.039 494.996 227.973 477.93 227.973 456.878V265.802C227.973 244.75 245.039 227.684 266.091 227.684H495.353C516.405 227.684 533.471 244.75 533.471 265.802V456.878C533.471 477.93 516.405 494.996 495.353 494.996Z" fill="url(#paint5_linear_229_6519)"/>
<path d="M460.07 227.684V189.939C460.07 146.51 424.864 111.304 381.435 111.304C338.006 111.304 302.8 146.51 302.8 189.939V227.684" stroke="url(#paint6_linear_229_6519)" stroke-width="33.505" stroke-miterlimit="10"/>
<g opacity="0.5">
<path d="M469.508 389.072C459.006 389.072 450.414 380.48 450.414 369.978C450.414 359.476 459.006 350.884 469.508 350.884C480.01 350.884 488.602 359.476 488.602 369.978C488.602 380.48 480.01 389.072 469.508 389.072Z" fill="white"/>
<path d="M410.317 389.072C399.815 389.072 391.223 380.48 391.223 369.978C391.223 359.476 399.815 350.884 410.317 350.884C420.819 350.884 429.411 359.476 429.411 369.978C429.411 380.48 420.819 389.072 410.317 389.072Z" fill="white"/>
<path d="M351.127 389.072C340.625 389.072 332.033 380.48 332.033 369.978C332.033 359.476 340.625 350.884 351.127 350.884C361.629 350.884 370.221 359.476 370.221 369.978C370.221 380.48 361.629 389.072 351.127 389.072Z" fill="white"/>
<path d="M291.936 389.072C281.434 389.072 272.842 380.48 272.842 369.978C272.842 359.476 281.434 350.884 291.936 350.884C302.438 350.884 311.03 359.476 311.03 369.978C311.03 380.48 302.438 389.072 291.936 389.072Z" fill="white"/>
</g>
<path d="M576.86 469.55C574.587 467.18 572.235 464.731 571.348 462.582C570.533 460.612 570.484 457.343 570.435 454.184C570.346 448.305 570.247 441.64 565.612 437.008C560.98 432.373 554.315 432.274 548.436 432.185C545.277 432.136 542.01 432.087 540.038 431.272C537.892 430.385 535.44 428.033 533.07 425.76C528.906 421.768 524.187 417.242 517.896 417.242C511.605 417.242 506.886 421.768 502.722 425.76C500.352 428.033 497.903 430.385 495.754 431.272C493.784 432.087 490.515 432.136 487.356 432.185C481.477 432.274 474.812 432.373 470.18 437.008C465.545 441.64 465.446 448.305 465.357 454.184C465.308 457.343 465.259 460.61 464.444 462.582C463.556 464.728 461.205 467.18 458.932 469.55C454.94 473.714 450.414 478.433 450.414 484.724C450.414 491.015 454.94 495.734 458.932 499.898C461.205 502.268 463.556 504.717 464.444 506.866C465.259 508.836 465.308 512.105 465.357 515.264C465.446 521.143 465.545 527.808 470.18 532.44C474.812 537.075 481.477 537.174 487.356 537.263C490.515 537.312 493.782 537.361 495.754 538.176C497.9 539.064 500.352 541.415 502.722 543.688C506.886 547.68 511.605 552.206 517.896 552.206C524.187 552.206 528.906 547.68 533.07 543.688C535.44 541.415 537.889 539.064 540.038 538.176C542.008 537.361 545.277 537.312 548.436 537.263C554.315 537.174 560.98 537.075 565.612 532.44C570.247 527.808 570.346 521.143 570.435 515.264C570.484 512.105 570.533 508.838 571.348 506.866C572.235 504.72 574.587 502.268 576.86 499.898C580.852 495.734 585.378 491.015 585.378 484.724C585.378 478.433 580.852 473.714 576.86 469.55Z" fill="url(#paint7_linear_229_6519)"/>
<path d="M517.896 523.284C513.902 523.284 510.666 520.048 510.666 516.054C510.666 512.06 513.902 508.824 517.896 508.824C521.89 508.824 525.126 512.06 525.126 516.054C525.126 520.048 521.89 523.284 517.896 523.284Z" fill="white"/>
<path d="M522.715 493.827V494.366C522.715 497.028 520.557 499.186 517.895 499.186C515.233 499.186 513.075 497.028 513.075 494.366V489.546C513.075 486.884 515.233 484.726 517.895 484.726C524.549 484.726 529.945 479.332 529.945 472.676C529.945 466.022 524.549 460.626 517.895 460.626C511.239 460.626 505.845 466.022 505.845 472.676C505.845 475.338 503.687 477.496 501.025 477.496C498.363 477.496 496.205 475.338 496.205 472.676C496.205 461.325 504.957 451.897 516.278 451.049C527.597 450.204 537.655 458.227 539.343 469.451C541.032 480.675 533.781 491.304 522.715 493.827Z" fill="white"/>
<defs>
<linearGradient id="paint0_linear_229_6519" x1="85.3383" y1="9.08572" x2="130.695" y2="54.4427" gradientUnits="userSpaceOnUse">
<stop stop-color="#FFE77B"/>
<stop offset="0.5" stop-color="#FFC141"/>
<stop offset="1" stop-color="#FF9B06"/>
</linearGradient>
<linearGradient id="paint1_linear_229_6519" x1="123.339" y1="317.893" x2="137.599" y2="332.153" gradientUnits="userSpaceOnUse">
<stop stop-color="#FFE77B"/>
<stop offset="0.5" stop-color="#FFC141"/>
<stop offset="1" stop-color="#FF9B06"/>
</linearGradient>
<linearGradient id="paint2_linear_229_6519" x1="598.725" y1="85.0867" x2="639.289" y2="85.0867" gradientUnits="userSpaceOnUse">
<stop stop-color="#FFE77B"/>
<stop offset="0.5" stop-color="#FFC141"/>
<stop offset="1" stop-color="#FF9B06"/>
</linearGradient>
<linearGradient id="paint3_linear_229_6519" x1="660.725" y1="589.701" x2="691.822" y2="620.798" gradientUnits="userSpaceOnUse">
<stop stop-color="#FFE77B"/>
<stop offset="0.5" stop-color="#FFC141"/>
<stop offset="1" stop-color="#FF9B06"/>
</linearGradient>
<linearGradient id="paint4_linear_229_6519" x1="0.53194" y1="508.087" x2="25.3039" y2="508.087" gradientUnits="userSpaceOnUse">
<stop stop-color="#FFE77B"/>
<stop offset="0.5" stop-color="#FFC141"/>
<stop offset="1" stop-color="#FF9B06"/>
</linearGradient>
<linearGradient id="paint5_linear_229_6519" x1="268.532" y1="249.894" x2="484.552" y2="465.914" gradientUnits="userSpaceOnUse">
<stop stop-color="#FFE77B"/>
<stop offset="0.5" stop-color="#FFC141"/>
<stop offset="1" stop-color="#FF9B06"/>
</linearGradient>
<linearGradient id="paint6_linear_229_6519" x1="472.532" y1="233.893" x2="302.029" y2="135.453" gradientUnits="userSpaceOnUse">
<stop stop-color="#FF9B06"/>
<stop offset="0.5" stop-color="#FFC141"/>
<stop offset="1" stop-color="#FFE77B"/>
</linearGradient>
<linearGradient id="paint7_linear_229_6519" x1="471.532" y1="437.894" x2="566.206" y2="532.567" gradientUnits="userSpaceOnUse">
<stop stop-color="#F54D50"/>
<stop offset="0.49" stop-color="#F3272B"/>
<stop offset="0.99" stop-color="#F00005"/>
</linearGradient>
</defs>
</svg>
