<svg width="84" height="88" viewBox="0 0 84 88" fill="none" xmlns="http://www.w3.org/2000/svg">
<path d="M38.8298 88.028C30.5054 87.5311 22.6477 84.4574 15.9318 79.0705C14.363 77.8122 12.8802 76.6396 12.6366 76.4647C12.323 76.2395 11.8452 76.34 10.9989 76.809C10.3417 77.1732 8.18237 78.368 6.20043 79.4641C2.41021 81.5603 0.624496 82.0277 0.407767 80.9803C0.223034 80.0875 1.6766 78.4657 5.48797 75.312C7.42073 73.7127 9.00208 72.3526 9.00208 72.2893C9.00208 72.2261 8.36641 71.3184 7.58957 70.2722C4.38161 65.9524 0.890868 57.5781 0.0322416 52.1423C-0.436647 49.1738 -0.370698 42.9383 0.166746 39.4246C2.50751 24.1214 14.3598 10.6983 29.8737 5.78055C34.4261 4.3375 36.8655 3.98257 42.1974 3.98746C49.9596 3.99458 55.414 5.46278 62.6378 9.48945C63.8189 10.1479 63.8525 10.1489 65.2037 9.5676C67.6368 8.52081 74.7708 3.53086 77.3306 1.08536C77.9555 0.488412 78.7853 0 79.1748 0C80.5257 0 80.0693 1.59336 77.7465 4.98658C75.0883 8.86955 71.4278 13.7433 70.7518 14.2994C70.3018 14.6696 70.4529 14.9234 72.0622 16.4997C77.703 22.025 81.7904 29.5409 83.5802 37.6787C84.2983 40.9439 84.5535 48.6302 84.0624 52.204C82.9203 60.5196 78.7717 69.3616 73.1764 75.4061C68.9496 79.9722 62.3306 84.0421 55.7397 86.127C50.258 87.8607 45.3262 88.415 38.8298 88.028ZM5.12458 47.8501C5.88153 40.8283 6.76128 37.5374 9.20072 32.6024C11.5216 27.9072 12.7349 26.046 15.3242 23.2083C19.3267 18.8218 21.8398 16.8327 26.0812 14.694C30.76 12.3348 34.4121 11.2529 39.213 10.8042C44.3702 10.322 49.938 10.8976 55.8534 12.5244C57.7887 13.0565 58.769 13.1898 59.1587 12.9736C59.6229 12.7161 59.6448 12.5844 59.294 12.1605C58.4554 11.1473 54.1538 9.4922 50.2718 8.6891C46.6826 7.94649 45.913 7.89493 40.7541 8.05148C34.414 8.24388 31.0563 8.9462 26.6421 11.0032C14.7944 16.5242 6.18734 27.4151 4.1806 39.4246C3.7041 42.2763 3.60471 47.7522 3.98178 50.3784C4.34274 52.8923 4.65566 52.2 5.12458 47.8501ZM78.7556 35.5623C77.1609 29.3729 74.5061 24.459 70.3566 20.0159L68.5241 18.0538L67.7906 18.9626C67.3871 19.4624 67.0563 20.0869 67.0554 20.3505C67.0544 20.6142 67.9935 21.8303 69.1421 23.053C71.6416 25.7142 75.6437 31.5683 77.6378 35.4804C78.4316 37.0377 79.1249 38.1476 79.1785 37.9468C79.2321 37.746 79.0418 36.6729 78.7556 35.5623Z" fill="#F4D04D"/>
<path d="M38.5089 87.8457C29.8714 87.1723 21.6107 83.6367 14.4289 77.5383C12.6041 75.9889 11.8236 75.8233 10.6516 76.7367C10.1155 77.1545 9.85947 77.2933 5.43532 79.5647C3.47683 80.5702 1.60187 81.3928 1.26875 81.3928C-0.502053 81.3928 1.59918 78.7031 6.23789 75.0321C9.48417 72.463 9.74613 72.1516 9.02986 71.7127C8.47354 71.3719 5.8608 67.2033 4.42584 64.367C2.81463 61.1824 1.15809 56.345 0.474964 52.8297C-0.483214 47.8988 0.0582439 39.2991 1.65042 34.1603C4.37984 25.351 10.3506 17.1811 17.7348 12.1519C23.0211 8.55136 27.3491 6.5692 32.9687 5.17493C36.0323 4.41483 37.0426 4.31649 41.8766 4.30795C47.5131 4.29801 48.7497 4.46567 53.9039 5.93865C56.2396 6.60617 58.4408 7.57902 63.0047 9.96078C63.7349 10.3419 64.1022 10.3669 64.7687 10.0811C67.336 8.98041 74.3652 4.1115 77.5504 1.22764C78.2962 0.55244 79.0385 0 79.1999 0C79.7823 0 79.8678 1.01419 79.3666 1.97512C78.5264 3.58575 73.5909 10.5344 72.1143 12.1855C69.8671 14.6983 69.8654 14.6545 72.2983 17.0983C77.6796 22.5036 81.5675 29.7533 83.2765 37.5686C83.9599 40.6957 84.2328 48.7257 83.771 52.1518C82.1829 63.9405 75.3849 74.9819 65.9312 81.1275C62.8818 83.1098 61.7558 83.6833 58.5157 84.9051C54.0724 86.5797 50.7631 87.3421 46.2064 87.7416C42.5945 88.0571 41.4252 88.0737 38.5089 87.8457ZM47.4893 83.8881C54.1805 82.8373 59.8308 80.8146 64.0956 77.9437C66.9482 76.0234 71.1299 71.9663 73.2114 69.0997C78.1797 62.2572 80.2021 56.1209 80.2031 47.8861C80.2047 35.3479 77.3602 27.0315 70.6633 19.9942L68.5466 17.77L67.7546 18.555C67.2012 19.1036 66.9168 19.8032 66.8104 20.8775C66.6029 22.9717 65.8905 24.2401 62.8012 28.0148C58.3988 33.3941 54.312 38.7039 50.2155 44.3668C48.9807 46.0737 47.5962 47.9134 47.1389 48.4551C46.6815 48.9967 45.9079 50.1229 45.42 50.9578L44.5326 52.4759L47.0533 51.3289C48.4397 50.698 50.1514 49.9634 50.857 49.6965C51.5626 49.4296 52.5729 49.0238 53.1021 48.7947C53.6313 48.5657 55.1467 47.9477 56.4697 47.4214C57.7927 46.8952 59.6321 46.0967 60.5574 45.6471C61.4826 45.1975 62.3122 44.8296 62.4007 44.8296C62.4893 44.8296 63.4643 44.4117 64.5672 43.9007C67.8188 42.3946 71.8225 40.9591 72.4262 41.0829C72.8497 41.1697 72.9654 41.4612 72.8986 42.2714C72.745 44.1327 71.7369 45.8142 68.0289 50.3936C61.2512 58.7642 54.1407 64.0905 49.3454 64.389C48.4127 64.447 46.8558 64.8443 45.8857 65.272C41.0187 67.417 30.9413 71.229 24.0047 73.5492L17.9997 75.5576L19.1937 76.6722C21.2776 78.6174 25.5566 81.0076 28.986 82.1421C35.4772 84.2901 41.3843 84.8469 47.4893 83.8881ZM5.63433 78.2702C6.33993 77.828 8.28833 76.7277 9.96417 75.8252C11.6399 74.9227 14.5987 73.3289 16.5391 72.2835C20.2074 70.3072 20.8954 70.0159 27.7293 67.5464C30.0032 66.7247 33.3227 65.4101 35.106 64.6249C42.9935 61.1521 44.3087 60.5973 47.4893 59.4003C50.8877 58.1215 56.3235 55.6037 58.3941 54.3494L59.5166 53.6694L58.7148 54.3729C58.2738 54.7599 56.6501 55.7054 55.1066 56.474C53.5631 57.2426 52.3002 57.9576 52.3002 58.0628C52.3002 58.4829 54.8141 57.7544 56.5873 56.8205C57.947 56.1044 59.4881 54.7579 62.1417 51.9677C65.2686 48.6801 67.3708 46.1014 66.9241 46.1014C66.858 46.1014 65.6695 46.6485 64.2828 47.3171C62.8962 47.9857 60.4628 48.9433 58.8752 49.4451C55.9054 50.3839 46.4647 54.9814 41.2031 58.051C37.3346 60.3079 35.6967 61.0291 34.4197 61.0376C32.8882 61.0479 33.0671 60.4422 35.5763 57.1201C36.7857 55.5189 38.5916 52.9927 39.5891 51.5064C42.6829 46.8968 49.5295 37.0621 50.4466 35.9102C50.9264 35.3076 52.0869 33.7387 53.0255 32.4238C56.6809 27.3025 65.1336 17.1582 69.3326 12.8531C73.258 8.82851 76.1172 5.44361 77.0484 3.71877C77.3227 3.21054 77.2865 3.17553 76.78 3.45925C76.4579 3.63964 74.9676 4.81191 73.4683 6.06429C71.9688 7.31668 70.3812 8.571 69.9403 8.85165C69.4992 9.13231 67.5943 10.4657 65.707 11.8147C61.5142 14.8118 61.0876 15.0439 60.1853 14.8194C59.0828 14.5451 51.492 17.7042 43.4802 21.7715C39.7159 23.6827 36.9053 26.0031 36.9053 27.1999C36.9053 27.6992 36.4658 28.0891 35.2215 28.6934C34.2954 29.1433 31.7335 30.5454 29.5286 31.8096C27.3235 33.0736 23.7875 35.0377 21.6707 36.1744C15.5406 39.466 15.4371 39.584 16.1707 42.4475C16.7368 44.6577 17.4198 44.6766 21.2365 42.5877C22.8865 41.6846 24.6695 40.6303 25.1987 40.2447C27.0382 38.9044 34.2321 34.9594 36.777 33.8955C38.1853 33.3067 40.1817 32.3784 41.2135 31.8326C42.2453 31.2868 43.1396 30.8402 43.201 30.8402C43.2624 30.8402 42.5858 31.8776 41.6975 33.1453C40.8092 34.4131 39.4036 36.5047 38.574 37.7932C37.7444 39.0817 36.0807 41.6374 34.8768 43.4725C33.6729 45.3075 32.6034 47.0432 32.5 47.3296C32.3966 47.6159 31.7218 48.6528 31.0005 49.6339C30.2791 50.615 28.823 52.6687 27.7646 54.1977C26.7062 55.7268 24.6837 58.4293 23.2702 60.2035C21.8567 61.9776 20.0345 64.2876 19.2209 65.3368C16.6144 68.6982 11.2286 73.8787 9.32272 74.8577C7.69689 75.6929 2.90814 79.0777 2.90814 79.3917C2.90814 79.6623 4.37833 79.0575 5.63433 78.2702ZM15.1327 64.8813C22.0213 57.1993 30.8389 45.0703 30.4265 43.8439C30.3706 43.6776 28.2334 44.7275 25.6771 46.1769C19.9824 49.4058 18.6645 49.9983 17.4772 49.8631C16.6089 49.7643 16.5156 49.6092 15.9798 47.3732C15.6254 45.8938 15.3307 42.9828 15.2035 39.7047L14.9987 34.4208L16.4104 33.6154C17.1868 33.1725 18.9044 32.4302 20.2275 31.9659C22.502 31.1678 30.361 27.2652 32.0944 26.0732C32.5354 25.77 34.2673 24.8447 35.9431 24.0173C37.6189 23.1897 39.6395 22.1846 40.4333 21.7838C41.2271 21.3829 45.7012 19.3152 50.3759 17.1889C60.4425 12.6099 59.8373 12.9185 59.8373 12.3651C59.8373 11.4658 54.5945 9.26514 50.3706 8.39139C46.6689 7.62572 45.9433 7.57607 40.754 7.73354C36.0485 7.87633 34.659 8.03687 32.1569 8.72681C26.8065 10.2022 20.8251 13.4453 16.1341 17.4145C14.4879 18.8074 12.2452 21.4279 9.9504 24.6397C8.54441 26.6077 5.99088 31.1582 6.29259 31.1582C6.41475 31.1582 6.37707 31.3371 6.20886 31.5556C5.68356 32.2383 4.5772 35.6575 4.02279 38.3119C3.29413 41.8004 3.25555 49.7838 3.95671 51.9833C4.23544 52.8576 4.84953 55.0037 5.32137 56.7524C6.26842 60.2622 7.92696 63.943 9.96291 67.0531C11.2591 69.0332 11.3098 69.0713 11.869 68.4838C12.1848 68.1519 13.6535 66.5308 15.1327 64.8813ZM23.0546 34.1227C24.1576 32.9893 24.2473 32.345 23.3269 32.1679C22.4612 32.0016 17.3517 34.0559 16.844 34.7744C16.2734 35.5819 16.2318 37.4125 16.7796 37.6046C17.4003 37.8222 21.8654 35.3446 23.0546 34.1227Z" fill="#221C23"/>
</svg>
