<svg width="101" height="106" viewBox="0 0 101 106" fill="none" xmlns="http://www.w3.org/2000/svg">
<path d="M46.6041 105.764C36.6894 105.167 27.3306 101.474 19.3317 95.0018C17.4632 93.49 15.6971 92.0811 15.407 91.871C15.0335 91.6004 14.4644 91.7211 13.4564 92.2846C12.6736 92.7222 10.1018 94.1577 7.74123 95.4747C3.22692 97.9932 1.10006 98.5548 0.841927 97.2964C0.621902 96.2237 2.35316 94.2751 6.89266 90.486C9.19465 88.5645 11.0781 86.9303 11.0781 86.8543C11.0781 86.7783 10.321 85.6878 9.39575 84.4308C5.57494 79.2406 1.41732 69.1791 0.394661 62.648C-0.163804 59.0814 -0.0852562 51.5896 0.554861 47.368C3.34281 28.9814 17.4594 12.8538 35.9371 6.94523C41.3592 5.21143 44.2646 4.78498 50.6151 4.79086C59.8602 4.79942 66.3566 6.56343 74.9605 11.4014C76.3672 12.1925 76.4072 12.1937 78.0165 11.4953C80.9145 10.2376 89.4114 4.24226 92.4602 1.30404C93.2044 0.586818 94.1928 0 94.6567 0C96.2657 0 95.7221 1.91439 92.9555 5.99128C89.7895 10.6566 85.4297 16.5123 84.6246 17.1805C84.0886 17.6253 84.2686 17.9302 86.1853 19.8241C92.9037 26.4626 97.772 35.4929 99.9037 45.2703C100.759 49.1934 101.063 58.4283 100.478 62.7221C99.1177 72.7132 94.1766 83.3367 87.5124 90.5991C82.4781 96.0852 74.5945 100.975 66.7445 103.48C60.2156 105.563 54.3416 106.229 46.6041 105.764ZM6.45984 57.491C7.3614 49.0545 8.40922 45.1005 11.3147 39.1712C14.0789 33.53 15.524 31.2938 18.608 27.8843C23.3751 22.6141 26.3683 20.2242 31.42 17.6546C36.9927 14.82 41.3425 13.5202 47.0605 12.981C53.203 12.4017 59.8345 13.0933 66.88 15.0478C69.185 15.6872 70.3525 15.8473 70.8167 15.5876C71.3696 15.2782 71.3957 15.1199 70.9778 14.6106C69.979 13.3933 64.8555 11.4047 60.232 10.4398C55.9572 9.54756 55.0405 9.48562 48.8961 9.67371C41.3447 9.90487 37.3456 10.7487 32.0881 13.2201C17.977 19.8535 7.72564 32.9387 5.33553 47.368C4.768 50.7942 4.64962 57.3734 5.09872 60.5287C5.52864 63.5491 5.90134 62.7173 6.45984 57.491ZM94.1574 42.7274C92.258 35.291 89.0961 29.387 84.1538 24.0487L81.9713 21.6913L81.0976 22.7832C80.617 23.3837 80.223 24.1341 80.222 24.4508C80.2208 24.7676 81.3393 26.2287 82.7073 27.6978C85.6844 30.8952 90.451 37.9287 92.8261 42.6291C93.7715 44.5001 94.5973 45.8336 94.6611 45.5924C94.7249 45.3511 94.4983 44.0618 94.1574 42.7274Z" fill="#F4D04D"/>
<path d="M40.7884 105.058C31.8517 103.173 23.0243 98.689 16.6022 92.7712L15.0595 91.3495L9.72622 94.3791C6.79294 96.0453 3.82723 97.5965 3.13574 97.8261C0.797865 98.6025 0.0807093 97.5325 1.55306 95.4648C1.98705 94.8553 4.30769 92.7093 6.71006 90.6958C10.9836 87.1141 11.4391 86.6003 10.7292 86.1615C10.0993 85.7722 6.99493 80.8216 5.43631 77.7209C0.588626 68.0768 -0.994601 58.1753 0.597048 47.4561C2.94524 31.6418 13.4481 17.6559 28.841 9.84564C42.4057 2.96296 58.0218 2.91676 71.5407 9.71929L76.4223 12.1757L77.8437 11.5826C80.752 10.3691 90.2237 3.69844 92.611 1.18245C93.235 0.524734 94.125 0 94.6165 0C96.2548 0 95.7404 1.83251 92.9422 5.96424C89.6705 10.7949 85.4467 16.4981 84.6525 17.1572C84.1033 17.613 84.3066 17.9433 86.5247 20.1988C93.1926 26.979 97.8139 35.7022 99.9532 45.5466C100.479 47.9664 100.639 50.4022 100.639 55.963C100.638 62.5509 100.544 63.5929 99.6232 67.2488C95.041 85.4407 84.0089 97.6811 67.0961 103.338C64.9648 104.051 61.5879 104.899 59.592 105.223C54.4778 106.052 45.1125 105.969 40.7884 105.058ZM50.997 100.954C49.1061 100.888 47.3011 100.724 46.986 100.589C46.6708 100.454 45.6394 100.311 44.694 100.27C43.7485 100.23 42.2014 100.087 41.256 99.9541C40.3105 99.8207 39.7631 99.8134 40.0394 99.9379C41.2682 100.492 47.1258 101.139 50.615 101.108L54.435 101.073L50.997 100.954ZM56.2568 100.597C55.9981 100.493 55.4824 100.486 55.1108 100.583C54.7391 100.68 54.9507 100.766 55.581 100.774C56.2113 100.781 56.5154 100.702 56.2568 100.597ZM58.7325 100.203C58.3648 100.107 57.7632 100.107 57.3955 100.203C57.0278 100.299 57.3286 100.377 58.064 100.377C58.7993 100.377 59.1002 100.299 58.7325 100.203ZM60.8335 99.831C60.5709 99.725 60.1411 99.725 59.8785 99.831C59.6159 99.937 59.8307 100.024 60.356 100.024C60.8812 100.024 61.0961 99.937 60.8335 99.831ZM38.773 99.32C38.3528 99.1394 37.6652 98.9968 37.245 99.0029C36.6308 99.0119 36.6683 99.0741 37.436 99.32C38.7421 99.7383 39.7464 99.7383 38.773 99.32ZM63.221 99.32C63.7026 99.1131 63.7732 98.9917 63.412 98.9917C63.0968 98.9917 62.4952 99.1394 62.075 99.32C61.5934 99.5269 61.5228 99.6483 61.884 99.6483C62.1991 99.6483 62.8008 99.5006 63.221 99.32ZM60.738 98.938C60.738 98.7279 60.5559 98.556 60.3334 98.556C60.1109 98.556 60.0351 98.7279 60.165 98.938C60.2948 99.1481 60.4769 99.32 60.5695 99.32C60.6622 99.32 60.738 99.1481 60.738 98.938ZM36.4404 98.3331C36.5831 97.961 36.4978 97.7864 36.2186 97.8795C35.6476 98.0698 35.3332 98.938 35.8353 98.938C36.0404 98.938 36.3127 98.6658 36.4404 98.3331ZM65.2185 98.7072C65.0916 98.5803 64.7621 98.5667 64.4864 98.6771C64.1816 98.799 64.2721 98.8895 64.7172 98.9079C65.1198 98.9244 65.3455 98.8341 65.2185 98.7072ZM39.2425 98.3252C39.1156 98.1983 38.7861 98.1847 38.5104 98.2951C38.2056 98.417 38.2961 98.5075 38.7412 98.5259C39.1438 98.5424 39.3695 98.4521 39.2425 98.3252ZM63.221 98.174C63.3508 97.9639 63.275 97.792 63.0525 97.792C62.83 97.792 62.648 97.9639 62.648 98.174C62.648 98.3841 62.7238 98.556 62.8164 98.556C62.9091 98.556 63.0911 98.3841 63.221 98.174ZM67.7407 98.1471C67.9862 98.1324 67.8432 97.9726 67.423 97.792C66.2966 97.308 66.086 97.3445 66.086 98.0239C66.086 98.4267 66.2937 98.558 66.6902 98.4059C67.0226 98.2783 67.4953 98.1619 67.7407 98.1471ZM32.9684 97.2755C33.1087 96.9099 32.842 96.7704 32.0552 96.798C30.7177 96.8449 30.6752 96.9454 31.8015 97.3981C32.2742 97.5881 32.6856 97.7545 32.7156 97.7678C32.7457 97.7811 32.8594 97.5596 32.9684 97.2755ZM70.288 97.028C71.0233 96.6254 71.4531 96.296 71.243 96.296C71.0329 96.296 70.2593 96.6254 69.524 97.028C68.7886 97.4306 68.3589 97.76 68.569 97.76C68.7791 97.76 69.5526 97.4306 70.288 97.028ZM29.605 95.882C29.4751 95.6719 29.1642 95.5026 28.9139 95.5059C28.6406 95.5093 28.6877 95.6595 29.032 95.882C29.7659 96.3563 29.8981 96.3563 29.605 95.882ZM74.872 94.5238C74.872 94.4156 74.5395 94.5051 74.1331 94.7226C73.7267 94.9401 72.6523 95.1438 71.7456 95.1752C70.5957 95.2152 70.4167 95.2808 71.154 95.3922C71.7366 95.4803 72.1044 95.7244 71.9735 95.9361C71.843 96.1474 72.4417 95.9603 73.3041 95.5204C74.1664 95.0804 74.872 94.632 74.872 94.5238ZM27.4455 94.719C26.7471 94.1975 26.4939 93.7256 26.6311 93.2011C26.902 92.1651 26.0941 91.2948 24.8787 91.3133L23.875 91.3286L24.9255 91.8985C25.8483 92.3991 26.3637 93.208 25.7599 93.208C25.3436 93.208 23.8723 92.3256 23.5943 91.9093C23.3917 91.6058 23.3121 91.608 23.3078 91.9171C23.3048 92.1525 24.3764 93.0535 25.6895 93.9191C28.183 95.563 29.19 96.0216 27.4455 94.719ZM5.9993 94.377C6.43675 93.9695 6.87026 93.7116 6.96266 93.804C7.05506 93.8964 7.13066 93.7273 7.13066 93.4281C7.13066 93.0431 6.75878 93.1679 5.85732 93.8555C5.15699 94.3896 4.58399 94.8922 4.58399 94.9723C4.58399 95.3416 5.27659 95.0503 5.9993 94.377ZM80.1593 90.8748C82.5314 88.8771 86.1749 84.9662 86.8827 83.658C87.2285 83.0188 86.2427 84.0225 83.6151 86.9851C81.7807 89.0534 76.9312 93.208 76.3514 93.208C76.168 93.208 76.018 93.0361 76.018 92.826C76.018 92.6159 75.825 92.444 75.5892 92.444C75.2768 92.444 75.2743 92.5812 75.5801 92.9497C75.8874 93.32 75.8744 93.5902 75.5314 93.959C74.504 95.0635 77.7698 92.887 80.1593 90.8748ZM13.5937 89.5357C13.3656 89.2885 13.0317 89.1756 12.8517 89.2848C12.6717 89.3941 12.7156 89.6016 12.9492 89.746C13.5104 90.0929 10.8824 91.3455 10.1684 91.0716C9.87077 90.9574 9.51501 91.0456 9.37779 91.2676C9.22272 91.5185 9.38879 91.5888 9.81665 91.4534C10.4315 91.2589 10.4259 91.3001 9.76348 91.8398C8.87691 92.5622 8.24485 92.6338 8.64577 91.9665C8.84308 91.6381 8.73216 91.6516 8.29053 92.0098C7.93736 92.2962 7.74 92.6788 7.85195 92.8599C7.96391 93.0411 9.39489 92.4684 11.0319 91.5873C13.2541 90.3912 13.9033 89.8714 13.5937 89.5357ZM77.546 91.68C77.546 91.4699 77.2881 91.298 76.973 91.298C76.6578 91.298 76.4 91.4699 76.4 91.68C76.4 91.8901 76.6578 92.062 76.973 92.062C77.2881 92.062 77.546 91.8901 77.546 91.68ZM22.7927 91.1238C22.7927 90.8179 22.6466 90.6579 22.4681 90.7682C22.2896 90.8785 22.2424 91.1288 22.3633 91.3244C22.6722 91.8242 22.7927 91.7679 22.7927 91.1238ZM25.403 90.152C25.6822 89.7002 25.3084 89.7002 24.257 90.152C23.5204 90.4685 23.523 90.4813 24.3299 90.5072C24.7903 90.5219 25.2731 90.3621 25.403 90.152ZM28.5853 89.9242L27.695 89.4456L28.7587 89.0392C29.3438 88.8157 30.2033 88.6916 30.6687 88.7635C31.1734 88.8415 31.7165 88.6084 32.0142 88.1861C32.2887 87.7966 32.9232 87.478 33.4241 87.478C33.925 87.478 34.4454 87.2992 34.5805 87.0807C34.8996 86.5642 33.6391 86.8846 29.4092 88.3948C25.9839 89.6178 25.5474 90.313 28.1672 90.3729C29.4301 90.4019 29.4447 90.3862 28.5853 89.9242ZM80.1435 88.9758C80.5618 88.9564 80.6184 88.8756 80.3026 88.7487C79.7335 88.5201 78.6866 89.2819 78.7036 89.9123C78.71 90.1492 78.8904 90.0422 79.1046 89.6745C79.3187 89.3068 79.7862 88.9924 80.1435 88.9758ZM16.044 88.7881C16.044 88.6831 15.7002 88.7811 15.28 89.006C14.8598 89.2309 14.516 89.5008 14.516 89.6059C14.516 89.7109 14.8598 89.6129 15.28 89.388C15.7002 89.1631 16.044 88.8932 16.044 88.7881ZM30.56 89.388C30.56 89.1779 30.3881 89.006 30.178 89.006C29.9679 89.006 29.796 89.1779 29.796 89.388C29.796 89.5981 29.9679 89.77 30.178 89.77C30.3881 89.77 30.56 89.5981 30.56 89.388ZM15.939 87.1357C16.7539 86.2774 16.9625 85.95 16.6945 85.95C16.6321 85.95 15.9015 86.6724 15.071 87.5554C14.2405 88.4384 13.9005 88.9111 14.3155 88.6059C14.7305 88.3007 15.4611 87.6391 15.939 87.1357ZM39.346 87.6788C39.346 87.5791 38.7991 87.2148 38.1307 86.8692L36.9154 86.2407L39.1577 85.3285C40.391 84.8267 41.7544 84.5147 42.1875 84.6351C42.8372 84.8158 42.8748 84.7788 42.402 84.4238C41.9537 84.0873 42.12 84.0393 43.166 84.2033C43.9013 84.3186 44.2881 84.3148 44.0255 84.1947C42.9861 83.7194 43.6098 83.2516 44.9805 83.4783C45.927 83.6348 46.2385 83.5929 45.8987 83.3548C45.3759 82.9885 45.371 82.9912 49.1591 81.5527C50.018 81.2265 50.4968 81.2096 50.7826 81.4954C51.0684 81.7812 51.188 81.7262 51.188 81.3087C51.188 80.627 55.8826 78.4792 56.5164 78.8709C56.7373 79.0074 56.918 78.913 56.918 78.6611C56.918 78.3335 57.5253 78.2658 59.0511 78.4233C61.4336 78.6692 62.3066 78.4783 62.0351 77.7707C61.6163 76.6795 57.6376 77.5872 51.0777 80.2706C47.5504 81.7135 44.5644 82.894 44.4422 82.894C44.32 82.894 42.1848 83.7013 39.6974 84.6879C36.2456 86.0571 35.2682 86.5944 35.5693 86.9572C35.7863 87.2187 36.1662 87.3577 36.4134 87.2661C36.7688 87.1345 37.8684 87.352 39.2505 87.8272C39.303 87.8452 39.346 87.7785 39.346 87.6788ZM83.1682 85.9198C83.5896 85.9012 83.6622 85.8146 83.3586 85.6927C82.7122 85.4331 81.7416 86.2618 81.7722 87.0473C81.7886 87.468 81.9081 87.3911 82.1419 86.8095C82.3319 86.3368 82.7937 85.9364 83.1682 85.9198ZM20.9782 86.0893C21.5024 85.6306 20.259 86.0566 19.6505 86.5441C18.9513 87.1042 18.9635 87.1122 19.864 86.6833C20.3892 86.4332 20.8906 86.1659 20.9782 86.0893ZM20.8802 82.7951C21.0253 83.1548 21.208 83.1325 21.638 82.7025C21.9497 82.3909 22.0931 81.9552 21.9566 81.7344C21.8201 81.5136 22.1778 80.6958 22.7514 79.917C23.3249 79.1382 22.3513 80.0308 20.5876 81.9006C18.824 83.7703 17.3145 85.4893 17.2332 85.7206C17.1519 85.9518 17.8962 85.2815 18.8872 84.231C19.9993 83.0522 20.7622 82.5025 20.8802 82.7951ZM22.3571 85.2598C22.2395 85.1422 21.9313 85.2595 21.6721 85.5206C21.2977 85.8979 21.3415 85.9417 21.886 85.7344C22.2627 85.591 22.4747 85.3774 22.3571 85.2598ZM25.594 83.7428C25.699 83.6439 25.3552 83.6888 24.83 83.8425C24.3047 83.9962 23.6171 84.3688 23.302 84.6705C22.8863 85.0685 23.096 85.0411 24.066 84.5708C24.8013 84.2142 25.4889 83.8416 25.594 83.7428ZM48.132 83.276C48.132 83.0659 47.9702 82.894 47.7725 82.894C47.5748 82.894 47.3068 83.0659 47.177 83.276C47.0471 83.4861 47.2089 83.658 47.5364 83.658C47.864 83.658 48.132 83.4861 48.132 83.276ZM90.3357 78.501C92.1858 75.2534 94.1108 70.5883 94.513 68.378C94.6467 67.6426 94.1894 68.674 93.4967 70.67C92.2388 74.2942 89.7708 79.2218 87.9482 81.748C87.1907 82.7978 87.1566 82.9209 87.7892 82.321C88.2322 81.9008 89.3782 80.1818 90.3357 78.501ZM15.287 81.3561C15.7397 80.7204 17.7254 78.3682 19.6997 76.1291C21.6739 73.8899 23.1932 71.9619 23.0759 71.8446C22.9587 71.7273 22.6993 71.9233 22.4997 72.2801C22.3 72.6368 20.5079 74.776 18.5173 77.0337C16.5267 79.2914 14.898 81.2757 14.898 81.4433C14.898 81.6109 14.7077 81.748 14.4751 81.748C14.2425 81.748 14.1491 81.4957 14.2674 81.1872C14.5207 80.5272 13.9166 80.0267 13.561 80.602C13.4269 80.819 13.1544 80.8958 12.9554 80.7728C12.7564 80.6498 12.6981 80.3801 12.8258 80.1733C12.9536 79.9666 12.7068 79.4927 12.2774 79.1203C11.7548 78.667 11.5563 78.1371 11.6772 77.5171C11.8356 76.7041 11.8152 76.6843 11.5099 77.355C11.1837 78.0717 11.1359 78.0524 10.7381 77.0436C10.5048 76.4522 10.314 75.74 10.314 75.461C10.314 75.182 10.0561 74.8548 9.74099 74.7339C9.42584 74.6129 9.16079 74.2078 9.15198 73.8335C9.14319 73.4592 8.79347 72.5513 8.37486 71.816C6.95933 69.3294 7.94754 72.1662 9.81005 75.9359C11.6518 79.6637 13.5144 82.512 14.1104 82.512C14.3049 82.512 14.8343 81.9918 15.287 81.3561ZM30.942 81.939C32.1896 81.2258 31.753 81.2178 30.1263 81.9241C29.4194 82.231 29.0988 82.4827 29.414 82.4835C29.7291 82.4843 30.4167 82.2393 30.942 81.939ZM26.2545 81.8992C26.1276 81.7723 25.7981 81.7587 25.5224 81.8691C25.2176 81.991 25.3081 82.0815 25.7532 82.0999C26.1558 82.1164 26.3815 82.0261 26.2545 81.8992ZM53.653 80.9227C54.1882 80.6789 54.626 80.3351 54.626 80.1587C54.626 79.7101 54.3693 79.7536 53.079 80.4208C51.2894 81.3463 51.7806 81.7758 53.653 80.9227ZM88.6118 79.4785C88.6204 79.0904 88.4585 79.1468 88.0631 79.6695C87.7547 80.0773 87.4968 80.6587 87.4901 80.9615C87.4816 81.3496 87.6435 81.2932 88.0388 80.7705C88.3473 80.3627 88.6052 79.7813 88.6118 79.4785ZM36.672 79.7736C37.0702 79.5275 36.9537 79.4974 36.29 79.675C35.7647 79.8155 35.0771 80.0897 34.762 80.2844C34.3638 80.5305 34.4803 80.5606 35.144 80.383C35.6692 80.2425 36.3568 79.9683 36.672 79.7736ZM24.448 79.838C24.448 79.6279 24.2659 79.456 24.0434 79.456C23.8209 79.456 23.7451 79.6279 23.875 79.838C24.0048 80.0481 24.1869 80.22 24.2795 80.22C24.3722 80.22 24.448 80.0481 24.448 79.838ZM40.301 78.31C41.5616 77.7119 42.4211 77.2178 42.211 77.2121C42.0009 77.2063 40.7976 77.6941 39.537 78.296C38.2764 78.8979 37.4169 79.392 37.627 79.394C37.8371 79.3959 39.0404 78.9081 40.301 78.31ZM25.0272 77.2595C25.9605 76.1991 26.2839 75.4006 25.6118 75.816C25.1044 76.1296 23.5793 78.31 23.8673 78.31C23.9967 78.31 24.5187 77.8373 25.0272 77.2595ZM45.0329 76.2527C46.3865 75.5446 46.5781 75.3258 46.0287 75.115C45.6547 74.9715 45.2586 74.944 45.1487 75.054C45.0387 75.164 45.1922 75.2618 45.4898 75.2713C45.7875 75.2808 45.2574 75.7027 44.312 76.209C43.3665 76.7153 42.7649 77.1295 42.975 77.1295C43.1851 77.1295 44.1112 76.7349 45.0329 76.2527ZM66.2327 75.3383C67.5176 74.5905 69.1516 73.5394 69.8636 73.0025C70.6843 72.3836 71.5932 72.0483 72.3466 72.0863C73.4959 72.1443 73.501 72.1377 72.5023 71.8856C71.4748 71.6263 71.4809 71.6155 73.7367 69.715C74.9835 68.6645 76.0069 67.6761 76.0108 67.5185C76.0251 66.9456 76.782 67.2489 76.782 67.8275C76.782 68.1551 76.9622 68.3117 77.1825 68.1755C77.4556 68.0068 77.4382 67.7534 77.1281 67.3798C76.8779 67.0782 76.7929 66.7117 76.9393 66.5653C77.0857 66.4189 77.3262 66.4944 77.4737 66.733C77.666 67.0441 77.9573 67.0028 78.5034 66.5869C79.2493 66.019 79.2472 66.0123 78.4055 66.2632C77.2583 66.6053 77.3219 66.2836 78.6902 64.8238C79.3196 64.1524 79.8353 63.4557 79.8362 63.2756C79.8374 63.0956 80.0851 63.0431 80.3872 63.159C80.745 63.2963 80.9811 63.0776 81.0648 62.5314C81.1354 62.0703 81.4167 61.7402 81.69 61.798C81.9632 61.8557 82.0749 61.7219 81.9382 61.5007C81.639 61.0166 85.5438 56.0939 86.0022 56.3773C86.1788 56.4864 86.2107 56.2824 86.0732 55.924C85.8521 55.3478 85.7365 55.3787 85.0753 56.1907C84.664 56.6957 82.7377 59.0873 80.7946 61.5051C75.3544 68.2746 70.3695 72.711 64.8362 75.7076C63.3175 76.5301 62.4848 77.0894 62.9857 76.9505C63.4865 76.8117 64.9477 76.0862 66.2327 75.3383ZM27.618 74.108C27.7395 74.108 28.4081 73.5729 29.1039 72.9188C29.9624 72.1118 30.208 71.6693 29.8681 71.5422C29.4804 71.3971 29.5154 71.1911 30.0228 70.6304C30.3834 70.232 30.9042 69.906 31.1802 69.906C31.4884 69.906 31.5892 69.6642 31.4415 69.2793C31.0844 68.3485 28.9768 70.9723 29.2807 71.9693C29.4464 72.5128 29.3539 72.6387 28.9131 72.4695C28.3554 72.2555 26.3403 74.3662 26.3701 75.133C26.3768 75.3046 26.6106 75.1442 26.8898 74.7765C27.1689 74.4088 27.4966 74.108 27.618 74.108ZM49.1595 74.2442C48.9703 74.055 46.986 74.7758 46.986 75.0337C46.986 75.133 47.5105 75.0314 48.1515 74.808C48.7925 74.5845 49.2461 74.3308 49.1595 74.2442ZM20.055 74.108C20.1848 73.8979 20.109 73.726 19.8865 73.726C19.664 73.726 19.482 73.8979 19.482 74.108C19.482 74.3181 19.5578 74.49 19.6504 74.49C19.7431 74.49 19.9251 74.3181 20.055 74.108ZM41.256 74.108C41.256 73.8979 41.7615 73.726 42.3794 73.726C42.9973 73.726 43.5867 73.5904 43.6891 73.4247C43.7916 73.2589 42.9852 73.13 41.8972 73.1382C39.3052 73.1576 39.3527 72.7876 42.4647 68.7244C45.5138 64.7432 46.7151 63.03 46.4574 63.03C46.3481 63.03 45.7529 63.7606 45.1347 64.6535C44.5166 65.5464 43.6918 66.6493 43.3019 67.1043C41.6493 69.033 41.256 69.5457 41.256 69.7711C41.256 69.9021 40.8262 70.4077 40.301 70.8945C39.1899 71.9242 39.0575 73.1445 40.0145 73.5351C40.6282 73.7856 40.6203 73.8338 39.919 74.1222C39.2486 74.3978 39.2837 74.4396 40.2055 74.4632C40.7833 74.4779 41.256 74.3181 41.256 74.108ZM51.8335 73.0982C51.6443 72.909 49.66 73.6298 49.66 73.8877C49.66 73.987 50.1845 73.8854 50.8255 73.662C51.4665 73.4385 51.9201 73.1848 51.8335 73.0982ZM92.062 73.344C92.062 73.1339 91.8901 72.962 91.68 72.962C91.4699 72.962 91.298 73.1339 91.298 73.344C91.298 73.5541 91.4699 73.726 91.68 73.726C91.8901 73.726 92.062 73.5541 92.062 73.344ZM46.6917 72.6863C46.1817 72.5022 47.7217 71.052 48.4272 71.052C48.6284 71.052 49.2628 70.6824 49.837 70.2307C50.7067 69.5467 50.9447 69.4988 51.2616 69.9442C51.5532 70.354 51.5874 70.3113 51.4082 69.7614C51.2046 69.1368 51.3237 69.0736 52.3271 69.2743C53.4501 69.4989 53.9569 69.0161 53.0025 68.631C52.7172 68.5159 52.7941 68.4262 53.1935 68.4082C53.5612 68.3916 53.862 68.1851 53.862 67.9492C53.862 67.653 54.0391 67.6674 54.435 67.996C54.9426 68.4173 55.1503 68.2827 55.0742 67.5815C55.0609 67.4586 56.1498 66.8107 57.494 66.1417C58.8381 65.4728 60.034 64.77 60.1513 64.5801C60.2687 64.3902 60.8785 64.1219 61.5064 63.984C62.1343 63.8461 62.648 63.5799 62.648 63.3923C62.648 63.2048 63.5934 62.7765 64.749 62.4406C65.9045 62.1046 66.85 61.6734 66.85 61.4822C66.85 61.291 67.2955 61.0227 67.84 60.8861C68.9511 60.6072 71.7948 59.2488 71.3169 59.2252C69.9555 59.158 58.0997 64.998 48.7986 70.3174C44.5796 72.7304 44.3949 72.8849 45.7426 72.8735C46.5315 72.8669 46.9586 72.7827 46.6917 72.6863ZM55.39 71.816C55.7051 71.6123 55.7911 71.4457 55.581 71.4457C55.3709 71.4457 54.9411 71.6123 54.626 71.816C54.3108 72.0197 54.2249 72.1863 54.435 72.1863C54.6451 72.1863 55.0748 72.0197 55.39 71.816ZM24.8329 69.8105C25.9537 68.3854 25.9806 68.3037 25.0528 69.142C24.0895 70.0124 23.074 71.434 23.4156 71.434C23.4929 71.434 24.1307 70.7034 24.8329 69.8105ZM53.3765 71.2032C53.2496 71.0763 52.9201 71.0627 52.6444 71.1731C52.3396 71.295 52.4302 71.3855 52.8752 71.4039C53.2779 71.4204 53.5035 71.3301 53.3765 71.2032ZM57.3 71.052C57.6151 70.8483 57.7011 70.6817 57.491 70.6817C57.2809 70.6817 56.8511 70.8483 56.536 71.052C56.2208 71.2557 56.1349 71.4223 56.345 71.4223C56.5551 71.4223 56.9848 71.2557 57.3 71.052ZM59.21 70.288C59.5251 70.0843 59.6111 69.9177 59.401 69.9177C59.1909 69.9177 58.7611 70.0843 58.446 70.288C58.1308 70.4917 58.0449 70.6583 58.255 70.6583C58.4651 70.6583 58.8948 70.4917 59.21 70.288ZM7.49136 69.0673C7.01151 66.6681 6.44021 64.8665 6.22689 65.0798C6.10759 65.1991 6.33162 66.4197 6.72472 67.7923C7.4779 70.4222 7.90411 71.1311 7.49136 69.0673ZM64.3416 69.5631C64.7679 69.3961 64.9129 69.1703 64.6844 69.0291C64.4667 68.8946 63.9624 69.0314 63.5638 69.3331C62.784 69.9234 63.1473 70.0308 64.3416 69.5631ZM75.254 69.552C75.254 69.3573 75.5548 69.1194 75.9225 69.0233C76.4865 68.8759 76.4938 68.8417 75.9693 68.8043C75.6273 68.7799 75.1335 69.0178 74.872 69.333C74.5434 69.7289 74.529 69.906 74.8252 69.906C75.061 69.906 75.254 69.7467 75.254 69.552ZM41.2078 67.6734C40.7749 67.5149 39.728 68.3293 39.728 68.8246C39.728 69.0188 40.1418 68.8688 40.6476 68.4913C41.1534 68.1139 41.4055 67.7458 41.2078 67.6734ZM63.5921 68.3956C63.6847 68.2458 63.2093 68.1233 62.5357 68.1233C61.8621 68.1233 61.5269 68.1953 61.7909 68.2833C62.0548 68.3713 62.1835 68.5844 62.0768 68.757C61.9702 68.9296 62.2297 68.9801 62.6534 68.8693C63.0772 68.7585 63.4996 68.5453 63.5921 68.3956ZM66.086 68.569C66.086 68.2538 66.0184 67.996 65.9359 67.996C65.8533 67.996 65.6868 68.2538 65.5659 68.569C65.4449 68.8841 65.5125 69.142 65.716 69.142C65.9195 69.142 66.086 68.8841 66.086 68.569ZM32.8927 68.0206C33.1467 68.4027 33.1832 68.2505 33.0132 67.5185C32.879 66.9407 32.9226 66.468 33.1102 66.468C33.2978 66.468 33.733 65.9953 34.0772 65.4175C34.4215 64.8397 35.0185 64.0232 35.4038 63.603C35.7892 63.1828 36.3188 62.3566 36.5809 61.767C36.8429 61.1773 37.2264 60.7995 37.4332 60.9273C37.6489 61.0606 37.7111 60.9039 37.579 60.5597C37.3861 60.057 37.5077 60.0202 38.3291 60.3325C39.1732 60.6534 39.276 60.6146 39.0691 60.0531C38.9369 59.6944 38.6443 59.2747 38.4189 59.1204C38.1718 58.9512 38.2746 58.8374 38.6775 58.8339C39.0452 58.8308 39.346 58.5665 39.346 58.2468C39.346 57.6423 41.232 54.5305 41.7335 54.3077C41.8911 54.2376 42.02 53.8587 42.02 53.4655C42.02 53.0724 42.4497 52.321 42.975 51.7957C43.5002 51.2705 43.93 50.661 43.93 50.4414C43.93 50.2217 44.1019 50.042 44.312 50.042C44.5221 50.042 44.651 49.8271 44.5985 49.5645C44.546 49.3019 44.7179 49.13 44.9805 49.1825C45.2431 49.235 45.458 48.9308 45.458 48.5064C45.458 48.082 45.9001 47.0344 46.4406 46.1783C46.981 45.3222 47.362 44.5607 47.2873 44.486C47.1507 44.3494 39.9728 55.4836 39.0341 57.2882C38.7575 57.8199 38.2222 58.5988 37.8445 59.019C37.4668 59.4392 36.06 61.3963 34.7184 63.3682C33.3767 65.34 32.0232 67.3169 31.7105 67.7612C31.1765 68.5199 31.1841 68.5357 31.8351 68.0206C32.4374 67.544 32.576 67.544 32.8927 68.0206ZM70.006 66.7666C70.5862 66.3601 70.9456 65.8409 70.8046 65.6128C70.6407 65.3476 70.3117 65.4901 69.8926 66.0077C69.5319 66.4531 69.102 66.6959 68.9372 66.5473C68.7724 66.3986 68.75 66.4739 68.8876 66.7145C69.1462 67.167 68.1453 67.7514 67.6432 67.441C67.4871 67.3446 67.3593 67.5066 67.3593 67.8012C67.3593 68.3975 68.0802 68.1157 70.006 66.7666ZM28.8114 64.9573C30.3048 62.9969 31.3453 61.434 30.8574 61.884C30.1534 62.5333 25.9606 68.0827 26.515 67.6313C26.8904 67.3257 27.9238 66.1224 28.8114 64.9573ZM65.9051 66.9238C65.7875 66.8062 65.4793 66.9235 65.2201 67.1846C64.8457 67.5619 64.8895 67.6057 65.434 67.3984C65.8107 67.255 66.0227 67.0414 65.9051 66.9238ZM68.2398 66.0534C69.4482 65.3065 69.6639 64.5204 68.6419 64.5882C68.3451 64.6078 68.3643 64.6891 68.697 64.8218C69.0239 64.9523 68.681 65.3486 67.742 65.9257C66.9362 66.421 66.4286 66.8315 66.6139 66.8381C66.7992 66.8446 67.5309 66.4915 68.2398 66.0534ZM95.0007 65.4248C94.9039 65.0531 94.8182 65.2647 94.8105 65.895C94.8027 66.5253 94.8819 66.8294 94.9866 66.5708C95.0912 66.3121 95.0976 65.7964 95.0007 65.4248ZM66.85 65.322C66.85 65.1119 66.6781 64.94 66.468 64.94C66.2579 64.94 66.086 65.1119 66.086 65.322C66.086 65.5321 66.2579 65.704 66.468 65.704C66.6781 65.704 66.85 65.5321 66.85 65.322ZM44.3192 64.7403C44.7229 64.2538 44.6993 64.1979 44.175 64.3991C43.8302 64.5315 43.548 64.7932 43.548 64.9809C43.548 65.4721 43.7691 65.4031 44.3192 64.7403ZM80.3947 64.9664C80.5156 64.7708 80.4397 64.5028 80.2262 64.3708C80.0127 64.2389 79.838 64.3989 79.838 64.7265C79.838 65.3974 80.0672 65.4962 80.3947 64.9664ZM70.4627 64.1496C70.1035 63.5684 69.5295 63.7459 69.767 64.3648C69.8875 64.6788 70.1427 64.8388 70.3343 64.7204C70.5258 64.6021 70.5836 64.3452 70.4627 64.1496ZM73.5316 63.141C74.1725 62.1331 74.1419 62.1425 72.9707 63.3131C72.2894 63.994 71.5524 64.4402 71.333 64.3046C71.1004 64.1608 71.0479 64.2424 71.2072 64.5C71.5872 65.1149 72.6844 64.4734 73.5316 63.141ZM6.84931 58.446C7.06563 57.0803 7.24609 55.0605 7.25031 53.9575C7.25596 52.4855 7.40197 51.952 7.79916 51.952C8.0968 51.952 8.41243 52.0809 8.50055 52.2385C8.58868 52.3961 8.58606 52.2671 8.49474 51.952C8.40343 51.6368 8.26253 50.6914 8.18165 49.851C8.07242 48.7161 8.11086 48.5677 8.3311 49.2741C8.51968 49.8791 8.72774 50.0633 8.90266 49.7803C9.05393 49.5355 8.96851 48.8761 8.71283 48.315C8.31608 47.4442 8.34336 47.2413 8.89898 46.9304C9.25704 46.73 9.54736 46.2738 9.54415 45.9165C9.53911 45.3575 9.48668 45.3469 9.16799 45.84C8.57644 46.7554 8.7284 45.9867 9.42974 44.516C9.78381 43.7735 10.2251 43.166 10.4105 43.166C10.5958 43.166 10.6491 42.8562 10.5289 42.4775C10.4087 42.0988 10.659 41.0674 11.0851 40.1855C11.8992 38.5006 12.4525 38.0488 12.1133 39.346C12.0034 39.7662 12.0823 40.11 12.2885 40.11C12.4948 40.11 12.6324 39.6373 12.5943 39.0595C12.4586 37.0006 12.5622 36.7321 13.4071 36.953C14.1361 37.1437 14.1632 37.0904 13.7081 36.3616C13.0583 35.3211 13.5892 34.7832 14.3168 35.7449C14.7985 36.3816 14.8753 36.395 14.8858 35.8443C14.8925 35.4942 14.6952 35.1401 14.4473 35.0574C14.1825 34.9692 14.1056 34.6231 14.2608 34.2186C14.4882 33.6261 14.6136 33.6026 15.1598 34.0505C15.7211 34.5108 15.7702 34.4768 15.5846 33.7558C15.4468 33.2206 15.6387 32.7147 16.1434 32.2825C16.6891 31.8153 16.7809 31.5433 16.4599 31.345C16.1276 31.1396 16.1644 30.9356 16.5989 30.575C17.0313 30.2161 17.19 30.2056 17.19 30.5358C17.19 30.784 17.3689 30.8765 17.5875 30.7414C17.8062 30.6063 17.8673 30.1247 17.7234 29.6713C17.4836 28.9158 17.5188 28.8943 18.145 29.414C18.7701 29.9328 18.8064 29.9124 18.5721 29.1742C18.3581 28.5 18.506 28.3295 19.472 28.1363C20.1078 28.0091 20.628 27.7105 20.628 27.4727C20.628 27.2287 20.3548 27.1451 20.001 27.2809C19.4695 27.4848 19.4497 27.4302 19.8712 26.9224C20.1446 26.5928 20.5987 26.4116 20.8802 26.5196C21.2011 26.6428 21.392 26.4356 21.392 25.964C21.392 25.5376 21.6498 25.212 21.9875 25.212C22.3151 25.212 22.4872 25.0569 22.3701 24.8673C22.1255 24.4716 26.165 20.8588 27.5412 20.2423C28.5009 19.8124 29.096 19.472 31.3745 18.0495C32.1317 17.5768 33.0174 17.19 33.3427 17.19C33.6681 17.19 33.9916 17.02 34.0617 16.8122C34.2662 16.2054 38.5719 14.8433 39.4273 15.1148C39.9461 15.2795 40.1185 15.2208 39.9443 14.9389C39.7698 14.6566 40.1909 14.516 41.2109 14.516C42.0513 14.516 42.8514 14.3339 42.9889 14.1114C43.1264 13.8889 43.6093 13.7547 44.062 13.8132C44.5146 13.8716 45.1373 13.7625 45.4458 13.5707C46.3672 12.9977 57.7265 13.1612 58.8357 13.7635C59.3567 14.0464 60.2987 14.2398 60.929 14.1934C61.5593 14.1469 62.8485 14.3554 63.794 14.6567L65.513 15.2045L64.176 15.2964L62.839 15.3884L64.367 15.6207C65.2074 15.7485 65.9522 15.7244 66.0221 15.5672C66.092 15.4099 66.6077 15.3892 67.1681 15.521C68.3402 15.7967 69.1904 16.426 68.3907 16.426C68.1036 16.426 67.9666 16.5239 68.0863 16.6436C68.3695 16.9269 71.434 15.3651 71.434 14.9376C71.434 14.225 65.9225 11.7734 62.313 10.8803C54.8163 9.02543 45.7314 9.02568 38.6085 10.8811C31.5157 12.7285 22.5565 18.1664 17.286 23.8231C9.01244 32.7029 4.93451 42.6534 4.81884 54.2442C4.79462 56.6706 5.02604 60.0052 5.33578 61.6932L5.89657 64.7492L6.17627 62.8392C6.33011 61.7887 6.63298 59.8116 6.84931 58.446ZM67.8925 63.9452C67.7656 63.8183 67.4361 63.8047 67.1604 63.9151C66.8556 64.037 66.9461 64.1275 67.3912 64.1459C67.7938 64.1624 68.0195 64.0721 67.8925 63.9452ZM95.8485 57.6974C95.9299 50.7689 94.0195 40.4336 91.7202 35.3625C90.1348 31.866 86.8887 26.9995 84.2213 24.1202L81.9712 21.6913L81.0975 22.7832C80.6169 23.3837 80.2229 24.3532 80.2219 24.9378C80.2192 26.3583 79.3574 28.3413 77.7129 30.7099C76.7837 32.0481 76.6756 32.3116 77.3689 31.5487C78.1869 30.6485 78.448 30.5393 78.7384 30.9757C78.9836 31.3443 79.02 31.1825 78.8532 30.4645C78.6065 29.4023 79.183 28.97 79.6174 29.8915C79.7413 30.1541 79.7627 29.9378 79.6652 29.4108C79.5676 28.8838 79.6499 28.1962 79.848 27.8828C80.1492 27.4065 80.2093 27.4294 80.2141 28.0224C80.218 28.4949 80.4113 28.6583 80.793 28.5119C81.1231 28.3852 81.366 28.5047 81.366 28.7938C81.366 29.6799 82.7403 30.6122 83.7086 30.383C84.5044 30.1946 84.9009 30.5968 87.0108 33.7318C90.2217 38.503 91.0151 40.0107 90.4246 40.2196C90.0881 40.3387 90.1629 40.769 90.6976 41.7896C91.121 42.5976 91.6406 43.1163 91.9196 43.0092C92.2031 42.9004 92.3257 43.0297 92.2144 43.32C92.1095 43.5933 92.4411 44.0905 92.9513 44.4248C94.1712 45.2241 94.5541 47.1022 95.0703 54.817C95.2389 57.3382 95.2597 59.8307 95.1165 60.356C94.9732 60.8812 94.95 61.9986 95.0648 62.839L95.2737 64.367L95.5444 62.457C95.6933 61.4065 95.8301 59.2647 95.8485 57.6974ZM91.5527 42.1473C91.4126 42.0073 91.3032 41.6205 91.3096 41.2878C91.3192 40.7911 91.3937 40.8076 91.7266 41.3801C92.138 42.0875 92.0187 42.6134 91.5527 42.1473ZM82.512 29.414C82.512 29.2039 82.5267 28.9223 82.5446 28.7882C82.5626 28.6541 82.3527 28.4056 82.0782 28.236C81.8037 28.0663 81.6726 27.834 81.7869 27.7198C81.9012 27.6055 82.487 28.0259 83.0888 28.654C84.1386 29.7497 84.1491 29.796 83.3475 29.796C82.888 29.796 82.512 29.6241 82.512 29.414ZM54.7162 51.1241C63.5207 38.367 66.67 34.1667 74.4996 24.7381C76.1991 22.6917 77.3649 21.1043 77.0903 21.2106C76.8157 21.317 76.2049 21.9599 75.733 22.6395C75.2612 23.319 74.0149 24.8115 72.9635 25.9561C71.9122 27.1008 71.052 28.1697 71.052 28.3316C71.052 28.4936 70.8115 28.5337 70.5176 28.421C70.2237 28.3082 69.871 28.3975 69.7338 28.6196C69.582 28.8652 69.7164 28.9342 70.0772 28.7958C71.0018 28.4409 70.7649 29.096 69.4196 30.6136C68.7417 31.3784 67.1096 33.3814 65.7927 35.0646C64.223 37.071 63.1706 38.091 62.7367 38.0263C62.3728 37.972 62.2899 38.0015 62.5525 38.0918C62.8151 38.1821 63.03 38.3336 63.03 38.4283C63.03 38.5983 61.4836 40.8357 58.3374 45.218C57.4517 46.4517 56.2756 48.1488 55.724 48.9894C55.1723 49.8301 54.6418 50.3678 54.5451 50.1844C54.4484 50.001 54.4201 50.0621 54.4824 50.3201C54.5771 50.7129 52.1396 54.4169 47.8153 60.4514C47.3259 61.1343 46.6813 61.6425 46.3828 61.5807C46.0842 61.519 45.84 61.6581 45.84 61.8898C45.84 62.1215 46.0119 62.2048 46.222 62.075C46.4321 61.9452 46.604 62.0616 46.604 62.3339C46.604 62.8716 46.6999 62.7392 54.7162 51.1241ZM57.3721 61.1169C58.2809 60.692 58.3338 60.5713 57.8314 60.0689C57.5191 59.7566 57.1479 59.6168 57.0064 59.7583C56.8649 59.8998 56.9599 60.1458 57.2176 60.3051C57.5295 60.4978 57.2342 60.8101 56.334 61.2393C55.5905 61.5939 54.8903 61.884 54.778 61.884C54.4774 61.884 56.1143 59.6589 57.3293 58.416C57.9084 57.8236 58.4912 56.9952 58.6246 56.575C58.758 56.1549 59.1933 55.7075 59.592 55.581C60.027 55.4429 60.2321 55.1295 60.1046 54.7974C59.9878 54.493 60.055 54.244 60.2538 54.244C60.4527 54.244 60.8112 53.8142 61.0505 53.289C61.2898 52.7637 61.7418 52.334 62.0548 52.334C62.4038 52.334 62.539 52.1123 62.4041 51.761C62.2832 51.4458 62.3745 51.188 62.6071 51.188C62.8397 51.188 63.03 50.9301 63.03 50.615C63.03 50.2998 63.298 50.042 63.6255 50.042C63.9531 50.042 64.1146 49.8697 63.9844 49.6591C63.7433 49.269 65.9913 45.84 66.4882 45.84C66.6382 45.84 66.8508 45.4962 66.9607 45.076C67.0706 44.6558 67.1128 44.312 67.0546 44.312C66.9439 44.312 65.0415 46.8485 61.0378 52.334C59.7344 54.1198 57.968 56.5264 57.1125 57.682C56.257 58.8375 55.1548 60.4386 54.6632 61.24L53.7694 62.6969L55.0572 62.147C55.7655 61.8445 56.8072 61.381 57.3721 61.1169ZM21.392 61.502C21.392 61.2919 21.2201 61.12 21.01 61.12C20.7999 61.12 20.628 61.2919 20.628 61.502C20.628 61.7121 20.7999 61.884 21.01 61.884C21.2201 61.884 21.392 61.7121 21.392 61.502ZM75.851 60.6425L76.973 59.401L75.7315 60.523C74.9854 61.1972 74.49 61.4386 74.49 61.1278C74.49 60.8434 74.3868 60.7138 74.2607 60.8399C74.0621 61.0386 74.3627 61.884 74.6321 61.884C74.6854 61.884 75.2339 61.3253 75.851 60.6425ZM20.0499 59.9657C19.9467 59.7987 19.6047 58.6579 19.2899 57.4305C18.8259 55.6215 18.767 55.5245 18.9785 56.918C19.1221 57.8634 19.2384 59.1916 19.237 59.8695C19.2351 60.8439 19.3395 61.0148 19.736 60.6857C20.0119 60.4568 20.1531 60.1328 20.0499 59.9657ZM24.0542 59.9354C25.82 59.0151 26.093 58.645 24.5435 59.2721C23.9657 59.506 22.8913 59.9239 22.156 60.2009C21.1384 60.5842 21.0215 60.7085 21.6667 60.7212C22.133 60.7305 23.2074 60.3768 24.0542 59.9354ZM33.5983 58.0151C35.3882 55.4664 35.661 54.626 34.6986 54.626C34.4784 54.626 34.3972 54.8839 34.5181 55.199C34.6391 55.5142 34.5715 55.772 34.368 55.772C34.1645 55.772 34.0183 55.9009 34.0432 56.0585C34.1485 56.7253 33.9575 57.1994 33.2989 57.9063C32.3681 58.9055 31.1787 60.738 31.4611 60.738C31.5848 60.738 32.5466 59.5127 33.5983 58.0151ZM26.2545 60.1252C26.1276 59.9983 25.7981 59.9847 25.5224 60.0951C25.2176 60.217 25.3081 60.3075 25.7532 60.3259C26.1558 60.3424 26.3815 60.2522 26.2545 60.1252ZM61.1716 59.4141C62.3294 58.9097 62.3592 58.8606 61.4719 58.919C60.9301 58.9546 60.2787 59.2066 60.0244 59.4789C59.4348 60.11 59.5948 60.101 61.1716 59.4141ZM74.0045 59.7432C73.8776 59.6163 73.5481 59.6027 73.2724 59.7131C72.9676 59.835 73.0581 59.9255 73.5032 59.9439C73.9058 59.9604 74.1315 59.8702 74.0045 59.7432ZM27.2904 58.7158C27.1721 58.4077 28.0037 57.7418 29.4989 56.9473C30.8178 56.2463 32.1292 55.4878 32.413 55.2617C32.6968 55.0355 33.1846 54.813 33.497 54.7671C33.8094 54.7213 34.3643 54.4129 34.7301 54.0819C35.5988 53.2957 35.9334 53.3192 35.6786 54.1485C35.5657 54.5162 35.7289 54.3875 36.0413 53.8626C37.0561 52.1579 36.9609 52.194 30.2444 56.0634C27.2314 57.7992 26.0716 58.6535 26.4244 58.8771C27.1622 59.3449 27.5071 59.2806 27.2904 58.7158ZM75.2867 58.6764C75.023 58.3587 74.5019 58.2341 73.9984 58.3684C73.1648 58.5907 73.1664 58.5976 74.108 58.8638C75.5832 59.2809 75.7645 59.2521 75.2867 58.6764ZM64.558 58.064C65.2933 57.6614 65.7231 57.332 65.513 57.332C65.3029 57.332 64.5293 57.6614 63.794 58.064C63.0586 58.4666 62.6289 58.796 62.839 58.796C63.0491 58.796 63.8226 58.4666 64.558 58.064ZM49.2042 57.0989C49.0866 56.9813 48.873 57.1933 48.7295 57.57C48.5222 58.1145 48.5661 58.1583 48.9434 57.7839C49.2045 57.5247 49.3218 57.2165 49.2042 57.0989ZM76.4 57.694C76.4 57.4905 76.1421 57.4229 75.827 57.5439C75.5118 57.6648 75.254 57.8313 75.254 57.9139C75.254 57.9964 75.5118 58.064 75.827 58.064C76.1421 58.064 76.4 57.8975 76.4 57.694ZM78.7407 57.3955C79.2159 56.7896 79.2024 56.7761 78.5965 57.2513C77.9602 57.7503 77.7578 58.064 78.0722 58.064C78.1515 58.064 78.4524 57.7632 78.7407 57.3955ZM67.232 56.918C67.6953 56.6186 67.6405 56.5466 66.9455 56.5418C66.4728 56.5386 66.086 56.7079 66.086 56.918C66.086 57.3966 66.4914 57.3966 67.232 56.918ZM33.234 56.154C33.234 55.9439 33.0519 55.772 32.8294 55.772C32.6069 55.772 32.5311 55.9439 32.661 56.154C32.7908 56.3641 32.9729 56.536 33.0655 56.536C33.1582 56.536 33.234 56.3641 33.234 56.154ZM65.4175 56.283C65.1549 56.177 64.7251 56.177 64.4625 56.283C64.1999 56.389 64.4147 56.4757 64.94 56.4757C65.4652 56.4757 65.6801 56.389 65.4175 56.283ZM73.0022 54.4151C76.6375 52.6537 76.8467 52.449 73.726 53.7072C71.9777 54.4121 68.7609 56.141 69.1822 56.1494C69.3093 56.1521 71.0283 55.3715 73.0022 54.4151ZM66.3645 55.1592C66.2376 55.0323 65.9081 55.0187 65.6324 55.1291C65.3276 55.251 65.4181 55.3415 65.8632 55.3599C66.2658 55.3764 66.4915 55.2861 66.3645 55.1592ZM18.4184 52.2636C18.1993 52.0445 18.0949 52.466 18.1461 53.3626C18.2563 55.2929 18.4231 55.4868 18.616 53.9089C18.7027 53.1994 18.6137 52.459 18.4184 52.2636ZM86.6402 54.0429C86.5226 53.9253 86.309 54.1373 86.1656 54.514C85.9583 55.0584 86.0021 55.1023 86.3794 54.7279C86.6405 54.4687 86.7578 54.1605 86.6402 54.0429ZM94.6149 54.1724C94.493 53.8676 94.4025 53.9582 94.3842 54.4032C94.3676 54.8059 94.4578 55.0315 94.5848 54.9045C94.7117 54.7776 94.7253 54.4481 94.6149 54.1724ZM23.8382 51.9822C25.3861 51.071 25.5409 50.8897 24.7298 50.9383C24.1899 50.9706 23.8211 51.07 23.9102 51.1592C24.2059 51.4554 21.9781 52.7114 21.201 52.6866L20.437 52.6623L21.201 52.334C21.7668 52.0908 21.8075 51.9987 21.3576 51.9789C20.6825 51.949 19.6139 49.2278 20.0195 48.5714C20.1575 48.3481 20.5658 48.276 20.9267 48.4112C21.5002 48.626 21.5168 48.5757 21.0587 48.0125C20.7704 47.658 20.6844 47.3418 20.8677 47.3098C21.051 47.2778 21.3729 47.2117 21.583 47.1629C21.7931 47.1141 22.1799 47.0543 22.4425 47.0301C22.7051 47.0058 22.92 46.7166 22.92 46.3873C22.92 45.9711 23.1432 45.8594 23.6518 46.0208C24.0544 46.1486 24.493 46.0762 24.6267 45.8599C24.7712 45.626 24.6294 45.5589 24.2768 45.6942C23.9508 45.8194 23.684 45.727 23.684 45.4891C23.684 44.9546 21.5751 45.9693 20.3415 47.0973C19.3284 48.0236 19.212 49.8024 20.0355 51.7733C20.7157 53.4011 21.3671 53.4369 23.8382 51.9822ZM78.692 51.952C79.4273 51.5494 79.8571 51.22 79.647 51.22C79.4369 51.22 78.6633 51.5494 77.928 51.952C77.1926 52.3546 76.7629 52.684 76.973 52.684C77.1831 52.684 77.9566 52.3546 78.692 51.952ZM88.242 52.5562C88.242 52.4684 88.3442 52.0816 88.469 51.6967C88.6578 51.1148 88.6267 51.0935 88.2839 51.57C87.9255 52.0683 87.8709 52.0587 87.8658 51.497C87.8628 51.1418 88.0319 50.7448 88.242 50.615C88.8351 50.2485 88.6972 49.2739 88.0855 49.5086C87.7618 49.6329 87.4468 49.3996 87.2958 48.9236C87.0262 48.0743 86.7 47.9429 86.1219 48.4509C85.5071 48.991 82.2749 50.0697 81.7094 49.9235C81.4155 49.8474 81.305 49.8577 81.4639 49.9462C81.6228 50.0348 81.6556 50.2645 81.5368 50.4566C81.2339 50.9468 81.3287 50.9228 84.0169 49.8305C86.2745 48.9132 86.4599 48.8933 87.1265 49.4966C87.6566 49.9763 87.7421 50.3124 87.4657 50.829C86.9217 51.8455 87.0154 52.716 87.669 52.716C87.9841 52.716 88.242 52.6441 88.242 52.5562ZM18.1721 46.8778C17.9199 42.4504 17.9508 42.1271 18.7196 41.1497C19.2619 40.4603 19.3457 40.1863 18.9702 40.3304C17.8975 40.742 17.5379 42.5097 17.7292 46.4307C17.8313 48.522 17.9236 50.5338 17.9344 50.9015C17.9452 51.2692 18.0632 51.57 18.1967 51.57C18.3302 51.57 18.3192 49.4585 18.1721 46.8778ZM27.504 49.8241C27.504 49.7191 27.1602 49.8171 26.74 50.042C26.3198 50.2669 25.976 50.5368 25.976 50.6419C25.976 50.7469 26.3198 50.6489 26.74 50.424C27.1602 50.1991 27.504 49.9292 27.504 49.8241ZM79.838 50.424C79.838 50.2139 79.6661 50.042 79.456 50.042C79.2459 50.042 79.074 50.2139 79.074 50.424C79.074 50.6341 79.2459 50.806 79.456 50.806C79.6661 50.806 79.838 50.6341 79.838 50.424ZM25.594 50.042C25.594 49.8319 25.4221 49.66 25.212 49.66C25.0019 49.66 24.83 49.8319 24.83 50.042C24.83 50.2521 25.0019 50.424 25.212 50.424C25.4221 50.424 25.594 50.2521 25.594 50.042ZM31.706 47.2901C33.2817 46.2825 34.4326 45.4581 34.2634 45.4581C33.8818 45.458 27.886 49.2847 27.886 49.5283C27.886 49.732 27.9001 49.7237 31.706 47.2901ZM65.9649 47.6784C65.843 47.3736 65.7525 47.4642 65.7342 47.9092C65.7176 48.3119 65.8078 48.5375 65.9348 48.4105C66.0617 48.2836 66.0753 47.9541 65.9649 47.6784ZM93.59 47.559C93.59 47.2438 93.4181 46.986 93.208 46.986C92.9979 46.986 92.826 47.2438 92.826 47.559C92.826 47.8741 92.9979 48.132 93.208 48.132C93.4181 48.132 93.59 47.8741 93.59 47.559ZM93.3827 45.8664C93.5036 45.6708 93.4277 45.4028 93.2142 45.2709C93.0007 45.1389 92.826 45.2989 92.826 45.6265C92.826 46.2974 93.0552 46.3962 93.3827 45.8664ZM26.1357 45.2261C26.4681 45.0986 26.74 44.8306 26.74 44.6306C26.74 44.4306 26.5681 44.3732 26.358 44.503C26.1479 44.6328 25.976 44.5864 25.976 44.3998C25.976 43.8907 29.6535 42.2689 30.1343 42.566C30.3948 42.727 30.4659 42.6013 30.3237 42.2308C30.1763 41.8466 30.3123 41.638 30.7101 41.638C31.0477 41.638 31.324 41.7899 31.324 41.9755C31.324 42.1611 31.7967 42.403 32.3745 42.5132L33.425 42.7134L32.279 41.7644L31.133 40.8153L32.3745 41.066C33.5779 41.309 34.1587 40.7746 33.1385 40.363C32.8759 40.257 33.2626 40.1541 33.998 40.1343C34.9189 40.1095 35.1707 39.9942 34.8071 39.764C34.4124 39.514 34.6534 39.2536 35.7621 38.7317C36.5777 38.3478 37.8466 37.6276 38.582 37.1311C39.3173 36.6347 40.8172 35.8169 41.9149 35.3138C44.1476 34.2906 45.6098 33.0247 45.2435 32.432C45.1102 32.2163 45.3176 31.6639 45.7043 31.2044C46.2668 30.5362 46.1934 30.5585 45.338 31.3156C44.735 31.8492 44.3394 32.5334 44.4311 32.8841C44.5461 33.3239 44.0211 33.7869 42.6384 34.4652C41.5629 34.9928 38.3623 36.7684 35.526 38.411C32.6896 40.0537 28.9508 42.1488 27.2175 43.0668C24.3579 44.5813 23.1658 45.3975 24.639 44.8321C24.9541 44.7112 25.212 44.8025 25.212 45.0351C25.212 45.5226 25.3102 45.5429 26.1357 45.2261ZM35.7271 44.7678C35.6095 44.6502 35.3013 44.7675 35.0421 45.0286C34.6677 45.4059 34.7115 45.4497 35.256 45.2424C35.6327 45.099 35.8447 44.8854 35.7271 44.7678ZM20.8463 44.4757C20.5161 44.1456 20.2486 43.6728 20.2518 43.4252C20.2553 43.157 20.4014 43.2022 20.6131 43.5369C20.8085 43.846 21.0953 43.9721 21.2503 43.8171C21.4053 43.6621 21.3286 43.3319 21.08 43.0832C20.462 42.4652 20.5127 42.02 21.201 42.02C21.5161 42.02 21.774 41.8742 21.774 41.696C21.774 41.3994 23.59 40.5118 25.3622 39.9424C25.7599 39.8146 25.9915 39.6162 25.8768 39.5014C25.5069 39.1316 21.6107 40.946 20.7235 41.9012C19.4762 43.2442 19.5837 45.076 20.9099 45.076C21.3438 45.076 21.3316 44.961 20.8463 44.4757ZM69.0547 43.7154C68.9267 43.5873 68.616 43.8841 68.3643 44.3748C67.9269 45.2277 67.9371 45.238 68.5971 44.6076C68.9768 44.2449 69.1828 43.8434 69.0547 43.7154ZM24.294 42.8594C24.0039 42.7959 23.2753 43.207 22.6748 43.773L21.583 44.8021L23.2022 43.8885C24.0927 43.3861 24.584 42.923 24.294 42.8594ZM48.7224 42.9924C49.2381 42.4767 49.66 41.8951 49.66 41.6999C49.66 41.5048 50.0261 41.2494 50.4736 41.1323C51.0523 40.981 51.2148 40.7309 51.0365 40.2661C50.8786 39.8548 51.0726 39.3454 51.5599 38.8915C52.3386 38.1659 52.6497 37.1958 51.9687 37.6167C51.5162 37.8964 47.3385 43.93 47.5973 43.93C47.7004 43.93 48.2067 43.5081 48.7224 42.9924ZM68.6336 42.8795C69.1744 42.3017 69.8726 41.4437 70.1852 40.9728C70.4978 40.5019 70.9047 40.21 71.0894 40.3241C71.2741 40.4383 71.3308 40.2856 71.2154 39.9848C71.0956 39.6726 71.4252 39.1079 71.9838 38.6685C72.5218 38.2453 72.9674 37.6659 72.9741 37.381C72.9808 37.0961 73.5959 36.2613 74.3411 35.526C75.0862 34.7906 75.865 33.8452 76.0717 33.425C76.6357 32.2782 73.6074 35.7064 71.1788 38.964C70.0041 40.5397 68.6033 42.3017 68.066 42.8795C67.5287 43.4573 67.2154 43.93 67.3698 43.93C67.5242 43.93 68.0929 43.4573 68.6336 42.8795ZM39.5471 42.4758C39.4295 42.3582 39.1213 42.4755 38.8621 42.7366C38.4877 43.1139 38.5315 43.1577 39.076 42.9504C39.4527 42.807 39.6647 42.5934 39.5471 42.4758ZM27.2858 41.4974C28.7497 40.1168 29.1176 38.5779 27.9815 38.5878C27.4111 38.5929 27.3971 38.6473 27.886 38.959C28.6823 39.4666 27.9452 40.5837 26.7188 40.7279C24.7149 40.9636 23.302 41.3578 23.302 41.6814C23.302 42.1963 24.1946 42.0879 25.5591 41.4071C26.2348 41.0701 26.9058 40.9217 27.0503 41.0774C27.1948 41.2332 27.1225 41.4292 26.8897 41.5131C26.1029 41.7965 25.0176 42.7596 25.4713 42.7719C25.719 42.7785 26.5355 42.205 27.2858 41.4974ZM41.9882 41.3953C42.5124 40.9366 41.269 41.3626 40.6605 41.8501C39.9613 42.4102 39.9735 42.4182 40.874 41.9893C41.3992 41.7392 41.9006 41.4718 41.9882 41.3953ZM44.312 40.492C44.6271 40.2883 44.7131 40.1217 44.503 40.1217C44.2929 40.1217 43.8631 40.2883 43.548 40.492C43.2328 40.6957 43.1469 40.8623 43.357 40.8623C43.5671 40.8623 43.9968 40.6957 44.312 40.492ZM20.8291 39.4198C20.7115 39.3022 20.4033 39.4195 20.1441 39.6806C19.7697 40.0579 19.8135 40.1017 20.358 39.8944C20.7347 39.751 20.9467 39.5374 20.8291 39.4198ZM46.222 39.728C46.7158 39.4089 46.7057 39.3569 46.149 39.3518C45.7938 39.3488 45.3968 39.5179 45.267 39.728C44.9682 40.2115 45.4739 40.2115 46.222 39.728ZM52.716 39.728C52.716 39.5179 52.5441 39.346 52.334 39.346C52.1239 39.346 51.952 39.5179 51.952 39.728C51.952 39.9381 52.1239 40.11 52.334 40.11C52.5441 40.11 52.716 39.9381 52.716 39.728ZM22.538 38.964C22.8531 38.7603 22.9391 38.5937 22.729 38.5937C22.5189 38.5937 22.0891 38.7603 21.774 38.964C21.4588 39.1677 21.3729 39.3343 21.583 39.3343C21.7931 39.3343 22.2228 39.1677 22.538 38.964ZM38.2 38.964C38.2 38.4854 37.7946 38.4854 37.054 38.964C36.5906 39.2634 36.6455 39.3354 37.3405 39.3402C37.8132 39.3434 38.2 39.1741 38.2 38.964ZM47.9511 38.6558C47.8335 38.5382 47.5253 38.6555 47.2661 38.9166C46.8917 39.2939 46.9355 39.3377 47.48 39.1304C47.8567 38.987 48.0687 38.7734 47.9511 38.6558ZM53.5274 38.0981C53.1501 37.7237 53.1062 37.7676 53.3136 38.312C53.457 38.6887 53.6706 38.9007 53.7882 38.7831C53.9058 38.6655 53.7885 38.3573 53.5274 38.0981ZM24.639 38.2C25.1427 37.9835 25.2078 37.8645 24.83 37.8507C24.5148 37.8392 23.9991 37.9963 23.684 38.2C22.9857 38.6513 23.5888 38.6513 24.639 38.2ZM50.806 37.3171C50.806 37.2624 50.4704 37.2177 50.0602 37.2177C49.65 37.2177 49.3895 37.2928 49.4812 37.3846C49.573 37.4764 49.35 37.7916 48.9856 38.0852C48.5149 38.4644 48.6826 38.4448 49.5645 38.0177C50.2473 37.687 50.806 37.3717 50.806 37.3171ZM26.7922 37.1351C26.5166 37.0432 26.1095 37.1497 25.8875 37.3716C25.6041 37.6551 25.7532 37.7048 26.3886 37.5387C26.9052 37.4036 27.0783 37.2304 26.7922 37.1351ZM48.4105 37.5872C48.2836 37.4603 47.9541 37.4467 47.6784 37.5571C47.3736 37.679 47.4641 37.7695 47.9092 37.7879C48.3118 37.8044 48.5375 37.7141 48.4105 37.5872ZM29.9971 35.5998C29.8795 35.4822 29.5713 35.5995 29.3121 35.8606C28.9377 36.2379 28.9815 36.2817 29.526 36.0744C29.9027 35.931 30.1147 35.7174 29.9971 35.5998ZM44.121 35.908C44.2508 35.6979 44.0992 35.526 43.7841 35.526C43.4689 35.526 43.1048 35.6979 42.975 35.908C42.8451 36.1181 42.9968 36.29 43.3119 36.29C43.6271 36.29 43.9911 36.1181 44.121 35.908ZM28.5465 35.2952C28.4196 35.1683 28.0901 35.1547 27.8144 35.2651C27.5096 35.387 27.6001 35.4775 28.0452 35.4959C28.4478 35.5124 28.6735 35.4221 28.5465 35.2952ZM34.38 33.4121C34.38 33.3071 33.5205 33.6567 32.47 34.189C31.4195 34.7213 30.56 35.2428 30.56 35.3479C30.56 35.4529 31.4195 35.1033 32.47 34.571C33.5205 34.0387 34.38 33.5172 34.38 33.4121ZM64.558 35.1849C64.558 34.9972 64.3089 34.7481 64.0045 34.6313C63.6345 34.4893 63.5213 34.6025 63.6633 34.9725C63.8952 35.5767 64.558 35.734 64.558 35.1849ZM77.546 33.0021C77.546 32.256 77.2605 32.3399 76.7866 33.2254C76.4568 33.8417 76.4895 33.9397 76.9642 33.7575C77.2842 33.6347 77.546 33.2948 77.546 33.0021ZM85.568 33.8295C85.568 33.7369 85.3961 33.5548 85.186 33.425C84.9759 33.2952 84.804 33.371 84.804 33.5935C84.804 33.816 84.9759 33.998 85.186 33.998C85.3961 33.998 85.568 33.9222 85.568 33.8295ZM39.155 30.765C39.5752 30.424 38.9596 30.6681 37.7871 31.3075C35.5473 32.5289 34.9438 32.7209 35.335 32.088C35.4648 31.8779 35.3992 31.706 35.1891 31.706C34.979 31.706 34.7008 31.8779 34.571 32.088C34.4411 32.2981 34.5271 32.47 34.762 32.47C34.9969 32.47 35.0756 32.6536 34.9369 32.878C34.6348 33.3669 38.0681 31.647 39.155 30.765ZM21.2167 30.5346C21.6278 29.8694 21.1596 29.7285 20.6357 30.3598C20.3344 30.7228 20.3054 30.942 20.5587 30.942C20.7821 30.942 21.0782 30.7587 21.2167 30.5346ZM47.9938 29.605C47.8729 29.2898 47.9477 29.032 48.1601 29.032C48.3725 29.032 48.7539 28.8542 49.0076 28.637C49.2614 28.4197 49.8128 27.9895 50.233 27.681L50.997 27.1201L50.233 27.3742C48.7837 27.8562 47.3973 29.0459 47.6171 29.6187C47.7352 29.9263 47.9177 30.178 48.0227 30.178C48.1278 30.178 48.1148 29.9201 47.9938 29.605ZM46.7132 26.9341C47.5085 26.5622 48.0839 26.1826 47.9918 26.0905C47.8229 25.9216 47.4922 26.0625 45.0977 27.3236C44.1724 27.811 43.7383 27.8838 43.6334 27.5692C43.5514 27.3232 43.1978 27.1275 42.8477 27.1341C42.299 27.1446 42.3135 27.2238 42.9525 27.7071C43.4854 28.1102 43.5392 28.2704 43.1435 28.2765C42.8407 28.2812 42.1632 28.634 41.638 29.0606C40.9343 29.6321 41.2862 29.5433 42.975 28.7232C44.2356 28.1111 45.9178 27.3059 46.7132 26.9341ZM54.4681 25.5761C55.6514 24.9359 56.814 24.477 57.0518 24.5563C57.5314 24.7161 58.65 23.7606 58.3428 23.4535C58.1676 23.2783 53.7441 25.4084 52.334 26.3469C51.1211 27.1542 52.415 26.6869 54.4681 25.5761ZM46.795 25.594C46.6651 25.3839 46.2682 25.2146 45.9129 25.2178C45.3563 25.2229 45.3462 25.2749 45.84 25.594C46.5881 26.0775 47.0938 26.0775 46.795 25.594ZM49.66 25.3621C49.66 25.2796 49.4021 25.212 49.087 25.212C48.7718 25.212 48.514 25.3785 48.514 25.582C48.514 25.7855 48.7718 25.8531 49.087 25.7321C49.4021 25.6112 49.66 25.4447 49.66 25.3621ZM51.0071 24.5218C50.8895 24.4042 50.5813 24.5215 50.3221 24.7826C49.9477 25.1599 49.9915 25.2037 50.536 24.9964C50.9127 24.853 51.1247 24.6394 51.0071 24.5218ZM59.4885 24.9812C59.3616 24.8543 59.0321 24.8407 58.7564 24.9511C58.4516 25.073 58.5421 25.1635 58.9872 25.1819C59.3898 25.1984 59.6155 25.1081 59.4885 24.9812ZM49.66 24.066C49.66 23.8559 49.4881 23.684 49.278 23.684C49.0679 23.684 48.896 23.8559 48.896 24.066C48.896 24.2761 49.0679 24.448 49.278 24.448C49.4881 24.448 49.66 24.2761 49.66 24.066ZM53.098 23.875C53.6232 23.5747 53.8811 23.3291 53.671 23.3291C53.4609 23.3291 52.8592 23.5747 52.334 23.875C51.8087 24.1753 51.5509 24.4209 51.761 24.4209C51.9711 24.4209 52.5727 24.1753 53.098 23.875ZM51.57 23.3245C51.57 22.8738 50.825 22.3917 50.5513 22.6653C50.2777 22.939 50.7598 23.684 51.2105 23.684C51.4082 23.684 51.57 23.5222 51.57 23.3245ZM61.248 23.111C61.2133 22.9009 61.3633 22.5141 61.5813 22.2515C62.1126 21.6112 61.7883 21.6498 60.1759 22.4187C59.2344 22.8677 58.9695 23.1583 59.3035 23.3759C59.9353 23.7877 61.3283 23.5979 61.248 23.111ZM59.592 23.1281C59.592 22.8334 60.7289 22.5963 60.8903 22.8574C60.9875 23.0147 60.7352 23.1684 60.3295 23.199C59.9239 23.2295 59.592 23.1978 59.592 23.1281ZM26.74 21.9875C26.74 21.8949 26.5681 21.7128 26.358 21.583C26.1479 21.4532 25.976 21.529 25.976 21.7515C25.976 21.974 26.1479 22.156 26.358 22.156C26.5681 22.156 26.74 22.0802 26.74 21.9875ZM59.5113 21.01C59.6257 21.01 59.6311 20.9218 59.5233 20.814C59.3055 20.5962 56.536 21.6728 56.536 21.9753C56.536 22.0803 57.1586 21.9061 57.9196 21.5881C58.6807 21.2702 59.3969 21.01 59.5113 21.01ZM63.794 22.0095C63.794 21.929 63.45 21.7731 63.0295 21.6632C62.609 21.5532 62.3613 21.6191 62.479 21.8096C62.6846 22.1423 63.794 22.311 63.794 22.0095ZM64.5687 21.4067C64.0983 21.1092 64.1295 21.0105 64.7597 20.8026C65.9736 20.4022 67.9786 19.3373 67.8191 19.1777C67.7384 19.097 66.6062 19.5094 65.3032 20.0942C63.4103 20.9437 63.0781 21.2139 63.6505 21.4388C64.6794 21.843 65.2283 21.8238 64.5687 21.4067ZM67.996 21.01C67.996 20.5314 67.5906 20.5314 66.85 21.01C66.3866 21.3094 66.4415 21.3814 67.1365 21.3862C67.6092 21.3894 67.996 21.2201 67.996 21.01ZM62.4877 19.1944C62.313 19.0196 59.974 20.1792 59.974 20.4406C59.974 20.5369 60.5735 20.3298 61.3062 19.9804C62.0389 19.6309 62.5706 19.2773 62.4877 19.1944ZM80.6801 17.4765C81.5167 16.4785 82.1202 15.662 82.0212 15.662C81.9223 15.662 80.8378 16.8223 79.6112 18.2405C78.3847 19.6587 77.7812 20.4752 78.2701 20.055C78.759 19.6348 79.8435 18.4745 80.6801 17.4765ZM69.142 19.864C69.142 19.6539 69.0662 19.482 68.9735 19.482C68.8809 19.482 68.6988 19.6539 68.569 19.864C68.4391 20.0741 68.5149 20.246 68.7374 20.246C68.9599 20.246 69.142 20.0741 69.142 19.864ZM64.94 18.336C65.6753 17.9334 66.1051 17.604 65.895 17.604C65.6849 17.604 64.9113 17.9334 64.176 18.336C63.4406 18.7386 63.0109 19.068 63.221 19.068C63.4311 19.068 64.2046 18.7386 64.94 18.336ZM71.052 18.0797C71.4915 17.6628 71.269 17.6832 70.097 18.1672C68.1538 18.9698 67.8734 19.2363 69.3338 18.8926C69.9636 18.7444 70.7368 18.3786 71.052 18.0797ZM74.9675 18.465C74.1318 18.1278 74.4417 17.6826 76.3768 16.4409C77.4145 15.775 78.8327 14.7046 79.5283 14.0621C80.742 12.9412 80.716 12.9477 78.883 14.2234C77.8325 14.9545 76.2166 16.093 75.2922 16.7533C74.3677 17.4137 73.1644 17.9766 72.6182 18.0043C71.7867 18.0464 71.8427 18.1004 72.962 18.336C74.5703 18.6745 75.6605 18.7447 74.9675 18.465ZM67.3724 17.2719C67.4744 17.1068 67.2393 16.9717 66.85 16.9717C66.4606 16.9717 66.2256 17.1068 66.3276 17.2719C66.4296 17.4369 66.6647 17.572 66.85 17.572C67.0353 17.572 67.2704 17.4369 67.3724 17.2719ZM79.456 17.19C79.456 16.9799 79.2841 16.808 79.074 16.808C78.8639 16.808 78.692 16.9799 78.692 17.19C78.692 17.4001 78.8639 17.572 79.074 17.572C79.2841 17.572 79.456 17.4001 79.456 17.19ZM65.2185 16.9592C65.0916 16.8323 64.7621 16.8187 64.4864 16.9291C64.1816 17.051 64.2721 17.1415 64.7172 17.1599C65.1198 17.1764 65.3455 17.0861 65.2185 16.9592ZM85.95 12.2978C85.95 11.9882 83.364 14.3581 82.9045 15.089C82.6402 15.5092 83.2174 15.0867 84.187 14.15C85.1566 13.2133 85.95 12.3798 85.95 12.2978ZM84.04 10.8601C84.04 10.7551 83.6962 10.8531 83.276 11.078C82.8558 11.3029 82.512 11.5728 82.512 11.6779C82.512 11.7829 82.8558 11.6849 83.276 11.46C83.6962 11.2351 84.04 10.9652 84.04 10.8601ZM89.579 8.022C89.9593 7.6018 90.1845 7.258 90.0794 7.258C89.9744 7.258 89.5773 7.6018 89.197 8.022C88.8167 8.4422 88.5915 8.786 88.6966 8.786C88.8016 8.786 89.1987 8.4422 89.579 8.022ZM91.68 4.966C91.9049 4.5458 92.0029 4.202 91.8979 4.202C91.7928 4.202 91.5229 4.5458 91.298 4.966C91.0731 5.3862 90.9751 5.73 91.0801 5.73C91.1852 5.73 91.4551 5.3862 91.68 4.966Z" fill="#FAD035"/>
<path d="M40.7884 105.058C31.8517 103.173 23.0243 98.689 16.6022 92.7712L15.0595 91.3495L9.72622 94.3791C6.79294 96.0453 3.82723 97.5965 3.13574 97.8261C0.797865 98.6025 0.0807093 97.5325 1.55306 95.4648C1.98705 94.8553 4.30769 92.7093 6.71006 90.6958C10.9836 87.1141 11.4391 86.6003 10.7292 86.1615C10.0993 85.7722 6.99493 80.8216 5.43631 77.7209C0.588626 68.0768 -0.994601 58.1753 0.597048 47.4561C2.94524 31.6418 13.4481 17.6559 28.841 9.84564C42.4057 2.96296 58.0218 2.91676 71.5407 9.71929L76.4223 12.1757L77.8437 11.5826C80.752 10.3691 90.2237 3.69844 92.611 1.18245C93.235 0.524734 94.125 0 94.6165 0C96.2548 0 95.7404 1.83251 92.9422 5.96424C89.6705 10.7949 85.4467 16.4981 84.6525 17.1572C84.1033 17.613 84.3066 17.9433 86.5247 20.1988C93.1926 26.979 97.8139 35.7022 99.9532 45.5466C100.479 47.9664 100.639 50.4022 100.639 55.963C100.638 62.5509 100.544 63.5929 99.6232 67.2488C95.041 85.4407 84.0089 97.6811 67.0961 103.338C64.9648 104.051 61.5879 104.899 59.592 105.223C54.4778 106.052 45.1125 105.969 40.7884 105.058ZM56.8266 100.64C64.724 99.3875 70.8777 97.1979 76.4 93.6754C83.7983 88.9561 90.8211 79.7685 93.7655 70.9568C94.8972 67.5702 95.8647 61.4007 95.875 57.5064C95.8854 53.5559 94.8195 45.3648 93.7765 41.3796C92.1454 35.1476 88.7419 28.9998 84.2213 24.1202L81.9712 21.6913L81.0975 22.7832C80.6169 23.3837 80.2229 24.3999 80.2219 25.0415C80.2192 26.7559 78.6704 29.5699 75.7426 33.1805C71.763 38.0881 65.072 46.8026 61.0368 52.334C59.7339 54.1198 57.968 56.5264 57.1125 57.682C56.257 58.8375 55.1607 60.429 54.6764 61.2186L53.7958 62.6542L54.7709 62.2835C55.3072 62.0796 56.4452 61.5561 57.2998 61.1201C58.1544 60.6841 60.0942 59.8342 61.6103 59.2314C66.9028 57.1272 70.893 55.4475 75.254 53.4881C77.6701 52.4025 81.1769 50.9218 83.0468 50.1978C86.1641 48.9907 86.5019 48.9314 87.1119 49.4834C87.8041 50.1098 87.7814 50.2868 86.5779 53.6537C85.9883 55.3033 77.7252 65.4674 74.5074 68.5011C68.907 73.7812 62.5939 77.546 59.3405 77.546C58.1997 77.546 55.7567 78.3473 51.188 80.22C47.6 81.6907 44.5589 82.894 44.4299 82.894C44.3008 82.894 42.2877 83.6554 39.9561 84.586C37.6246 85.5166 32.8806 87.2364 29.414 88.4078C25.9473 89.5792 22.8753 90.6253 22.5872 90.7326C21.9408 90.9732 23.0746 92.1508 25.594 93.8555C34.1916 99.6729 46.3167 102.307 56.8266 100.64ZM9.17106 92.6793C11.3754 91.443 14.6401 89.6133 16.426 88.6132C21.7178 85.6496 25.8193 83.6579 28.5589 82.7214C36.1528 80.1256 38.4658 79.2057 45.649 75.9248C47.9601 74.8692 52.4295 72.9831 55.581 71.7333C62.1463 69.1299 67.0956 66.8091 69.4047 65.2512C71.1856 64.0498 72.0172 64.3652 70.3394 65.6056C69.7538 66.0385 67.8519 67.1081 66.1128 67.9825C62.8118 69.6422 62.2032 70.2986 64.8221 69.3746C67.6982 68.3599 69.59 67.1826 71.5623 65.1803C74.6668 62.0286 77.67 58.7333 78.861 57.1717L79.9544 55.7382L77.1204 57.0297C75.5617 57.7401 72.7421 58.8117 70.8547 59.4111C67.2122 60.568 56.7914 65.7093 48.9345 70.2259C44.2613 72.9123 42.612 73.534 40.8285 73.2814C39.4527 73.0866 39.7496 72.2674 42.4801 68.7244C43.8413 66.9581 45.9214 64.0518 47.1025 62.266C60.9057 41.3945 73.5073 24.9012 83.2508 14.9542C87.541 10.5744 90.1136 7.51163 91.48 5.157L92.145 4.011L91.3738 4.8705C90.9496 5.34322 90.4767 5.73 90.3229 5.73C90.1692 5.73 89.1653 6.47685 88.0922 7.38966C87.019 8.30247 83.31 11.0576 79.8499 13.5122C74.4653 17.332 73.3645 17.9659 72.2099 17.9112C70.6806 17.8388 69.5892 18.237 62.0189 21.6289C52.9886 25.675 48.518 28.1428 46.3001 30.306C45.0792 31.4968 44.34 32.5222 44.4355 32.8925C44.546 33.3209 44.0038 33.7954 42.6384 34.4652C41.5629 34.9928 38.3623 36.7643 35.526 38.402C32.6896 40.0397 28.3062 42.49 25.785 43.8471C20.2198 46.8429 19.482 47.4655 19.482 49.1659C19.482 50.933 20.4447 53.098 21.2305 53.098C21.9697 53.098 24.4326 51.7621 30.369 48.1411C38.1466 43.397 39.9705 42.3959 44.2775 40.5071C46.6373 39.4722 49.1674 38.2719 49.8999 37.8398C50.6324 37.4076 51.5097 37.054 51.8494 37.054C52.371 37.054 52.3461 37.1878 51.6895 37.9135C50.3225 39.4243 39.3574 56.2317 39.3375 56.8467C39.3328 56.991 38.9808 57.5387 38.5551 58.064C38.1295 58.5892 36.5913 60.738 35.1369 62.839C30.7114 69.2321 30.097 70.0769 26.931 74.1228C22.0189 80.4 21.5106 80.9941 17.8293 84.7582C14.8193 87.8359 10.9494 90.916 10.0926 90.916C9.75952 90.916 4.58399 94.7484 4.58399 94.995C4.58399 95.2494 4.62679 95.2278 9.17106 92.6793ZM15.4987 81.0795C16.089 80.2916 17.7946 78.2718 19.2889 76.591C20.7832 74.9102 23.1999 72.0175 24.6594 70.1628C26.1189 68.3081 27.9647 65.9874 28.7613 65.0058C29.5578 64.0242 30.4743 62.7297 30.7979 62.1293C31.1215 61.5289 32.1641 59.9818 33.1149 58.6913C35.0112 56.1175 36.8656 52.716 36.3724 52.716C36.2005 52.716 34.0919 53.8587 31.6865 55.2553C25.1596 59.0449 22.2628 60.4197 21.0897 60.2844C20.151 60.1761 19.993 59.9168 19.3866 57.491C19.019 56.0203 18.527 52.0044 18.2934 48.5668C17.7571 40.6749 17.5544 41.0303 24.1005 38.3863C26.7077 37.3332 31.1616 35.1991 33.998 33.6439C44.4195 27.9294 46.9418 26.6892 68.6645 16.5984C70.1877 15.8908 71.434 15.1541 71.434 14.9613C71.434 14.2283 65.9777 11.787 62.313 10.8803C54.8163 9.02543 45.7314 9.02568 38.6085 10.8811C31.5157 12.7285 22.5565 18.1664 17.286 23.8231C8.89722 32.8266 4.8768 42.7636 4.82341 54.6262C4.79999 59.8285 5.35568 63.1871 7.31986 69.7152C8.81461 74.683 12.9676 82.5122 14.1081 82.5122C14.2826 82.5122 14.9083 81.8674 15.4987 81.0795ZM23.9693 43.5236C27.1844 41.8383 28.65 40.5106 28.65 39.2833C28.65 38.357 28.0138 38.4541 24.066 39.9833C21.3483 41.0361 19.864 42.3477 19.864 43.6966C19.864 45.4912 20.2462 45.4751 23.9693 43.5236Z" fill="#8A7437"/>
<path d="M46.222 105.545C35.9344 104.736 26.0955 100.488 17.5417 93.1609C15.3683 91.2993 14.4387 91.1003 13.0427 92.1978C12.4042 92.6997 12.0993 92.8665 6.82995 95.5955C4.49731 96.8036 2.26416 97.792 1.86739 97.792C-0.241704 97.792 2.26095 94.5604 7.78585 90.1497C11.6523 87.063 11.9643 86.6888 11.1112 86.1615C10.4486 85.752 7.33671 80.7435 5.62762 77.3358C3.7086 73.5096 1.73559 67.6975 0.921964 63.4739C-0.219265 57.5496 0.425633 47.2172 2.32198 41.043C5.57283 30.4588 12.6843 20.6428 21.4791 14.6003C27.7753 10.2743 32.9302 7.89278 39.6233 6.21759C43.2722 5.30434 44.4755 5.18619 50.233 5.17593C56.9463 5.16398 58.4192 5.36542 64.558 7.13518C67.3399 7.93719 69.9617 9.10606 75.3974 11.9677C76.2671 12.4256 76.7046 12.4557 77.4984 12.1123C80.5562 10.7898 88.9283 4.93989 92.722 1.47499C93.6102 0.663747 94.4943 0 94.6866 0C95.3802 0 95.4821 1.21853 94.8851 2.37307C93.8844 4.30821 88.006 12.6569 86.2474 14.6406C83.5708 17.6598 83.5688 17.6071 86.4665 20.5433C92.8758 27.0377 97.5065 35.7481 99.542 45.138C100.356 48.8952 100.681 58.543 100.131 62.6594C98.2395 76.8234 90.1428 90.0894 78.883 97.4732C75.2511 99.8549 73.91 100.544 70.0509 102.012C64.7587 104.024 60.8172 104.94 55.39 105.42C51.0881 105.799 49.6954 105.819 46.222 105.545ZM56.918 100.79C64.8875 99.5275 71.6172 97.0973 76.6967 93.6479C80.0943 91.3407 85.0749 86.4662 87.554 83.022C93.4715 74.8009 95.8803 67.4282 95.8815 57.5343C95.8834 42.4699 92.4954 32.4779 84.5191 24.0227L81.9981 21.3503L81.0548 22.2935C80.3957 22.9526 80.0569 23.7932 79.9302 25.0839C79.6831 27.6001 78.8345 29.124 75.1551 33.6593C69.9116 40.1224 65.0441 46.502 60.165 53.3059C58.6943 55.3567 57.0453 57.5671 56.5006 58.2179C55.9558 58.8686 55.0345 60.2218 54.4533 61.2249L53.3964 63.0488L56.3987 61.6707C58.0499 60.9127 60.0886 60.0301 60.929 59.7095C61.7694 59.3888 62.9727 58.9012 63.603 58.626C64.2333 58.3508 66.0382 57.6083 67.614 56.976C69.1897 56.3437 71.3806 55.3844 72.4826 54.8442C73.5846 54.304 74.5726 53.862 74.6781 53.862C74.7836 53.862 75.9448 53.3598 77.2585 52.7459C81.1312 50.9363 85.8998 49.2116 86.6189 49.3604C87.1232 49.4647 87.2611 49.8149 87.1815 50.7883C86.9985 53.0247 85.7979 55.0449 81.3815 60.547C73.3089 70.6041 64.84 77.0036 59.1286 77.3622C58.0178 77.4319 56.1635 77.9093 55.008 78.4231C49.2112 81.0003 37.2086 85.5804 28.9468 88.368L21.7947 90.7811L23.2168 92.1203C25.6988 94.4573 30.7952 97.3292 34.8798 98.6923C42.6111 101.273 49.6467 101.942 56.918 100.79ZM7.06698 94.0402C7.90738 93.5089 10.228 92.1869 12.224 91.1026C14.2199 90.0183 17.7439 88.1034 20.055 86.8473C24.4241 84.4728 25.2435 84.1228 33.383 81.1558C36.0913 80.1685 40.045 78.589 42.169 77.6456C51.5633 73.4732 53.1298 72.8065 56.918 71.3684C60.9656 69.8319 67.4399 66.8068 69.906 65.2998L71.243 64.4828L70.288 65.3281C69.7627 65.793 67.8289 66.929 65.9905 67.8525C64.1521 68.776 62.648 69.635 62.648 69.7614C62.648 70.2662 65.6421 69.3909 67.7541 68.2688C69.3735 67.4084 71.209 65.7906 74.3696 62.4383C78.0939 58.4882 80.5976 55.39 80.0656 55.39C79.9869 55.39 78.5713 56.0473 76.9197 56.8506C75.2682 57.6539 72.3699 58.8045 70.479 59.4074C66.942 60.5353 55.6976 66.0591 49.4308 69.7472C44.8233 72.4589 42.8725 73.3253 41.3515 73.3356C39.5274 73.3479 39.7405 72.6202 42.7291 68.6288C44.1696 66.705 46.3204 63.6698 47.5085 61.884C51.1934 56.3456 59.3479 44.5294 60.4402 43.1455C61.0117 42.4214 62.3939 40.5364 63.5118 38.9566C67.8656 32.8035 77.9331 20.6153 82.9342 15.4428C87.6095 10.6073 91.015 6.5404 92.1241 4.46803C92.4508 3.85741 92.4077 3.81534 91.8044 4.15623C91.4208 4.37296 89.6458 5.78142 87.86 7.28614C86.0741 8.79086 84.1832 10.2979 83.658 10.6351C83.1327 10.9723 80.8638 12.5743 78.616 14.1952C73.6222 17.7961 73.1141 18.075 72.0394 17.8053C70.7263 17.4757 61.6854 21.2713 52.143 26.1581C47.6595 28.4543 44.312 31.2422 44.312 32.6802C44.312 33.2801 43.7885 33.7485 42.3065 34.4746C41.2035 35.0151 38.1522 36.6998 35.526 38.2186C32.8997 39.7373 28.6882 42.0972 26.167 43.4629C18.8657 47.4177 18.7425 47.5594 19.6162 50.9999C20.2905 53.6554 21.1039 53.6781 25.6498 51.1683C27.615 50.0833 29.7387 48.8166 30.369 48.3533C32.5599 46.7429 41.1281 42.0031 44.1592 40.7248C45.8365 40.0174 48.2143 38.9021 49.4432 38.2463C50.6721 37.5905 51.7373 37.054 51.8104 37.054C51.8835 37.054 51.0777 38.3003 50.0197 39.8235C48.9617 41.3467 47.2876 43.8597 46.2995 45.4079C45.3114 46.956 43.3298 50.0266 41.896 52.2314C40.4621 54.4362 39.1882 56.5216 39.0651 56.8656C38.9419 57.2096 38.1382 58.4555 37.2791 59.6342C36.4199 60.813 34.6856 63.2805 33.425 65.1176C32.1644 66.9547 29.7556 70.2018 28.072 72.3334C26.3885 74.465 24.2182 77.2404 23.2492 78.501C20.1447 82.5397 13.73 88.7639 11.46 89.9402C9.52357 90.9436 3.81998 95.0104 3.81998 95.3877C3.81998 95.7128 5.57103 94.9861 7.06698 94.0402ZM18.3799 77.9537C26.5845 68.7239 37.0867 54.1511 36.5955 52.6777C36.529 52.4779 33.9834 53.7393 30.9387 55.4807C24.1561 59.3602 22.5865 60.072 21.1723 59.9096C20.1381 59.7909 20.027 59.6045 19.3889 56.918C18.9667 55.1406 18.6157 51.643 18.4643 47.7045L18.2203 41.356L19.9017 40.3883C20.8264 39.8561 22.8722 38.9643 24.448 38.4065C27.1571 37.4475 36.5175 32.7587 38.582 31.3265C39.1072 30.9622 41.17 29.8505 43.166 28.8563C45.1619 27.862 47.5685 26.6544 48.514 26.1728C49.4594 25.6912 54.7883 23.2069 60.356 20.6522C72.3458 15.1506 71.625 15.5214 71.625 14.8564C71.625 13.7759 65.3806 11.1319 60.3497 10.0821C55.9408 9.16216 55.0766 9.10251 48.896 9.29171C43.2915 9.46327 41.6365 9.65615 38.6564 10.4851C32.2839 12.2577 25.1598 16.1543 19.5726 20.9232C17.6119 22.5968 14.9408 25.7452 12.2076 29.6042C10.533 31.9687 7.49165 37.436 7.851 37.436C7.99649 37.436 7.95161 37.6509 7.75127 37.9135C7.12562 38.7337 5.80789 42.8419 5.14757 46.031C4.27971 50.2224 4.23375 59.8143 5.06887 62.457C5.40084 63.5075 6.13225 66.086 6.69423 68.187C7.82221 72.404 9.7976 76.8264 12.2225 80.5631C13.7663 82.9421 13.8267 82.9879 14.4927 82.2821C14.8689 81.8833 16.6182 79.9355 18.3799 77.9537ZM27.8152 40.9978C29.1289 39.636 29.2358 38.8619 28.1395 38.6492C27.1085 38.4493 21.0229 40.9175 20.4181 41.7808C19.7386 42.751 19.689 44.9504 20.3415 45.1812C21.0807 45.4427 26.3989 42.4659 27.8152 40.9978Z" fill="#221C23"/>
</svg>
