<?xml version="1.0" encoding="UTF-8" standalone="no"?>
<!-- Created with Inkscape (http://www.inkscape.org/) -->

<svg
   version="1.1"
   id="svg2"
   width="1024"
   height="1024"
   viewBox="0 0 1024 1024"
   sodipodi:docname="_8d90634a-6132-423f-9ba8-1f97c627409e.jpg"
   inkscape:export-filename="..\Users\Filip\OneDrive\Ãrea de Trabalho\User.svg"
   inkscape:export-xdpi="96"
   inkscape:export-ydpi="96"
   xmlns:inkscape="http://www.inkscape.org/namespaces/inkscape"
   xmlns:sodipodi="http://sodipodi.sourceforge.net/DTD/sodipodi-0.dtd"
   xmlns="http://www.w3.org/2000/svg"
   xmlns:svg="http://www.w3.org/2000/svg">
  <defs
     id="defs6" />
  <sodipodi:namedview
     id="namedview4"
     pagecolor="#ffffff"
     bordercolor="#000000"
     borderopacity="0.25"
     inkscape:showpageshadow="2"
     inkscape:pageopacity="0.0"
     inkscape:pagecheckerboard="0"
     inkscape:deskcolor="#d1d1d1"
     showgrid="false" />
  <g
     inkscape:groupmode="layer"
     inkscape:label="Image"
     id="g8">
    <ellipse
       style="display:inline;fill:#1e1e1e;fill-opacity:1;stroke:none;stroke-width:1.1909"
       id="path6598-0"
       cx="523.18744"
       cy="522.31396"
       rx="412.26114"
       ry="410.51428" />
    <ellipse
       style="display:inline;fill:#ffffff;fill-opacity:1;stroke:none"
       id="path6598"
       cx="531.92175"
       cy="531.04828"
       rx="345.00668"
       ry="345.88013" />
    <g
       id="g4178"
       transform="translate(-1902.8524,-15.830909)"
       style="display:inline">
      <g
         id="g4181">
        <path
           style="fill:#1e1e1e;fill-opacity:1"
           d="m 1897.6615,1026.4113 c 0,-3.025 0.1875,-4.2625 0.4166,-2.75 0.2292,1.5125 0.2292,3.9875 0,5.5 -0.2291,1.5125 -0.4166,0.275 -0.4166,-2.75 z m 507.9724,-127.99874 c -54.2587,-3.78619 -94.7373,-14.25979 -134.772,-34.87146 -35.1773,-18.11086 -65.6633,-40.12412 -91.5017,-66.07126 -31.1031,-31.23418 -55.4385,-66.68116 -73.0396,-106.38997 -7.1043,-16.02761 -17.0118,-45.11606 -21.3449,-62.66853 -3.7126,-15.03889 -8.3534,-45.86638 -9.71,-64.5 -2.681,-36.82546 2.5546,-88.72262 12.207,-121 7.2694,-24.30871 24.3501,-61.76147 38.3091,-84 21.3151,-33.9578 56.6753,-74.27899 82.0801,-93.59579 2.75,-2.09099 9.3359,-7.13103 14.6353,-11.2001 24.4586,-18.78004 60.1175,-37.36659 93.4709,-48.72007 33.7843,-11.5001 70.7887,-18.77515 116.8938,-22.98124 46.543,-4.24605 61.1969,-8.09973 87,-22.87936 l 12,-6.87343 0.2991,3.70342 c 0.4478,5.54496 -2.1688,16.61815 -6.5856,27.86969 l -3.9371,10.02943 2.6118,0.63208 c 4.0876,0.98924 33.4586,11.95006 45.3807,16.93542 39.0184,16.31597 86.7582,48.98987 120.1439,82.22844 16.8153,16.74114 25.3628,26.84944 36.6577,43.35151 27.239,39.79684 42.2781,72.56639 53.0071,115.5 7.7764,31.11879 10.8951,56.92013 10.9121,90.27844 0.023,45.0573 -7.1195,83.49535 -23.4309,126.09842 -11.9725,31.27011 -37.3595,71.91752 -59.9552,95.99476 -32.2772,34.39344 -54.8795,54.63615 -81.1036,72.63665 -5.5,3.77526 -12.025,8.40027 -14.5,10.27779 -6.0802,4.61238 -38.4662,20.60325 -54.5,26.90979 -28.499,11.20948 -58.6746,18.86079 -86.1863,21.8534 -17.2137,1.87243 -48.8843,2.57943 -65.0417,1.45197 z m 14.7519,-16.25122 c 7.5284,-10.19462 36.8957,-40.09786 51.4761,-52.41561 27.513,-23.24342 69.0217,-48.85516 105.5,-65.0958 20.7701,-9.2471 35.6896,-15.10263 49,-19.2312 22.5199,-6.98516 37.6683,-11.00794 41.4984,-11.02029 2.2009,-0.007 6.9266,-0.93338 10.5016,-2.05841 6.0776,-1.91258 18.9685,-4.92869 21.0654,-4.92869 0.514,0 0.9346,0.45 0.9346,1 0,0.55 -0.8739,1 -1.9419,1 -1.0681,0 -7.2556,1.62646 -13.75,3.61436 -6.4945,1.9879 -14.0581,4.15971 -16.8081,4.82624 -6.9422,1.68262 -9.8784,3.40247 -18.5,10.83624 -13.8353,11.92914 -15.503,13.52035 -14.8607,14.17929 0.7533,0.77274 12.4958,-4.00502 25.8607,-10.52214 10.3693,-5.05637 16.8177,-7.44959 17.6987,-6.56856 0.3107,0.31061 -11.982,6.73181 -27.317,14.26932 -20.3454,10.00027 -31.6412,16.24733 -41.7904,23.11187 -19.9111,13.46713 -53.3142,39.08065 -73.0913,56.04646 -6.05,5.18999 -15.0078,12.87222 -19.9063,17.07163 -4.8985,4.19941 -11.2053,9.66029 -14.0151,12.13529 -2.8099,2.475 -7.127,6.19306 -9.5937,8.26235 l -4.4849,3.76235 4.5,-0.57795 c 19.6847,-2.52819 61.9344,-17.75676 91,-32.80029 21.149,-10.94612 51.1698,-31.25755 67.5,-45.66906 29.1174,-25.69637 59.689,-60.3866 80.2619,-91.07492 l 5.0933,-7.59753 -10.1776,-1.31712 c -14.3429,-1.85615 -45.3167,-1.66741 -60.9406,0.37134 -24.3789,3.1812 -48.1194,8.49971 -70.737,15.847 -60.2747,19.58012 -104.5228,48.93797 -168.0581,111.50368 -9.657,9.50958 -17.8751,17.29015 -18.2626,17.29015 -1.6913,0 17.2263,-25.58755 20.3407,-27.5124 2.3244,-1.43654 0.4917,-2.65743 -8.9792,-5.98144 -2.4525,-0.86078 -4.8082,-2.1143 -5.2347,-2.7856 -0.4265,-0.67131 -0.7824,-3.80806 -0.7908,-6.97056 -0.01,-3.1625 -0.3439,-5.75 -0.7456,-5.75 -0.4016,0 -3.2959,1.58359 -6.4316,3.51909 -3.1358,1.9355 -8.6857,4.64235 -12.3331,6.01524 -3.6474,1.37288 -8.8188,3.60449 -11.4921,4.95912 -12.487,6.32764 -46.1682,26.32681 -61.362,36.43545 -9.267,6.16545 -17.4795,11.45182 -18.25,11.74749 -0.7705,0.29567 -1.4009,0.88731 -1.4009,1.31474 0,1.83655 29.4405,11.07604 49,15.37796 16.4244,3.61239 49.9847,8.20738 62.0619,8.49736 5.183,0.12445 5.7255,-0.0879 7.962,-3.11645 z m -129.457,-34.82111 c 15.4022,-11.78707 18.0395,-13.62094 28.9331,-20.11843 15.3445,-9.15226 23.9354,-13.91156 47.5,-26.3145 11.275,-5.93448 20.6597,-10.92107 20.855,-11.08131 0.1953,-0.16024 -1.2938,-1.73898 -3.3089,-3.50832 -5.1412,-4.51403 -7.5461,-9.7092 -7.5461,-16.30139 0,-3.01111 0.41,-6.5531 0.9111,-7.8711 0.8221,-2.16222 0.5534,-2.52146 -2.75,-3.67672 -21.9447,-7.67449 -60.6342,-25.37639 -76.7853,-35.13213 -12.3656,-7.46919 -23.6315,-19.33707 -35.2476,-37.13121 -5.0244,-7.6966 -13.2781,-23.54665 -14.4732,-27.79378 -0.6147,-2.18445 -1.0191,-1.61645 -3.2043,4.5 -1.3755,3.85 -3.7887,9.75443 -5.3629,13.12096 -4.993,10.67851 -20.6113,31.81635 -27.9663,37.84978 -1.9918,1.6339 -3.9521,3.4339 -4.3562,4 -0.9919,1.38963 -0.9999,1.61975 0.8405,-24.32907 1.5685,-22.11499 1.4884,-63.52685 -0.133,-68.81613 -0.6457,-2.10622 -0.7508,-2.07484 -3.3512,1 -1.4765,1.74595 -5.2219,6.54946 -8.3232,10.67446 -6.2777,8.34987 -26.9249,30 -28.6103,30 -1.7907,0 0.7262,-6.44383 18.7051,-47.88878 5.9864,-13.79991 6.8825,-16.56431 5.6729,-17.5 -1.8603,-1.43892 -7.5199,-15.33668 -11.5508,-28.36398 l -3.1723,-10.25276 -3.5542,6.75276 c -6.1616,11.70689 -11.4975,20.57261 -15.7118,26.10549 -2.2423,2.944 -4.752,6.43062 -5.577,7.74805 -0.825,1.31743 -1.95,2.23642 -2.5,2.0422 -1.7385,-0.61391 -0.4994,-9.63269 3.536,-25.73565 3.5194,-14.04408 7.3466,-36.77681 6.3665,-37.81528 -0.2118,-0.22437 -5.0015,4.12961 -10.6438,9.67551 -5.6423,5.5459 -12.7337,12.02347 -15.7587,14.39461 -3.025,2.37113 -6.1672,4.95224 -6.9827,5.73578 -2.6777,2.5728 -12.3753,8.46711 -20.2681,12.31924 -7.7541,3.78441 -10.7492,4.58401 -10.7492,2.86967 0,-0.50223 5.2615,-7.3588 11.6923,-15.23682 6.4307,-7.87802 14.3706,-18.15461 17.6441,-22.83686 3.2736,-4.68225 6.9677,-9.86318 8.2091,-11.51318 1.2414,-1.65 3.6177,-5.32492 5.2806,-8.16649 l 3.0235,-5.1665 -8.1748,-0.54205 c -29.7751,-1.97433 -41.4291,-2.96125 -43.2807,-3.66523 -2.0062,-0.76274 -2.1464,-0.41801 -2.754,6.76918 -1.9479,23.04437 0.7442,57.9412 6.4627,83.77109 5.145,23.24002 10.6154,42.28797 16.4078,57.13252 5.933,15.20489 20.5047,44.80656 28.8299,58.5664 19.8868,32.86886 50.9279,66.92829 84.8788,93.13201 12.3396,9.52391 54.2102,34.66907 57.7294,34.66907 0.3767,0 4.2549,-2.732 8.6182,-6.07111 z m 105.254,-103.62575 c 35.7143,-22.78512 89.6006,-61.59143 117.0382,-84.28536 l 9.7563,-8.06957 2.8338,-12.2241 c 2.0928,-9.02752 2.9563,-15.75435 3.3022,-25.72411 0.2576,-7.425 0.2382,-13.275 -0.043,-13 -0.2813,0.275 -4.086,5.91737 -8.4548,12.53861 -9.6471,14.6206 -12.9772,18.5061 -19.065,22.24496 l -4.6885,2.87942 -0.075,-15.5815 c -0.072,-15.01445 -1.9124,-35.51193 -3.3745,-37.58149 -0.3886,-0.55 -1.539,-3.25 -2.5564,-6 -1.0175,-2.75 -3.828,-9.00475 -6.2457,-13.89945 -5.1772,-10.4814 -7.7131,-16.60707 -10.7462,-25.95788 l -2.2242,-6.85733 -3.3502,4.66506 c -1.8426,2.56578 -6.0677,6.90597 -9.3892,9.64486 -6.2131,5.12337 -20.503,12.95939 -23.4048,12.83428 -0.8988,-0.0388 0.048,-0.68824 2.1032,-1.44329 6.9229,-2.54294 19.1639,-11.74122 29.4823,-22.15404 l 6.2197,-6.27661 -3.2197,-2.41822 c -1.7708,-1.33003 -6.3253,-4.30433 -10.1209,-6.60958 -3.7957,-2.30524 -9.2366,-5.95455 -12.0909,-8.10957 -2.8543,-2.15503 -5.6328,-3.91823 -6.1745,-3.91823 -0.5416,0 -1.9968,1.07723 -3.2337,2.39385 l -2.2489,2.39386 3.4103,4.85614 c 10.2626,14.6134 8.0213,30.34604 -4.953,34.76683 -8.2508,2.81132 -15.4172,1.80854 -23.4411,-3.28008 -4.6221,-2.93126 -9.867,-10.50944 -9.867,-14.25655 0,-1.03073 -0.1658,-1.87405 -0.3684,-1.87405 -0.2027,0 -2.3779,1.9125 -4.834,4.25 -8.2948,7.89448 -16.9286,15.01553 -23.6298,19.48957 -3.6673,2.4485 -7.5208,5.19625 -8.5633,6.10612 -1.7965,1.56786 -1.84,1.54834 -0.8337,-0.37353 0.584,-1.11532 5.9369,-7.15238 11.8955,-13.4157 5.9585,-6.26332 10.1587,-11.11816 9.3337,-10.78854 -5.0577,2.02076 -20.1311,6.58731 -23.5,7.11944 l -4,0.63181 3.5,-1.82126 c 3.0171,-1.57001 16.3393,-10.27584 32,-20.91146 4.8239,-3.2761 15.8267,-9.53841 30.7907,-17.52471 l 9.2906,-4.95847 -4.2906,-2.74069 c -2.3599,-1.50737 -5.8129,-4.17438 -7.6733,-5.92667 l -3.3825,-3.18598 -4.1175,1.95962 c -15.2135,7.24063 -29.0786,12.31696 -40.0259,14.65449 -5.2646,1.12412 -8.3415,2.54003 -12.9308,5.95042 -6.1219,4.54922 -24.4894,12.49518 -28.8354,12.47445 -2.1564,-0.0103 -2.0728,-0.21002 1.1519,-2.75 1.9124,-1.5064 5.9624,-4.93875 9,-7.62745 3.0375,-2.68869 7.0978,-5.83869 9.0228,-7 l 3.5,-2.11146 -6.1158,-0.6747 c -9.956,-1.09836 -29.3906,-11.88072 -40.5405,-22.49194 l -2.6563,-2.52795 -0.3811,6.34729 c -0.5599,9.32353 0.8118,21.61557 2.7407,24.55944 0.916,1.39799 2.8992,3.00748 4.4072,3.57666 2.0799,0.7851 3.1718,2.30034 4.5239,6.2781 0.9802,2.88378 3.4193,7.42346 5.4202,10.08817 3.0753,4.09539 4.5635,5.13005 9.6199,6.68791 3.29,1.01364 7.2774,2.32982 8.861,2.92484 l 2.8792,1.08185 -0.866,8.07516 c -0.4763,4.44135 -0.7671,11.54562 -0.6462,15.78728 0.1791,6.28273 -0.041,7.61191 -1.1889,7.1715 -1.2076,-0.46339 -1.2049,0.13705 0.019,4.20345 1.877,6.23693 6.1545,12.76138 12.3749,18.87535 2.7769,2.72932 5.0488,5.26846 5.0488,5.64253 0,2.32659 -34.6142,-14.33751 -52,-25.03403 -2.475,-1.52273 -6.75,-4.04108 -9.5,-5.59634 -2.75,-1.55525 -5.45,-3.4301 -6,-4.16634 -0.6972,-0.93337 -1.0259,1.05051 -1.0855,6.55334 -0.1073,9.89872 -1.9149,16.48498 -5.5113,20.0814 -3.7086,3.70864 -5.5663,4.06473 -11.4346,2.19186 -11.2847,-3.60158 -19.0155,-16.30565 -15.519,-25.50229 l 0.9496,-2.49767 -9.6996,-0.31743 c -5.3348,-0.17459 -9.8701,-0.22192 -10.0785,-0.10517 -0.2084,0.11675 1.2523,3.64726 3.2461,7.84557 2.874,6.05177 5.3571,9.32278 11.985,15.78773 4.598,4.48493 10.2127,9.27943 12.477,10.65443 4.6132,2.80129 5.213,4 2.0017,4 -3.1376,0 -12.6218,-5.5401 -17.7261,-10.35444 -2.9129,-2.74749 -4.1503,-3.47107 -3.6692,-2.14556 0.3993,1.1 3.6304,10.1 7.1803,20 9.8242,27.39802 10.2466,28.40888 23.3988,56 9.3374,19.58808 19.7931,33.24961 31.3109,40.9111 11.7817,7.837 35.5462,20.39059 55.1744,29.14595 9.35,4.17065 18.35,8.20774 20,8.97131 3.8886,1.79953 6.3967,1.19228 13.3209,-3.22522 z m -79.354,-52.35665 c -0.3217,-0.52057 -0.1661,-0.94649 0.3458,-0.94649 0.5119,0 4.4759,-2.32338 8.809,-5.16306 23.8247,-15.61357 48.7514,-21.99511 85.9346,-22.00034 24.5256,-0.003 39.9674,2.10389 36.9353,5.04054 -0.5727,0.55467 -14.5106,1.13753 -32.9916,1.37965 -27.8871,0.36535 -33.2853,0.69442 -42,2.56023 -12.0591,2.58186 -26.6558,7.45 -39.5,13.17367 -12.9731,5.78109 -16.8311,7.09162 -17.5331,5.9558 z m -50.9669,-76.3866 c 5.7165,-2.77076 16.7641,-4.6573 25.5,-4.35451 8.2982,0.28763 8.405,0.32244 4.5,1.46654 -2.2,0.64455 -8.725,1.68186 -14.5,2.30513 -5.775,0.62327 -12.3,1.33655 -14.5,1.58507 l -4,0.45184 z m 153.5,-54.54967 c -1.0021,-0.64074 0.3258,-0.75513 4,-0.34457 3.025,0.33801 5.6875,0.77652 5.9167,0.97446 0.9793,0.8459 -8.556,0.24023 -9.9167,-0.62989 z m 166.5747,146.01977 c 31.1858,-11.00721 74.9804,-19.1536 118.4253,-22.02873 9.075,-0.60057 19.2,-1.51814 22.5,-2.03905 3.3,-0.52091 9.2625,-0.9505 13.25,-0.95466 4.4995,-0.005 7.25,-0.41541 7.25,-1.08263 0,-0.59129 2.8982,-8.57879 6.4404,-17.75 10.8792,-28.16712 15.6913,-46.67545 20.4556,-78.67492 3.451,-23.17929 3.92,-35.74014 2.203,-59 -2.7211,-36.86214 -8.0745,-62.32005 -20.5543,-97.74609 -9.697,-27.52648 -18.0139,-44.96017 -32.3224,-67.75391 -13.23,-21.07561 -20.9777,-30.59416 -45.8409,-56.31891 l -15.2892,-15.81892 -10.2961,1.51195 c -5.6629,0.83157 -15.9211,2.24992 -22.7961,3.15187 -16.3076,2.13946 -40.9141,6.06273 -49.9611,7.96582 -3.9433,0.8295 -8.7722,1.50819 -10.7308,1.50819 h -3.5612 l 4.8765,3.57186 c 26.8873,19.69375 51.5185,31.54089 81.1714,39.04176 14.5463,3.67958 26.0305,4.36892 41.7043,2.50332 7.786,-0.92676 10.0074,-0.73402 7.9229,0.68743 -20.0111,13.64589 -35.6279,20.00683 -46.5439,18.95794 l -4.9582,-0.47642 2.2901,2.49864 c 1.2595,1.37425 5.0795,3.77898 8.4889,5.34385 9.0256,4.14263 31.5441,11.46473 40.8011,13.26687 18.2995,3.56252 34.4956,7.13717 34.4558,7.60475 -0.055,0.64686 -10.4377,7.2831 -14.8973,9.5218 -10.2058,5.12326 -33.8701,10.4782 -46.3047,10.4782 -5.7208,0 -5.9603,0.10006 -5.3841,2.25 0.3316,1.2375 0.6091,4.6112 0.6166,7.49712 0.012,4.58525 0.4564,5.7371 3.5231,9.13159 10.2304,11.32386 32.4014,22.57628 57.4399,29.15243 l 4.4493,1.16857 -6.9493,2.96528 c -12.6977,5.41814 -19.8342,6.90749 -37.3763,7.80035 -9.0348,0.45985 -17.0223,0.60763 -17.75,0.32839 -1.9959,-0.76593 -1.64,2.57782 1.1534,10.83425 5.5872,16.51454 21.4791,33.13131 41.5236,43.41761 l 5.5,2.82246 -9.5,1.37678 c -20.2112,2.92911 -53.6501,0.042 -72.1224,-6.2271 -4.0577,-1.37708 -7.7151,-2.50692 -8.1276,-2.51076 -1.5929,-0.0148 -0.6353,5.431 1.8116,10.30273 4.3851,8.73052 16.9671,25.02672 25.6991,33.28563 13.988,13.23002 34.1039,25.64437 51.0769,31.52157 4.4348,1.53563 7.4105,2.99822 6.6128,3.25022 -0.7977,0.25199 -7.2854,1.63751 -14.417,3.07892 -22.854,4.61915 -45.0505,5.46843 -64.4106,2.46445 -3.5074,-0.54422 -6.5171,-0.84953 -6.6882,-0.67846 -0.9551,0.95511 4.8565,14.6171 9.8154,23.07432 3.1625,5.3935 5.75,9.94777 5.75,10.1206 0,0.17283 -4.1625,-0.53396 -9.25,-1.57066 -12.7202,-2.59204 -23.8568,-6.42664 -28.5607,-9.83412 l -3.9465,-2.8588 -2.2388,7.54154 c -3.2621,10.98849 -3.0667,15.79096 0.9659,23.73577 1.8422,3.62943 5.3368,8.43084 7.7658,10.6698 2.429,2.23896 4.2518,4.23534 4.0507,4.43641 -0.201,0.20107 -3.3989,-0.26909 -7.1064,-1.04479 -8.3685,-1.75091 -15.2045,-5.41064 -22.851,-12.23353 -3.2475,-2.89771 -6.2251,-5.26857 -6.6168,-5.26857 -0.3917,0 -0.7481,1.4625 -0.7919,3.25 -0.044,1.7875 -0.4519,14.1625 -0.9068,27.5 -0.4549,13.3375 -0.4955,24.25 -0.09,24.25 0.4053,0 4.5234,-1.3365 9.1515,-2.97001 z m -39.1978,-77.32308 c 13.9695,-18.57466 16.9772,-20.94587 28.1231,-22.17166 10.1231,-1.11331 11.0164,-1.44493 12.9904,-4.82214 1.0329,-1.76721 4.8496,-6.81311 8.4816,-11.21311 11.6399,-14.10136 23.7632,-31.09812 22.8399,-32.02141 -0.2865,-0.28649 -4.1976,-1.16732 -8.6914,-1.9574 -16.452,-2.89254 -36.1346,-9.55295 -44.5763,-15.08421 -2.7482,-1.80066 -2.234,-3.20459 -4.6016,12.56302 -3.028,20.16466 -15.4589,65.75549 -21.486,78.8003 -1.9011,4.11475 -3.4566,7.66955 -3.4566,7.89955 0,1.30763 2.8583,-1.9958 10.3769,-11.99294 z m 14.6297,-37.00657 c 0,-0.43981 0.6057,-2.01481 1.3542,-3.5 0.7484,-1.48519 2.1387,-5.92959 3.0896,-9.87645 1.923,-7.98232 3.8981,-10.4402 8.5732,-10.66928 2.5148,-0.12322 3.6956,0.54873 5.8159,3.3098 l 2.6605,3.4644 -3.1544,-2.2144 c -3.8369,-2.69353 -8.9204,-2.92617 -10.1478,-0.46441 -0.4799,0.9625 -1.6489,4.70696 -2.5978,8.32101 -1.4627,5.57117 -5.5729,14.11672 -5.5934,11.62933 z m -329.1247,37.04966 c -3.1584,-5.97921 -19.8819,-24.74422 -19.8819,-22.3089 0,2.18051 5.5311,12.39726 8.3583,15.4389 2.6078,2.80564 11.1742,9.12 12.3726,9.12 0.1867,0 -0.1954,-1.0125 -0.849,-2.25 z m -8.6488,-17.97583 c -1.5003,-1.81752 -12.177,-26.40617 -13.7966,-31.77417 -2.6153,-8.66805 -4.5676,-22.93052 -3.9395,-28.78067 1.7782,-16.56337 11.0011,-42.47569 21.6446,-60.81204 3.2221,-5.55099 5.8584,-11.04627 5.8584,-12.21174 0,-1.16547 3.3927,4.42035 7.5394,12.41292 9.5351,18.37868 15.9894,28.29952 26.6031,40.89153 16.5572,19.64336 49.1183,40.5 63.2281,40.5 h 3.4336 l -1.4134,-4.69638 c -0.7773,-2.583 -1.6925,-7.69971 -2.0336,-11.37045 l -0.6203,-6.67408 -6.8331,-3.3056 c -13.6068,-6.58258 -20.4066,-17.072 -24.2793,-37.45349 -2.8451,-14.97336 -4.9486,-30.9835 -4.5388,-34.546 0.1607,-1.39716 -1.6807,-6.32994 -4.2758,-11.454 -5.0722,-10.01518 -12.1062,-28.11105 -11.5619,-29.7441 0.1934,-0.58018 1.7861,1.1806 3.5394,3.91284 7.1834,11.19441 31.6079,32.48856 51.4178,44.82796 14.0909,8.77707 31.4799,13.356 44.2936,11.66355 l 4.9989,-0.66025 -6.8751,-2.91618 c -9.5274,-4.04116 -20.2756,-11.27743 -25.6226,-17.25042 -9.452,-10.55854 -13.8054,-23.77817 -14.3742,-43.64894 -0.5927,-20.70495 1.264,-30.35398 9.9726,-51.82438 3.3307,-8.21148 4.8066,-13.43881 5.325,-18.86008 0.9468,-9.90007 1.7366,-7.41929 2.8653,9 1.0719,15.59258 1.8231,17.80449 12.5658,37 10.2781,18.36544 17.6533,27.67102 41.0878,51.84263 9.1662,9.45454 27.6555,25.69223 39.5577,34.74049 10.2551,7.79606 35.4517,24.33094 44.8924,29.4599 17.5809,9.55143 20.2506,11.24103 30.7962,19.4903 12.3037,9.62448 11.4056,9.88465 13.2291,-3.83232 0.6434,-4.83944 1.6619,-9.87901 2.2633,-11.19903 0.9714,-2.13198 0.7152,-2.70324 -2.2937,-5.11466 -5.5967,-4.48526 -22.8873,-22.21634 -22.8873,-23.47035 0,-0.75481 1.026,-0.96176 2.905,-0.58596 l 2.905,0.58101 -2.2645,-4.20601 c -11.036,-20.49769 -16.6083,-29.83728 -27.8666,-46.706 -13.5135,-20.24779 -20.4351,-29.61239 -30.6739,-41.5 -6.1971,-7.19503 -12.005,-15.27235 -12.005,-16.69578 0,-1.52046 2.1298,-0.79134 13.3014,4.55354 29.4468,14.08833 54.3078,18.61971 102.1986,18.6276 39.1298,0.006 68.7655,-2.77337 90,-8.44192 4.95,-1.3214 10.125,-2.54675 11.5,-2.723 2.1802,-0.27946 1.8605,-0.62053 -2.5,-2.66686 -16.9679,-7.96273 -34.2985,-19.91704 -53.1311,-36.6487 -0.622,-0.55269 -12.3248,-12.03109 -26.0062,-25.50758 -24.2999,-23.93609 -30.211,-29.08139 -49.0832,-42.72409 -5.0713,-3.66603 -9.1213,-6.74157 -9,-6.83454 0.1213,-0.093 4.2705,0.49075 9.2205,1.29716 6.0269,0.98186 17.5888,1.51542 35,1.61519 23.6344,0.13542 26.8643,-0.0526 35.5,-2.06669 5.225,-1.21862 16.1681,-3.72806 24.3181,-5.57653 l 14.8181,-3.36086 -11.6544,-8.75384 c -6.4099,-4.81461 -11.7281,-8.60517 -11.8181,-8.42347 -3.1225,6.30145 -6.151,7.49428 -15.1426,5.96423 -15.3136,-2.60578 -50.0704,-10.46981 -69.0211,-15.6166 -27.6669,-7.51399 -48.5896,-11.08584 -69,-11.77939 l -7,-0.23787 -0.2913,-7.12423 c -0.3662,-8.95817 0.8333,-10.56052 14.4912,-19.35794 20.8112,-13.40497 23.9777,-15.6445 29.5501,-20.89966 3.1625,-2.98243 5.75,-5.7812 5.75,-6.21947 0,-0.43828 -2.5875,0.4802 -5.75,2.04106 -11.2196,5.53745 -18.9045,6.98028 -45.75,8.58949 -28.9815,1.73725 -52.4556,8.08448 -69.8179,18.87829 -10.3633,6.44262 -23.4429,12.48529 -32.6468,15.08248 l -7.9991,2.25724 1.7319,-3.06384 c 0.9525,-1.68512 5.2194,-6.68759 9.4819,-11.11661 4.2625,-4.42902 7.75,-8.14502 7.75,-8.25777 0,-0.11275 -1.2375,0.18275 -2.75,0.65666 -1.5125,0.47391 -7.025,1.85114 -12.25,3.06051 -25.0982,5.80917 -61.8633,20.70738 -90.0746,36.50066 -24.2312,13.56506 -59.9173,40.26836 -58.5934,43.8443 0.2299,0.62086 0.9566,1.00555 1.6149,0.85487 1.6465,-0.37689 62.419,2.61142 68.304,3.35866 7.2542,0.92108 4.6091,2.4153 -4.2755,2.4153 -18.8312,0 -57.1648,7.36971 -84.6026,16.26502 -6.9154,2.24194 -7.3634,2.59307 -15.0687,11.81017 -8.8879,10.63168 -30.7087,39.1028 -33.8354,44.1475 l -2.0314,3.27731 9.0314,3.35085 c 12.038,4.46643 22.9061,7.13182 29.1185,7.14135 7.7118,0.0118 30.2813,-4.4782 45.4128,-9.03453 14.3568,-4.32306 39.4323,-13.91267 44.618,-17.0633 1.7149,-1.0419 3.7399,-1.87591 4.5,-1.85336 2.5899,0.0769 -6.8724,7.52105 -15.2483,11.99632 -9.7905,5.23101 -23.813,15.64146 -36.1621,26.84705 -4.8358,4.38803 -10.6999,8.90167 -13.0314,10.03033 -3.9009,1.88839 -35.457,27.57321 -59.2356,48.21427 -17.7195,15.3815 -35.5622,26.68466 -45.311,28.7042 l -3.6296,0.75189 -0.6897,8.45747 c -0.3794,4.6516 -0.9306,9.69496 -1.225,11.20746 -0.2944,1.5125 -0.284,2.75 0.023,2.75 0.3071,0 4.0965,-0.90338 8.421,-2.00751 4.3244,-1.10413 14.2994,-2.67296 22.1666,-3.48628 16.4216,-1.69769 21.7256,-2.97019 37.1657,-8.91656 14.8146,-5.70547 24.6456,-8.91569 25.2998,-8.26144 0.2936,0.29358 0.041,2.83242 -0.5617,5.64186 -2.9543,13.77529 -2.2833,39.7694 1.5238,59.02993 4.1462,20.97644 13.094,39.92554 24.5544,52 6.2774,6.61381 14.9357,14.21958 15.521,13.63427 0.3223,-0.32226 0.1126,-1.15931 -0.4659,-1.8601 z m 291.8547,-17.91963 c 4.7075,-6.91229 6.328,-11.03731 8.37,-21.30583 l 1.5812,-7.95129 -5.7695,-5.85629 c -3.1732,-3.22096 -9.5945,-8.38569 -14.2695,-11.47718 -4.675,-3.09149 -9.7226,-6.44299 -11.2168,-7.44778 l -2.7167,-1.8269 1.9211,4.48194 c 3.773,8.80188 10.9612,35.50961 12.0277,44.68838 1.9677,16.93529 1.7885,16.32557 4.1699,14.18785 1.1319,-1.01609 3.7881,-4.3879 5.9026,-7.4929 z m -233.7507,-4.67454 c 1.0078,-1.11362 2.0591,-3.7472 2.3362,-5.85238 0.4337,-3.2953 0.028,-4.37511 -2.9157,-7.76435 l -3.4195,-3.93673 -0.143,3.80283 c -0.2006,5.33539 -1.7507,6.87659 -6.0964,6.06132 -7.1585,-1.34293 -10.8295,-4.29417 -12.1239,-9.74685 l -0.7701,-3.24384 -0.093,4 c -0.1073,4.63728 3.4993,12.96706 7.0127,16.19616 1.3142,1.20789 3.9524,2.85333 5.8627,3.65655 3.8679,1.62631 6.8276,0.71898 10.3496,-3.17271 z m -45.957,-34.98605 c 0.274,-0.44333 8.5878,-0.74609 18.475,-0.6728 l 17.9768,0.13325 -4.89,-4.39651 c -6.3783,-5.73468 -14.1722,-17.47434 -16.8842,-25.43202 -2.9091,-8.53601 -7.9478,-18.0514 -8.0105,-15.12749 -0.026,1.20911 -1.1432,5.70911 -2.4827,10 -4.5261,14.49882 -7.9866,36.30162 -5.7616,36.30162 0.5935,0 1.3032,-0.36272 1.5772,-0.80605 z m 198.6199,-2.54766 c 3.3629,-1.54505 6.0052,-7.1522 5.9593,-12.64629 l -0.038,-4.5 -1.5052,3.47025 c -2.2795,5.25535 -4.3293,7.02975 -8.1212,7.02975 -5.0499,0 -9.2555,-2.55105 -9.9528,-6.03724 -0.5864,-2.93232 -0.6246,-2.94708 -5.9833,-2.31727 -4.384,0.51526 -5.7641,0.29807 -7.3761,-1.16081 -1.9254,-1.74238 -1.9826,-1.72461 -1.9667,0.61033 0.01,1.32275 1.0216,4.16221 2.25,6.30993 5.5509,9.70457 17.0633,13.68422 26.7336,9.24135 z m 183.6391,-13.60315 c -3.3429,-3.16156 -6.555,-7.59834 -8.8688,-12.25 -3.4703,-6.97686 -10.2461,-25.70914 -13.1278,-36.29314 -0.7487,-2.75 -1.7362,-5.9 -2.1944,-7 -0.4985,-1.19666 1.3529,-0.0338 4.6094,2.89515 15.9849,14.37728 56.9043,31.60485 75.0687,31.60485 h 2.9053 l -3.0115,-2.75 c -5.3006,-4.84037 -14.7636,-18.34297 -22.9512,-32.74886 -8.4562,-14.87853 -14.0618,-26.5635 -11.8844,-24.77327 2.5944,2.1331 28.1023,6.41886 41.3156,6.94172 l 13,0.51442 -7.5,-3.91879 c -11.3897,-5.95116 -24.0241,-14.50878 -28.6264,-19.38934 -6.1734,-6.54678 -11.3139,-14.64997 -11.9948,-18.90822 -0.5711,-3.57154 -0.7537,-3.73504 -3.242,-2.90286 -4.3882,1.46759 -39.9176,7.73942 -55.7671,9.84431 -24.2288,3.21768 -46.6038,4.58052 -57.6474,3.51126 -5.3473,-0.51773 -9.7223,-0.88132 -9.7223,-0.80797 0,0.0734 0.932,2.24042 2.0712,4.81571 1.2745,2.88115 2.7926,10.33509 3.9465,19.37712 1.0313,8.08212 2.3371,16.94477 2.9017,19.69477 0.5645,2.75 1.5193,8.825 2.1217,13.5 0.6023,4.675 1.7108,9.45291 2.4633,10.61758 0.7525,1.16467 4.8843,4.94945 9.1819,8.41062 24.06,19.37754 55.4661,32.97138 80.5038,34.8453 1.0294,0.077 -0.3588,-1.81131 -3.551,-4.83036 z m -218.2301,-53.65936 2.5801,-4.61621 -7.6534,-8.13379 c -16.9688,-18.03384 -29.405,-34.90063 -37.6191,-51.02118 l -3.5094,-6.8874 -0.727,9.69671 c -1.2321,16.43502 1.2795,31.37328 6.8825,40.9341 2.6579,4.53526 13.2764,13.88525 19.1441,16.85708 1.6463,0.83378 5.4682,2.30494 8.4932,3.26925 3.025,0.96432 6.1589,2.37528 6.9643,3.13548 2.1846,2.06218 2.6337,1.79544 5.4447,-3.23404 z m -288.909,-17.45547 c 5.6508,-3.42058 14.3918,-13.42849 18.9458,-21.69201 4.9859,-9.04698 5.4363,-10.33047 2.8042,-7.9905 -2.1605,1.92075 -16.7333,7.09721 -24.5178,8.70908 -6.4404,1.33356 -6.7884,1.81007 -10.8913,14.9126 -1.0966,3.50211 -2.2276,6.97672 -2.5134,7.72134 -0.7741,2.01744 12.317,0.67331 16.1725,-1.66051 z m 6.2565,-46.43301 c 8.8164,-2.07869 29.1018,-9.9208 39.7435,-15.3644 l 9,-4.60382 -12,-0.61746 c -13.5676,-0.69813 -18.7199,-1.8559 -26.25,-5.89864 -3.9197,-2.10439 -5.25,-2.45485 -5.25,-1.38305 0,1.28283 -6.7756,15.6707 -12.0661,25.62207 -2.306,4.33765 -2.1999,4.37259 6.8226,2.2453 z m 469.1933,-183.58705 c -27.6081,-13.58055 -46.3112,-20.89518 -63.9498,-25.01024 -4.675,-1.09067 -9.7668,-2.48064 -11.3151,-3.08881 -2.6075,-1.02423 -3.1606,-0.77437 -7.5,3.38841 -2.5767,2.47179 -6.255,5.5708 -8.1741,6.88667 -2.994,2.05299 -3.2069,2.44021 -1.5,2.72865 9.0099,1.52255 27.7964,6.23984 41.4892,10.4179 31.6157,9.64687 44.9667,12.54296 58.4498,12.67892 l 8.9499,0.0902 -16.4499,-8.09175 z"
           id="path4175" />
      </g>
      <g
         id="g4185"
         transform="translate(856.00965,22.234017)"
         style="fill:none;stroke:#d45500">
        <path
           id="path4183"
           style="fill:none;stroke:none"
           sodipodi:type="inkscape:offset"
           inkscape:radius="0"
           inkscape:original="M 2531.8613 152.66211 L 2519.8613 159.53516 C 2494.0582 174.31479 2479.4043 178.16801 2432.8613 182.41406 C 2386.7562 186.62015 2349.753 193.89443 2315.9688 205.39453 C 2282.6154 216.74801 2246.9566 235.33519 2222.498 254.11523 C 2217.1986 258.1843 2210.6113 263.22542 2207.8613 265.31641 C 2182.4565 284.63321 2147.0963 324.95431 2125.7812 358.91211 C 2111.8222 381.15064 2094.7421 418.6034 2087.4727 442.91211 C 2077.8203 475.18949 2072.5846 527.08665 2075.2656 563.91211 C 2076.6222 582.54573 2081.264 613.37322 2084.9766 628.41211 C 2089.3097 645.96458 2099.216 675.05247 2106.3203 691.08008 C 2123.9214 730.78889 2148.2563 766.23652 2179.3594 797.4707 C 2205.1978 823.41784 2235.684 845.43016 2270.8613 863.54102 C 2310.896 884.15269 2351.3761 894.62592 2405.6348 898.41211 C 2421.7922 899.53957 2453.4621 898.83337 2470.6758 896.96094 C 2498.1875 893.96833 2528.3623 886.3169 2556.8613 875.10742 C 2572.8951 868.80088 2605.2811 852.80965 2611.3613 848.19727 C 2613.8363 846.31975 2620.3613 841.69518 2625.8613 837.91992 C 2652.0854 819.91942 2674.6876 799.67664 2706.9648 765.2832 C 2729.5605 741.20596 2754.9474 700.55917 2766.9199 669.28906 C 2783.2313 626.68599 2790.3746 588.24675 2790.3516 543.18945 C 2790.3346 509.83114 2787.2159 484.0309 2779.4395 452.91211 C 2768.7105 409.9785 2753.6706 377.20895 2726.4316 337.41211 C 2715.1367 320.91004 2706.5907 310.80169 2689.7754 294.06055 C 2656.3897 260.82198 2608.6493 228.148 2569.6309 211.83203 C 2557.7088 206.84667 2528.3376 195.88572 2524.25 194.89648 L 2521.6387 194.26367 L 2525.5762 184.23438 C 2529.993 172.98284 2532.608 161.91019 2532.1602 156.36523 L 2531.8613 152.66211 z M 2508.3613 183.31055 C 2508.3613 183.74882 2505.7738 186.54687 2502.6113 189.5293 C 2497.0389 194.78446 2493.8737 197.02472 2473.0625 210.42969 C 2459.4046 219.22711 2458.2041 220.82894 2458.5703 229.78711 L 2458.8613 236.91211 L 2465.8613 237.14844 C 2486.2717 237.84199 2507.1944 241.41374 2534.8613 248.92773 C 2553.812 254.07452 2588.5692 261.93914 2603.8828 264.54492 C 2612.8744 266.07497 2615.9029 264.88153 2619.0254 258.58008 C 2619.1154 258.39838 2624.4338 262.1893 2630.8438 267.00391 L 2642.498 275.75781 L 2627.6797 279.11914 C 2619.5297 280.96761 2608.5863 283.47669 2603.3613 284.69531 C 2594.7256 286.7094 2591.4957 286.89714 2567.8613 286.76172 C 2550.4501 286.66195 2538.8882 286.12834 2532.8613 285.14648 C 2527.9113 284.34007 2523.7619 283.75661 2523.6406 283.84961 C 2523.5193 283.94258 2527.5693 287.01756 2532.6406 290.68359 C 2551.5128 304.32629 2557.4247 309.47211 2581.7246 333.4082 C 2595.406 346.88469 2607.1085 358.36333 2607.7305 358.91602 C 2626.5631 375.64768 2643.8934 387.60172 2660.8613 395.56445 C 2665.2218 397.61078 2665.5415 397.95296 2663.3613 398.23242 C 2661.9863 398.40867 2656.8113 399.63368 2651.8613 400.95508 C 2630.6268 406.62363 2600.9911 409.40248 2561.8613 409.39648 C 2513.9705 409.38859 2489.1109 404.85786 2459.6641 390.76953 C 2448.4925 385.42465 2446.3613 384.69438 2446.3613 386.21484 C 2446.3613 387.63827 2452.1701 395.71708 2458.3672 402.91211 C 2468.606 414.79972 2475.5275 424.16432 2489.041 444.41211 C 2500.2993 461.28083 2505.8722 470.6195 2516.9082 491.11719 L 2519.1719 495.32422 L 2516.2676 494.74219 C 2514.3886 494.36639 2513.3613 494.57331 2513.3613 495.32812 C 2513.3613 496.58214 2530.6533 514.31357 2536.25 518.79883 C 2539.2589 521.21025 2539.5144 521.78208 2538.543 523.91406 C 2537.9416 525.23408 2536.9227 530.27384 2536.2793 535.11328 C 2534.4558 548.83025 2535.3545 548.56979 2523.0508 538.94531 C 2512.5052 530.69604 2509.8348 529.00651 2492.2539 519.45508 C 2482.8132 514.32612 2457.6164 497.7902 2447.3613 489.99414 C 2435.4591 480.94588 2416.9709 464.70845 2407.8047 455.25391 C 2384.3702 431.0823 2376.9949 421.77755 2366.7168 403.41211 C 2355.9741 384.2166 2355.2223 382.00469 2354.1504 366.41211 C 2353.0217 349.99282 2352.232 347.51204 2351.2852 357.41211 C 2350.7668 362.83338 2349.2916 368.06 2345.9609 376.27148 C 2337.2523 397.74188 2335.3956 407.39075 2335.9883 428.0957 C 2336.5571 447.96647 2340.9093 461.1856 2350.3613 471.74414 C 2355.7083 477.71713 2366.457 484.95493 2375.9844 488.99609 L 2382.8594 491.91211 L 2377.8613 492.57227 C 2365.0476 494.26472 2347.6573 489.68527 2333.5664 480.9082 C 2313.7565 468.5688 2289.3318 447.27449 2282.1484 436.08008 C 2280.3951 433.34784 2278.8028 431.58779 2278.6094 432.16797 C 2278.0651 433.80102 2285.0997 451.89693 2290.1719 461.91211 C 2292.767 467.03617 2294.608 471.96807 2294.4473 473.36523 C 2294.0375 476.92773 2296.1412 492.93875 2298.9863 507.91211 C 2302.859 528.2936 2309.6588 538.78265 2323.2656 545.36523 L 2330.0996 548.66992 L 2330.7188 555.34375 C 2331.0599 559.01449 2331.9747 564.13184 2332.752 566.71484 L 2334.166 571.41211 L 2330.7324 571.41211 C 2316.6226 571.41211 2284.0611 550.55547 2267.5039 530.91211 C 2256.8902 518.3201 2250.4355 508.39821 2240.9004 490.01953 C 2236.7537 482.02696 2233.3613 476.44195 2233.3613 477.60742 C 2233.3613 478.77289 2230.726 484.26737 2227.5039 489.81836 C 2216.8604 508.15471 2207.6376 534.06749 2205.8594 550.63086 C 2205.2313 556.48101 2207.1835 570.74406 2209.7988 579.41211 C 2211.4184 584.78011 2222.0954 609.36803 2223.5957 611.18555 C 2224.1742 611.88634 2224.3828 612.72266 2224.0605 613.04492 C 2223.4752 613.63023 2214.8165 606.02592 2208.5391 599.41211 C 2197.0787 587.33765 2188.1325 568.38855 2183.9863 547.41211 C 2180.1792 528.15158 2179.5066 502.15615 2182.4609 488.38086 C 2183.0636 485.57142 2183.317 483.03381 2183.0234 482.74023 C 2182.3692 482.08598 2172.5373 485.29648 2157.7227 491.00195 C 2142.2826 496.94832 2136.9802 498.22028 2120.5586 499.91797 C 2112.6914 500.73129 2102.715 502.30017 2098.3906 503.4043 C 2094.0661 504.50843 2090.2778 505.41211 2089.9707 505.41211 C 2089.6637 505.41211 2089.6529 504.17461 2089.9473 502.66211 C 2090.2417 501.14961 2090.7925 496.10472 2091.1719 491.45312 L 2091.8613 482.99609 L 2095.4922 482.24414 C 2105.241 480.2246 2123.0832 468.92252 2140.8027 453.54102 C 2164.5813 432.89996 2196.1382 407.21456 2200.0391 405.32617 C 2202.3706 404.19751 2208.2345 399.68295 2213.0703 395.29492 C 2225.4194 384.08933 2239.4419 373.68023 2249.2324 368.44922 C 2257.6083 363.97395 2267.0704 356.53003 2264.4805 356.45312 C 2263.7204 356.43057 2261.6954 357.26474 2259.9805 358.30664 C 2254.7948 361.45727 2229.7181 371.04608 2215.3613 375.36914 C 2200.2298 379.92547 2177.661 384.4161 2169.9492 384.4043 C 2163.7368 384.39477 2152.8681 381.72815 2140.8301 377.26172 L 2131.7988 373.91211 L 2133.8301 370.63477 C 2136.9568 365.59007 2158.7781 337.11801 2167.666 326.48633 C 2175.3713 317.26923 2175.819 316.91772 2182.7344 314.67578 C 2210.1722 305.78047 2248.5067 298.41211 2267.3379 298.41211 C 2276.2225 298.41211 2278.8675 296.91717 2271.6133 295.99609 C 2265.7283 295.24885 2204.9551 292.25983 2203.3086 292.63672 C 2202.6503 292.7874 2201.9233 292.40406 2201.6934 291.7832 C 2200.3695 288.20726 2236.0559 261.50256 2260.2871 247.9375 C 2288.4984 232.14422 2325.2631 217.24667 2350.3613 211.4375 C 2355.5863 210.22813 2361.0988 208.85086 2362.6113 208.37695 C 2364.1238 207.90304 2365.3613 207.60795 2365.3613 207.7207 C 2365.3613 207.83345 2361.8738 211.5495 2357.6113 215.97852 C 2353.3488 220.40754 2349.0834 225.41058 2348.1309 227.0957 L 2346.3984 230.1582 L 2354.3965 227.90039 C 2363.6004 225.3032 2376.6816 219.26098 2387.0449 212.81836 C 2404.4072 202.02455 2427.8798 195.67866 2456.8613 193.94141 C 2483.7068 192.3322 2491.3917 190.88901 2502.6113 185.35156 C 2505.7738 183.7907 2508.3613 182.87227 2508.3613 183.31055 z M 2509.3848 207.73242 C 2509.8711 207.78799 2510.395 207.96465 2511.0469 208.2207 C 2512.5952 208.82887 2517.6863 210.21792 2522.3613 211.30859 C 2539.9999 215.42365 2558.7044 222.73976 2586.3125 236.32031 L 2602.7617 244.41211 L 2593.8125 244.32031 C 2580.3294 244.18435 2566.977 241.28945 2535.3613 231.64258 C 2521.6685 227.46452 2502.8829 222.74716 2493.873 221.22461 C 2492.1661 220.93617 2492.379 220.54908 2495.373 218.49609 C 2497.2921 217.18022 2500.9702 214.08116 2503.5469 211.60938 C 2506.8014 208.48729 2507.9258 207.56573 2509.3848 207.73242 z M 2662.4531 287.27344 L 2677.7441 303.0918 C 2702.6073 328.81655 2710.354 338.3365 2723.584 359.41211 C 2737.8925 382.20585 2746.2092 399.63954 2755.9062 427.16602 C 2768.386 462.59206 2773.7398 488.04997 2776.4609 524.91211 C 2778.1779 548.17197 2777.7088 560.73282 2774.2578 583.91211 C 2769.4935 615.91158 2764.6819 634.41882 2753.8027 662.58594 C 2750.2605 671.75715 2747.3613 679.74465 2747.3613 680.33594 C 2747.3613 681.00316 2744.6108 681.41297 2740.1113 681.41797 C 2736.1238 681.42213 2730.1613 681.85214 2726.8613 682.37305 C 2723.5613 682.89396 2713.4363 683.81154 2704.3613 684.41211 C 2660.9164 687.28724 2617.1233 695.4342 2585.9375 706.44141 C 2581.3094 708.07492 2577.1905 709.41211 2576.7852 709.41211 C 2576.3797 709.41211 2576.4201 698.49961 2576.875 685.16211 C 2577.3299 671.82461 2577.7373 659.44961 2577.7812 657.66211 C 2577.8251 655.87461 2578.1825 654.41211 2578.5742 654.41211 C 2578.9659 654.41211 2581.9439 656.78198 2585.1914 659.67969 C 2592.8379 666.50258 2599.6725 670.16315 2608.041 671.91406 C 2611.7485 672.68976 2614.9474 673.16005 2615.1484 672.95898 C 2615.3495 672.75791 2613.5267 670.76044 2611.0977 668.52148 C 2608.6687 666.28252 2605.1742 661.48099 2603.332 657.85156 C 2599.2994 649.90675 2599.1031 645.10568 2602.3652 634.11719 L 2604.6055 626.57422 L 2608.5508 629.43359 C 2613.2547 632.84107 2624.3911 636.67554 2637.1113 639.26758 C 2642.1988 640.30428 2646.3613 641.01072 2646.3613 640.83789 C 2646.3613 640.66506 2643.7738 636.1103 2640.6113 630.7168 C 2635.6524 622.25958 2629.8418 608.59769 2630.7969 607.64258 C 2630.968 607.47151 2633.977 607.77805 2637.4844 608.32227 C 2656.8445 611.32625 2679.0405 610.47657 2701.8945 605.85742 C 2709.0261 604.41601 2715.5148 603.03129 2716.3125 602.7793 C 2717.1102 602.5273 2714.134 601.06297 2709.6992 599.52734 C 2692.7262 593.65014 2672.611 581.23588 2658.623 568.00586 C 2649.891 559.74695 2637.3089 543.45122 2632.9238 534.7207 C 2630.4769 529.84897 2629.5184 524.40317 2631.1113 524.41797 C 2631.5238 524.42181 2635.1825 525.55261 2639.2402 526.92969 C 2657.7125 533.19879 2691.1501 536.08536 2711.3613 533.15625 L 2720.8613 531.7793 L 2715.3613 528.95703 C 2695.3168 518.67073 2679.4251 502.0536 2673.8379 485.53906 C 2671.0445 477.28263 2670.6896 473.93915 2672.6855 474.70508 C 2673.4132 474.98432 2681.4007 474.8368 2690.4355 474.37695 C 2707.9776 473.48409 2715.1128 471.99431 2727.8105 466.57617 L 2734.7598 463.61133 L 2730.3105 462.44336 C 2705.272 455.86721 2683.1015 444.61488 2672.8711 433.29102 C 2669.8044 429.89653 2669.3597 428.74345 2669.3477 424.1582 C 2669.3402 421.27228 2669.064 417.89961 2668.7324 416.66211 C 2668.1562 414.51217 2668.3944 414.41211 2674.1152 414.41211 C 2686.5498 414.41211 2710.2141 409.05685 2720.4199 403.93359 C 2724.8795 401.69489 2735.2634 395.05897 2735.3184 394.41211 C 2735.3582 393.94453 2719.1608 390.36916 2700.8613 386.80664 C 2691.6043 385.0045 2669.0861 377.68169 2660.0605 373.53906 C 2656.6511 371.97419 2652.8318 369.56956 2651.5723 368.19531 L 2649.2812 365.69727 L 2654.2402 366.17383 C 2665.1562 367.22272 2680.7721 360.86073 2700.7832 347.21484 C 2702.8677 345.79339 2700.6473 345.60058 2692.8613 346.52734 C 2677.1875 348.39294 2665.7025 347.70497 2651.1562 344.02539 C 2621.5033 336.52452 2596.8717 324.67617 2569.9844 304.98242 L 2565.1094 301.41211 L 2568.6699 301.41211 C 2570.6285 301.41211 2575.4571 300.73184 2579.4004 299.90234 C 2588.4474 297.99925 2613.0537 294.07696 2629.3613 291.9375 C 2636.2363 291.03555 2646.4953 289.61673 2652.1582 288.78516 L 2662.4531 287.27344 z M 2122.6309 391.50781 C 2123.1887 391.25286 2124.6716 391.84358 2127.6113 393.42188 C 2135.1414 397.46461 2140.2937 398.62218 2153.8613 399.32031 L 2165.8613 399.9375 L 2156.8613 404.54297 C 2146.2196 409.98657 2125.9355 417.82756 2117.1191 419.90625 C 2108.0966 422.03354 2107.9889 421.99976 2110.2949 417.66211 C 2115.5854 407.71074 2122.3613 393.32189 2122.3613 392.03906 C 2122.3613 391.77111 2122.4449 391.5928 2122.6309 391.50781 z M 2353.5684 413.13672 L 2357.0781 420.02344 C 2365.2922 436.14399 2377.7285 453.01108 2394.6973 471.04492 L 2402.3516 479.17969 L 2399.7715 483.79492 C 2396.9605 488.8244 2396.5108 489.09148 2394.3262 487.0293 C 2393.5208 486.2691 2390.3863 484.85885 2387.3613 483.89453 C 2384.3363 482.93022 2380.5154 481.45878 2378.8691 480.625 C 2373.0014 477.65317 2362.3825 468.30284 2359.7246 463.76758 C 2354.1216 454.20676 2351.6097 439.269 2352.8418 422.83398 L 2353.5684 413.13672 z M 2642.9746 418.07617 C 2644.1025 417.9385 2644.3119 418.70025 2644.7402 421.37891 C 2645.4211 425.63716 2650.5629 433.74033 2656.7363 440.28711 C 2661.3386 445.16767 2673.9716 453.72462 2685.3613 459.67578 L 2692.8613 463.5957 L 2679.8613 463.08008 C 2666.648 462.55722 2641.1413 458.27177 2638.5469 456.13867 C 2636.3695 454.34844 2641.9754 466.03358 2650.4316 480.91211 C 2658.6192 495.318 2668.0822 508.82174 2673.3828 513.66211 L 2676.3926 516.41211 L 2673.4883 516.41211 C 2655.3239 516.41211 2614.4048 499.18392 2598.4199 484.80664 C 2595.1634 481.87769 2593.312 480.71545 2593.8105 481.91211 C 2594.2687 483.01211 2595.2552 486.16211 2596.0039 488.91211 C 2598.8856 499.49611 2605.6625 518.22822 2609.1328 525.20508 C 2611.4466 529.85674 2614.6591 534.29352 2618.002 537.45508 C 2621.1942 540.47413 2622.5821 542.36216 2621.5527 542.28516 C 2596.515 540.41124 2565.1088 526.81699 2541.0488 507.43945 C 2536.7512 503.97828 2532.6197 500.19397 2531.8672 499.0293 C 2531.1147 497.86463 2530.0046 493.08711 2529.4023 488.41211 C 2528.7999 483.73711 2527.8457 477.66211 2527.2812 474.91211 C 2526.7166 472.16211 2525.4102 463.29892 2524.3789 455.2168 C 2523.225 446.17477 2521.7081 438.72099 2520.4336 435.83984 C 2519.2944 433.26455 2518.3613 431.09684 2518.3613 431.02344 C 2518.3613 430.95009 2522.7367 431.3143 2528.084 431.83203 C 2539.1276 432.90129 2561.5036 431.53799 2585.7324 428.32031 C 2601.5819 426.21542 2637.1098 419.94415 2641.498 418.47656 C 2642.1201 418.26852 2642.5986 418.12206 2642.9746 418.07617 z M 2133.9844 435.64648 C 2134.7344 435.44437 2133.548 437.8632 2129.8086 444.64844 C 2125.2546 452.91196 2116.5121 462.91926 2110.8613 466.33984 C 2107.0058 468.67366 2093.9154 470.01744 2094.6895 468 C 2094.9753 467.25538 2096.1065 463.78141 2097.2031 460.2793 C 2101.306 447.17677 2101.6534 446.70075 2108.0938 445.36719 C 2115.8783 443.75532 2130.4508 438.577 2132.6113 436.65625 C 2133.2694 436.07126 2133.7344 435.71386 2133.9844 435.64648 z M 2304.5488 479.2168 L 2307.2051 481.74414 C 2318.355 492.35536 2337.7901 503.13797 2347.7461 504.23633 L 2353.8613 504.91211 L 2350.3613 507.02344 C 2348.4363 508.18475 2344.3754 511.33475 2341.3379 514.02344 C 2338.3003 516.71214 2334.2503 520.14399 2332.3379 521.65039 C 2329.1132 524.19037 2329.0311 524.39009 2331.1875 524.40039 C 2335.5335 524.42112 2353.8996 516.475 2360.0215 511.92578 C 2364.6108 508.51539 2367.6885 507.09873 2372.9531 505.97461 C 2383.9004 503.63708 2397.765 498.56094 2412.9785 491.32031 L 2417.0957 489.36133 L 2420.4785 492.54688 C 2422.3389 494.29916 2425.7924 496.96724 2428.1523 498.47461 L 2432.4434 501.21484 L 2423.1523 506.17383 C 2408.1883 514.16013 2397.1852 520.42117 2392.3613 523.69727 C 2376.7006 534.33289 2363.3784 543.03936 2360.3613 544.60938 L 2356.8613 546.42969 L 2360.8613 545.79883 C 2364.2302 545.2667 2379.3036 540.70045 2384.3613 538.67969 C 2385.1863 538.35007 2380.9858 543.20543 2375.0273 549.46875 C 2369.0687 555.73207 2363.7168 561.76749 2363.1328 562.88281 C 2362.1265 564.80468 2362.1703 564.82567 2363.9668 563.25781 C 2365.0093 562.34794 2368.862 559.59889 2372.5293 557.15039 C 2379.2305 552.67635 2387.8654 545.55659 2396.1602 537.66211 C 2398.6163 535.32461 2400.7914 533.41211 2400.9941 533.41211 C 2401.1967 533.41211 2401.3613 534.25443 2401.3613 535.28516 C 2401.3613 539.03227 2406.6064 546.60976 2411.2285 549.54102 C 2419.2524 554.62964 2426.4191 555.63359 2434.6699 552.82227 C 2447.6442 548.40148 2449.8856 532.66809 2439.623 518.05469 L 2436.2129 513.19922 L 2438.4609 510.80469 C 2439.6978 509.48807 2441.1537 508.41211 2441.6953 508.41211 C 2442.237 508.41211 2445.0148 510.17505 2447.8691 512.33008 C 2450.7234 514.4851 2456.1652 518.13421 2459.9609 520.43945 C 2463.7565 522.7447 2468.3112 525.7188 2470.082 527.04883 L 2473.3008 529.4668 L 2467.082 535.74414 C 2456.7636 546.15696 2444.5225 555.3555 2437.5996 557.89844 C 2435.5444 558.65349 2434.5973 559.303 2435.4961 559.3418 C 2438.3979 559.46691 2452.6873 551.62923 2458.9004 546.50586 C 2462.2219 543.76697 2466.4465 539.42711 2468.2891 536.86133 L 2471.6406 532.19727 L 2473.8633 539.05469 C 2476.8964 548.4055 2479.4341 554.53032 2484.6113 565.01172 C 2487.029 569.90642 2489.838 576.16211 2490.8555 578.91211 C 2491.8729 581.66211 2493.0235 584.36211 2493.4121 584.91211 C 2494.8742 586.98167 2496.7151 607.47774 2496.7871 622.49219 L 2496.8613 638.07422 L 2501.5508 635.19531 C 2507.6386 631.45645 2510.9681 627.56982 2520.6152 612.94922 C 2524.984 606.32798 2528.789 600.68711 2529.0703 600.41211 C 2529.3515 600.13711 2529.3709 605.98711 2529.1133 613.41211 C 2528.7674 623.38187 2527.9033 630.10725 2525.8105 639.13477 L 2522.9766 651.35938 L 2513.2207 659.42969 C 2485.7831 682.12362 2431.8979 720.92972 2396.1836 743.71484 L 2396.1816 743.71484 C 2389.2574 748.13234 2386.7499 748.73898 2382.8613 746.93945 C 2381.2113 746.17588 2372.2113 742.1394 2362.8613 737.96875 C 2343.2331 729.21339 2319.4692 716.65927 2307.6875 708.82227 C 2296.1697 701.16078 2285.7144 687.50019 2276.377 667.91211 C 2263.2248 640.32099 2262.8008 639.31013 2252.9766 611.91211 C 2249.4267 602.01211 2246.1962 593.01211 2245.7969 591.91211 C 2245.3158 590.5866 2246.5539 591.30915 2249.4668 594.05664 C 2254.5711 598.87098 2264.0558 604.41211 2267.1934 604.41211 C 2270.4047 604.41211 2269.8046 603.2134 2265.1914 600.41211 C 2262.9271 599.03711 2257.3109 594.24274 2252.7129 589.75781 C 2246.085 583.29286 2243.6025 580.02052 2240.7285 573.96875 C 2238.7347 569.77044 2237.274 566.2398 2237.4824 566.12305 C 2237.6908 566.0063 2242.2257 566.05393 2247.5605 566.22852 L 2257.2617 566.54688 L 2256.3105 569.04297 C 2252.814 578.23961 2260.5454 590.94529 2271.8301 594.54688 C 2277.6984 596.41974 2279.557 596.06216 2283.2656 592.35352 C 2286.862 588.7571 2288.6681 582.17216 2288.7754 572.27344 C 2288.835 566.77061 2289.1641 564.78538 2289.8613 565.71875 C 2290.4113 566.45499 2293.1113 568.33147 2295.8613 569.88672 C 2298.6113 571.44198 2302.8863 573.95969 2305.3613 575.48242 C 2322.7471 586.17894 2357.3613 602.84222 2357.3613 600.51562 C 2357.3613 600.14156 2355.0894 597.60237 2352.3125 594.87305 C 2346.0921 588.75908 2341.8145 582.23498 2339.9375 575.99805 C 2338.7136 571.93165 2338.7104 571.33153 2339.918 571.79492 C 2341.0659 572.23533 2341.2865 570.90578 2341.1074 564.62305 C 2340.9865 560.38139 2341.2776 553.27729 2341.7539 548.83594 L 2342.6191 540.76172 L 2339.7402 539.67969 C 2338.1566 539.08467 2334.1689 537.76755 2330.8789 536.75391 C 2325.8225 535.19605 2324.3351 534.1618 2321.2598 530.06641 C 2319.2589 527.4017 2316.82 522.8623 2315.8398 519.97852 C 2314.4877 516.00076 2313.3963 514.48432 2311.3164 513.69922 C 2309.8084 513.13004 2307.8242 511.52104 2306.9082 510.12305 C 2304.9793 507.17918 2303.6081 494.88798 2304.168 485.56445 L 2304.5488 479.2168 z M 2242.6523 507.57031 C 2243.6986 507.54953 2247.8745 515.76732 2250.4199 523.23633 C 2253.1319 531.19401 2260.9264 542.93524 2267.3047 548.66992 L 2272.1934 553.06641 L 2254.2168 552.93164 C 2244.3296 552.85835 2236.0162 553.16214 2235.7422 553.60547 C 2235.4682 554.0488 2234.7576 554.41211 2234.1641 554.41211 C 2231.9391 554.41211 2235.3997 532.6082 2239.9258 518.10938 C 2241.2653 513.81848 2242.3822 509.31849 2242.4082 508.10938 C 2242.416 507.74389 2242.5029 507.57328 2242.6523 507.57031 z M 2089.5645 519.0957 C 2089.8692 519.05835 2090.2543 519.18041 2090.7559 519.37109 C 2092.6075 520.07507 2104.262 521.06278 2134.0371 523.03711 L 2142.2109 523.57812 L 2139.1875 528.74414 C 2137.5246 531.58571 2135.1496 535.26211 2133.9082 536.91211 C 2132.6668 538.56211 2128.9728 543.74158 2125.6992 548.42383 C 2122.4257 553.10608 2114.4854 563.3837 2108.0547 571.26172 C 2101.6239 579.13974 2096.3613 585.99582 2096.3613 586.49805 C 2096.3613 588.21239 2099.3572 587.41332 2107.1113 583.62891 C 2115.0041 579.77678 2124.7012 573.88139 2127.3789 571.30859 C 2128.1944 570.52505 2131.3363 567.94535 2134.3613 565.57422 C 2137.3863 563.20308 2144.4788 556.72559 2150.1211 551.17969 C 2155.7634 545.63379 2160.5519 541.27954 2160.7637 541.50391 C 2161.7438 542.54238 2157.9178 565.27428 2154.3984 579.31836 C 2150.363 595.42132 2149.1228 604.44078 2150.8613 605.05469 C 2151.4113 605.24891 2152.5363 604.32915 2153.3613 603.01172 C 2154.1863 601.69429 2156.6972 598.20767 2158.9395 595.26367 C 2163.1538 589.73079 2168.4888 580.86509 2174.6504 569.1582 L 2178.2051 562.40625 L 2181.377 572.6582 C 2185.4079 585.6855 2191.0674 599.58452 2192.9277 601.02344 C 2194.1373 601.95913 2193.2423 604.72353 2187.2559 618.52344 C 2169.277 659.96839 2166.7601 666.41211 2168.5508 666.41211 C 2170.2362 666.41211 2190.8825 644.76198 2197.1602 636.41211 C 2200.2615 632.28711 2204.0079 627.48228 2205.4844 625.73633 C 2208.0848 622.66149 2208.1883 622.63011 2208.834 624.73633 C 2210.4554 630.02561 2210.5353 671.43774 2208.9668 693.55273 C 2207.1264 719.50155 2207.1351 719.27244 2208.127 717.88281 C 2208.5311 717.31671 2210.4926 715.51671 2212.4844 713.88281 C 2219.8394 707.84938 2235.4562 686.71171 2240.4492 676.0332 C 2242.0234 672.66667 2244.437 666.76211 2245.8125 662.91211 C 2247.9977 656.79566 2248.4029 656.22766 2249.0176 658.41211 C 2250.2127 662.65924 2258.4658 678.50848 2263.4902 686.20508 C 2275.1063 703.99922 2286.3727 715.86675 2298.7383 723.33594 C 2314.8894 733.09168 2353.5787 750.79426 2375.5234 758.46875 C 2378.8268 759.62401 2379.0955 759.98231 2378.2734 762.14453 C 2377.7723 763.46253 2377.3613 767.00451 2377.3613 770.01562 C 2377.3613 776.60781 2379.767 781.80433 2384.9082 786.31836 C 2386.9233 788.0877 2388.4121 789.66593 2388.2168 789.82617 C 2388.0215 789.98641 2378.6363 794.97372 2367.3613 800.9082 C 2343.7967 813.31114 2335.2058 818.0704 2319.8613 827.22266 C 2308.9677 833.72015 2306.3319 835.55277 2290.9297 847.33984 C 2286.5664 850.67895 2282.6872 853.41211 2282.3105 853.41211 C 2278.7913 853.41211 2236.9216 828.2661 2224.582 818.74219 C 2190.6311 792.53847 2159.5899 758.47824 2139.7031 725.60938 C 2131.3779 711.84953 2116.806 682.24786 2110.873 667.04297 C 2105.0806 652.19842 2099.6098 633.15213 2094.4648 609.91211 C 2088.7463 584.08222 2086.0541 549.18499 2088.002 526.14062 C 2088.4577 520.75023 2088.6502 519.20778 2089.5645 519.0957 z M 2405.6328 533.67188 C 2405.8858 533.59336 2406.381 534.02529 2407.3438 534.89648 C 2408.9557 536.35536 2410.3367 536.5719 2414.7207 536.05664 C 2420.0794 535.42683 2420.1167 535.44268 2420.7031 538.375 C 2421.4004 541.86119 2425.6064 544.41211 2430.6562 544.41211 C 2434.4482 544.41211 2436.4978 542.63621 2438.7773 537.38086 L 2440.2832 533.91211 L 2440.3203 538.41211 C 2440.3662 543.9062 2437.7242 549.51354 2434.3613 551.05859 C 2424.691 555.50146 2413.1779 551.52098 2407.627 541.81641 C 2406.3986 539.66869 2405.387 536.82861 2405.377 535.50586 C 2405.369 534.33839 2405.3798 533.75039 2405.6328 533.67188 z M 2491.4277 537.40039 L 2494.1445 539.22656 C 2495.6387 540.23135 2500.6863 543.58429 2505.3613 546.67578 C 2510.0363 549.76727 2516.4577 554.93138 2519.6309 558.15234 L 2525.4004 564.00781 L 2523.8203 571.96094 C 2521.7783 582.22946 2520.1567 586.35334 2515.4492 593.26562 C 2513.3347 596.37063 2510.6788 599.74172 2509.5469 600.75781 C 2507.1655 602.89553 2507.3447 603.5056 2505.377 586.57031 C 2504.3105 577.39154 2497.1226 550.68469 2493.3496 541.88281 L 2491.4277 537.40039 z M 2564.3613 540.83398 C 2564.7366 540.97245 2565.2192 541.39749 2565.9062 541.84766 C 2574.3479 547.37892 2594.0304 554.0391 2610.4824 556.93164 C 2614.9762 557.72172 2618.8873 558.60414 2619.1738 558.89062 C 2620.0971 559.81392 2607.9739 576.81075 2596.334 590.91211 C 2592.702 595.31211 2588.8845 600.35779 2587.8516 602.125 C 2585.8776 605.50221 2584.9844 605.83396 2574.8613 606.94727 C 2563.7154 608.17306 2560.7078 610.54448 2546.7383 629.11914 C 2539.2197 639.11628 2536.3613 642.41896 2536.3613 641.11133 C 2536.3613 640.88133 2537.9173 637.32569 2539.8184 633.21094 C 2545.8455 620.16613 2558.2767 574.57677 2561.3047 554.41211 C 2563.0804 542.5864 2563.2356 540.41858 2564.3613 540.83398 z M 2419.6074 559.85547 C 2418.9414 559.91284 2418.8603 560.1015 2419.3613 560.42188 C 2420.722 561.29199 2430.2586 561.89668 2429.2793 561.05078 C 2429.0501 560.85284 2426.3863 560.41418 2423.3613 560.07617 C 2421.5242 559.87089 2420.2734 559.7981 2419.6074 559.85547 z M 2258.5664 567.91211 L 2259.3359 571.1543 C 2260.6303 576.60698 2264.3024 579.55941 2271.4609 580.90234 C 2275.8066 581.71761 2277.356 580.17523 2277.5566 574.83984 L 2277.6992 571.03711 L 2281.1191 574.97461 C 2284.0628 578.36385 2284.4689 579.44298 2284.0352 582.73828 C 2283.7581 584.84346 2282.707 587.47818 2281.6992 588.5918 C 2278.1772 592.48349 2275.2175 593.38998 2271.3496 591.76367 C 2269.4393 590.96045 2266.8005 589.31531 2265.4863 588.10742 C 2261.9729 584.87832 2258.3654 576.54939 2258.4727 571.91211 L 2258.5664 567.91211 z M 2574.3848 568.06641 C 2569.7097 568.29549 2567.7355 570.75206 2565.8125 578.73438 C 2564.8616 582.68123 2563.4711 587.12614 2562.7227 588.61133 C 2561.9742 590.09652 2561.3691 591.67152 2561.3691 592.11133 C 2561.3896 594.59872 2565.4982 586.05359 2566.9609 580.48242 C 2567.9098 576.86837 2569.0806 573.12461 2569.5605 572.16211 C 2570.7879 569.70035 2575.8701 569.93147 2579.707 572.625 L 2582.8613 574.83984 L 2580.2012 571.375 C 2578.0809 568.61393 2576.8996 567.94319 2574.3848 568.06641 z M 2212.3613 606.85156 C 2212.3613 604.41624 2229.0857 623.1829 2232.2441 629.16211 C 2232.8977 630.39961 2233.2805 631.41211 2233.0938 631.41211 C 2231.8953 631.41211 2223.3285 625.09666 2220.7207 622.29102 C 2217.8935 619.24938 2212.3613 609.03207 2212.3613 606.85156 z M 2291.3613 610.61719 C 2282.6254 610.3144 2271.5778 612.19994 2265.8613 614.9707 L 2262.8613 616.42578 L 2266.8613 615.97266 C 2269.0613 615.72414 2275.5863 615.01194 2281.3613 614.38867 C 2287.1363 613.7654 2293.6613 612.72853 2295.8613 612.08398 C 2299.7663 610.93988 2299.6595 610.90482 2291.3613 610.61719 z M 2411.918 663.24805 C 2374.7348 663.25328 2349.8091 669.63448 2325.9844 685.24805 C 2321.6513 688.08773 2317.6857 690.41211 2317.1738 690.41211 C 2316.6619 690.41211 2316.5064 690.83685 2316.8281 691.35742 C 2317.5301 692.49324 2321.3882 691.18343 2334.3613 685.40234 C 2347.2055 679.67867 2361.8022 674.81038 2373.8613 672.22852 C 2382.576 670.36271 2387.9742 670.03332 2415.8613 669.66797 C 2434.3423 669.42585 2448.2808 668.84373 2448.8535 668.28906 C 2451.8856 665.35241 2436.4436 663.24505 2411.918 663.24805 z M 2696.0488 700.125 C 2707.5381 700.05499 2718.8676 700.47036 2726.0391 701.39844 L 2736.2168 702.7168 L 2731.123 710.31445 C 2710.5501 741.00277 2679.9787 775.6923 2650.8613 801.38867 C 2634.5311 815.80018 2604.5103 836.11247 2583.3613 847.05859 C 2554.2957 862.10212 2512.046 877.32923 2492.3613 879.85742 L 2487.8613 880.43555 L 2492.3477 876.67383 C 2494.8144 874.60454 2499.1315 870.88711 2501.9414 868.41211 C 2504.7512 865.93711 2511.0566 860.4748 2515.9551 856.27539 C 2520.8536 852.07598 2529.8113 844.39507 2535.8613 839.20508 C 2555.6384 822.23927 2589.042 796.62533 2608.9531 783.1582 C 2619.1023 776.29366 2630.3987 770.04715 2650.7441 760.04688 C 2666.0791 752.50937 2678.3712 746.08795 2678.0605 745.77734 C 2677.1795 744.89631 2670.7306 747.28933 2660.3613 752.3457 C 2646.9964 758.86282 2635.2553 763.63993 2634.502 762.86719 C 2633.8597 762.20825 2635.526 760.61664 2649.3613 748.6875 C 2657.9829 741.25373 2660.9191 739.53418 2667.8613 737.85156 C 2670.6113 737.18503 2678.1754 735.01329 2684.6699 733.02539 C 2691.1643 731.03749 2697.3518 729.41211 2698.4199 729.41211 C 2699.4879 729.41211 2700.3613 728.96211 2700.3613 728.41211 C 2700.3613 727.86211 2699.9417 727.41211 2699.4277 727.41211 C 2697.3308 727.41211 2684.4389 730.42726 2678.3613 732.33984 C 2674.7863 733.46487 2670.0603 734.39144 2667.8594 734.39844 C 2664.0293 734.41079 2648.8812 738.43281 2626.3613 745.41797 C 2613.0509 749.54654 2598.1314 755.40329 2577.3613 764.65039 C 2540.883 780.89103 2499.3743 806.50267 2471.8613 829.74609 C 2457.2809 842.06384 2427.9151 871.96749 2420.3867 882.16211 C 2418.1502 885.19066 2417.6068 885.40179 2412.4238 885.27734 C 2400.3466 884.98736 2366.7857 880.39364 2350.3613 876.78125 C 2330.8018 872.47933 2301.3613 863.23889 2301.3613 861.40234 C 2301.3613 860.97491 2301.9932 860.38356 2302.7637 860.08789 C 2303.5342 859.79222 2311.7467 854.50529 2321.0137 848.33984 C 2336.2075 838.2312 2369.888 818.23194 2382.375 811.9043 C 2385.0483 810.54967 2390.2198 808.31819 2393.8672 806.94531 C 2397.5146 805.57242 2403.0634 802.86519 2406.1992 800.92969 C 2409.3349 798.99419 2412.2293 797.41211 2412.6309 797.41211 C 2413.0326 797.41211 2413.367 799.99961 2413.377 803.16211 C 2413.3854 806.32461 2413.7415 809.4615 2414.168 810.13281 C 2414.5945 810.80411 2416.9498 812.05719 2419.4023 812.91797 C 2428.8732 816.24198 2430.7072 817.4619 2428.3828 818.89844 C 2425.2684 820.82329 2406.3497 846.41211 2408.041 846.41211 C 2408.4285 846.41211 2416.6477 838.63067 2426.3047 829.12109 C 2489.84 766.55538 2534.0866 737.19731 2594.3613 717.61719 C 2616.9789 710.2699 2640.7207 704.95268 2665.0996 701.77148 C 2672.9116 700.75211 2684.5595 700.19501 2696.0488 700.125 z M 1897.916 1023.0273 C 1897.7666 1022.8791 1897.6621 1024.1434 1897.6621 1026.4121 C 1897.6621 1029.4371 1897.849 1030.6746 1898.0781 1029.1621 C 1898.3073 1027.6496 1898.3073 1025.1746 1898.0781 1023.6621 C 1898.0208 1023.284 1897.9658 1023.0768 1897.916 1023.0273 z "
           d="m 2531.8613,152.66211 -12,6.87305 c -25.8031,14.77963 -40.457,18.63285 -87,22.8789 -46.1051,4.20609 -83.1083,11.48037 -116.8925,22.98047 -33.3534,11.35348 -69.0122,29.94066 -93.4708,48.7207 -5.2994,4.06907 -11.8867,9.11019 -14.6367,11.20118 -25.4048,19.3168 -60.765,59.6379 -82.0801,93.5957 -13.959,22.23853 -31.0391,59.69129 -38.3085,84 -9.6524,32.27738 -14.8881,84.17454 -12.2071,121 1.3566,18.63362 5.9984,49.46111 9.711,64.5 4.3331,17.55247 14.2394,46.64036 21.3437,62.66797 17.6011,39.70881 41.936,75.15644 73.0391,106.39062 25.8384,25.94714 56.3246,47.95946 91.5019,66.07032 40.0347,20.61167 80.5148,31.0849 134.7735,34.87109 16.1574,1.12746 47.8273,0.42126 65.041,-1.45117 27.5117,-2.99261 57.6865,-10.64404 86.1855,-21.85352 16.0338,-6.30654 48.4198,-22.29777 54.5,-26.91015 2.475,-1.87752 9,-6.50209 14.5,-10.27735 26.2241,-18.0005 48.8263,-38.24328 81.1035,-72.63672 22.5957,-24.07724 47.9826,-64.72403 59.9551,-95.99414 16.3114,-42.60307 23.4547,-81.04231 23.4317,-126.09961 -0.017,-33.35831 -3.1357,-59.15855 -10.9121,-90.27734 -10.729,-42.93361 -25.7689,-75.70316 -53.0079,-115.5 -11.2949,-16.50207 -19.8409,-26.61042 -36.6562,-43.35156 -33.3857,-33.23857 -81.1261,-65.91255 -120.1445,-82.22852 -11.9221,-4.98536 -41.2933,-15.94631 -45.3809,-16.93555 l -2.6113,-0.63281 3.9375,-10.02929 c 4.4168,-11.25154 7.0318,-22.32419 6.584,-27.86915 z m -23.5,30.64844 c 0,0.43827 -2.5875,3.23632 -5.75,6.21875 -5.5724,5.25516 -8.7376,7.49542 -29.5488,20.90039 -13.6579,8.79742 -14.8584,10.39925 -14.4922,19.35742 l 0.291,7.125 7,0.23633 c 20.4104,0.69355 41.3331,4.2653 69,11.77929 18.9507,5.14679 53.7079,13.01141 69.0215,15.61719 8.9916,1.53005 12.0201,0.33661 15.1426,-5.96484 0.09,-0.1817 5.4084,3.60922 11.8184,8.42383 l 11.6542,8.7539 -14.8183,3.36133 c -8.15,1.84847 -19.0934,4.35755 -24.3184,5.57617 -8.6357,2.01409 -11.8656,2.20183 -35.5,2.06641 -17.4112,-0.0998 -28.9731,-0.63338 -35,-1.61524 -4.95,-0.80641 -9.0994,-1.38987 -9.2207,-1.29687 -0.1213,0.093 3.9287,3.16795 9,6.83398 18.8722,13.6427 24.7841,18.78852 49.084,42.72461 13.6814,13.47649 25.3839,24.95513 26.0059,25.50782 18.8326,16.73166 36.1629,28.6857 53.1308,36.64843 4.3605,2.04633 4.6802,2.38851 2.5,2.66797 -1.375,0.17625 -6.55,1.40126 -11.5,2.72266 -21.2345,5.66855 -50.8702,8.4474 -90,8.4414 -47.8908,-0.008 -72.7504,-4.53862 -102.1972,-18.62695 -11.1716,-5.34488 -13.3028,-6.07515 -13.3028,-4.55469 0,1.42343 5.8088,9.50224 12.0059,16.69727 10.2388,11.88761 17.1603,21.25221 30.6738,41.5 11.2583,16.86872 16.8312,26.20739 27.8672,46.70508 l 2.2637,4.20703 -2.9043,-0.58203 c -1.879,-0.3758 -2.9063,-0.16888 -2.9063,0.58593 0,1.25402 17.292,18.98545 22.8887,23.47071 3.0089,2.41142 3.2644,2.98325 2.293,5.11523 -0.6014,1.32002 -1.6203,6.35978 -2.2637,11.19922 -1.8235,13.71697 -0.9248,13.45651 -13.2285,3.83203 -10.5456,-8.24927 -13.216,-9.9388 -30.7969,-19.49023 -9.4407,-5.12896 -34.6375,-21.66488 -44.8926,-29.46094 -11.9022,-9.04826 -30.3904,-25.28569 -39.5566,-34.74023 -23.4345,-24.17161 -30.8098,-33.47636 -41.0879,-51.8418 -10.7427,-19.19551 -11.4945,-21.40742 -12.5664,-37 -1.1287,-16.41929 -1.9184,-18.90007 -2.8652,-9 -0.5184,5.42127 -1.9936,10.64789 -5.3243,18.85937 -8.7086,21.4704 -10.5653,31.11927 -9.9726,51.82422 0.5688,19.87077 4.921,33.0899 14.373,43.64844 5.347,5.97299 16.0957,13.21079 25.6231,17.25195 l 6.875,2.91602 -4.9981,0.66016 c -12.8137,1.69245 -30.204,-2.887 -44.2949,-11.66407 -19.8099,-12.3394 -44.2346,-33.63371 -51.418,-44.82812 -1.7533,-2.73224 -3.3456,-4.49229 -3.539,-3.91211 -0.5443,1.63305 6.4903,19.72896 11.5625,29.74414 2.5951,5.12406 4.4361,10.05596 4.2754,11.45312 -0.4098,3.5625 1.6939,19.57352 4.539,34.54688 3.8727,20.38149 10.6725,30.87054 24.2793,37.45312 l 6.834,3.30469 0.6192,6.67383 c 0.3411,3.67074 1.2559,8.78809 2.0332,11.37109 l 1.414,4.69727 h -3.4336 c -14.1098,0 -46.6713,-20.85664 -63.2285,-40.5 -10.6137,-12.59201 -17.0684,-22.5139 -26.6035,-40.89258 -4.1467,-7.99257 -7.5391,-13.57758 -7.5391,-12.41211 0,1.16547 -2.6353,6.65995 -5.8574,12.21094 -10.6435,18.33635 -19.8663,44.24913 -21.6445,60.8125 -0.6281,5.85015 1.3241,20.1132 3.9394,28.78125 1.6196,5.368 12.2966,29.95592 13.7969,31.77344 0.5785,0.70079 0.7871,1.53711 0.4648,1.85937 -0.5853,0.58531 -9.244,-7.019 -15.5214,-13.63281 -11.4604,-12.07446 -20.4066,-31.02356 -24.5528,-52 -3.8071,-19.26053 -4.4797,-45.25596 -1.5254,-59.03125 0.6027,-2.80944 0.8561,-5.34705 0.5625,-5.64063 -0.6542,-0.65425 -10.4861,2.55625 -25.3007,8.26172 -15.4401,5.94637 -20.7425,7.21833 -37.1641,8.91602 -7.8672,0.81332 -17.8436,2.3822 -22.168,3.48633 -4.3245,1.10413 -8.1128,2.00781 -8.4199,2.00781 -0.307,0 -0.3178,-1.2375 -0.023,-2.75 0.2944,-1.5125 0.8452,-6.55739 1.2246,-11.20899 l 0.6894,-8.45703 3.6309,-0.75195 c 9.7488,-2.01954 27.591,-13.32162 45.3105,-28.70312 23.7786,-20.64106 55.3355,-46.32646 59.2364,-48.21485 2.3315,-1.12866 8.1954,-5.64322 13.0312,-10.03125 12.3491,-11.20559 26.3716,-21.61469 36.1621,-26.8457 8.3759,-4.47527 17.838,-11.91919 15.2481,-11.9961 -0.7601,-0.0226 -2.7851,0.81162 -4.5,1.85352 -5.1857,3.15063 -30.2624,12.73944 -44.6192,17.0625 -15.1315,4.55633 -37.7003,9.04696 -45.4121,9.03516 -6.2124,-0.01 -17.0811,-2.67615 -29.1191,-7.14258 l -9.0313,-3.34961 2.0313,-3.27734 c 3.1267,-5.0447 24.948,-33.51676 33.8359,-44.14844 7.7053,-9.2171 8.153,-9.56861 15.0684,-11.81055 27.4378,-8.89531 65.7723,-16.26367 84.6035,-16.26367 8.8846,0 11.5296,-1.49494 4.2754,-2.41602 -5.885,-0.74724 -66.6582,-3.73626 -68.3047,-3.35937 -0.6583,0.15068 -1.3853,-0.23266 -1.6152,-0.85352 -1.3239,-3.57594 34.3625,-30.28064 58.5937,-43.8457 28.2113,-15.79328 64.976,-30.69083 90.0742,-36.5 5.225,-1.20937 10.7375,-2.58664 12.25,-3.06055 1.5125,-0.47391 2.75,-0.769 2.75,-0.65625 0,0.11275 -3.4875,3.8288 -7.75,8.25782 -4.2625,4.42902 -8.5279,9.43206 -9.4804,11.11718 l -1.7325,3.0625 7.9981,-2.25781 c 9.2039,-2.59719 22.2851,-8.63941 32.6484,-15.08203 17.3623,-10.79381 40.8349,-17.1397 69.8164,-18.87695 26.8455,-1.60921 34.5304,-3.0524 45.75,-8.58985 3.1625,-1.56086 5.75,-2.47929 5.75,-2.04101 z m 1.0235,24.42187 c 0.4863,0.0556 1.0102,0.23223 1.6621,0.48828 1.5483,0.60817 6.6394,1.99722 11.3144,3.08789 17.6386,4.11506 36.3431,11.43117 63.9512,25.01172 l 16.4492,8.0918 -8.9492,-0.0918 c -13.4831,-0.13596 -26.8355,-3.03086 -58.4512,-12.67773 -13.6928,-4.17806 -32.4784,-8.89542 -41.4883,-10.41797 -1.7069,-0.28844 -1.494,-0.67553 1.5,-2.72852 1.9191,-1.31587 5.5972,-4.41493 8.1739,-6.88671 3.2545,-3.12209 4.3789,-4.04365 5.8379,-3.87696 z m 153.0683,79.54102 15.291,15.81836 c 24.8632,25.72475 32.6099,35.2447 45.8399,56.32031 14.3085,22.79374 22.6252,40.22743 32.3222,67.75391 12.4798,35.42604 17.8336,60.88395 20.5547,97.74609 1.717,23.25986 1.2479,35.82071 -2.2031,59 -4.7643,31.99947 -9.5759,50.50671 -20.4551,78.67383 -3.5422,9.17121 -6.4414,17.15871 -6.4414,17.75 0,0.66722 -2.7505,1.07703 -7.25,1.08203 -3.9875,0.004 -9.95,0.43417 -13.25,0.95508 -3.3,0.52091 -13.425,1.43849 -22.5,2.03906 -43.4449,2.87513 -87.238,11.02209 -118.4238,22.0293 -4.6281,1.63351 -8.747,2.9707 -9.1523,2.9707 -0.4055,0 -0.3651,-10.9125 0.09,-24.25 0.4549,-13.3375 0.8623,-25.7125 0.9062,-27.5 0.044,-1.7875 0.4013,-3.25 0.793,-3.25 0.3917,0 3.3697,2.36987 6.6172,5.26758 7.6465,6.82289 14.4811,10.48346 22.8496,12.23437 3.7075,0.7757 6.9064,1.24599 7.1074,1.04492 0.2011,-0.20107 -1.6217,-2.19854 -4.0507,-4.4375 -2.429,-2.23896 -5.9235,-7.04049 -7.7657,-10.66992 -4.0326,-7.94481 -4.2289,-12.74588 -0.9668,-23.73437 l 2.2403,-7.54297 3.9453,2.85937 c 4.7039,3.40748 15.8403,7.24195 28.5605,9.83399 5.0875,1.0367 9.25,1.74314 9.25,1.57031 0,-0.17283 -2.5875,-4.72759 -5.75,-10.12109 -4.9589,-8.45722 -10.7695,-22.11911 -9.8144,-23.07422 0.1711,-0.17107 3.1801,0.13547 6.6875,0.67969 19.3601,3.00398 41.5561,2.1543 64.4101,-2.46485 7.1316,-1.44141 13.6203,-2.82613 14.418,-3.07812 0.7977,-0.252 -2.1785,-1.71633 -6.6133,-3.25196 -16.973,-5.8772 -37.0882,-18.29146 -51.0762,-31.52148 -8.732,-8.25891 -21.3141,-24.55464 -25.6992,-33.28516 -2.4469,-4.87173 -3.4054,-10.31753 -1.8125,-10.30273 0.4125,0.004 4.0712,1.13464 8.1289,2.51172 18.4723,6.2691 51.9099,9.15567 72.1211,6.22656 l 9.5,-1.37695 -5.5,-2.82227 c -20.0445,-10.2863 -35.9362,-26.90343 -41.5234,-43.41797 -2.7934,-8.25643 -3.1483,-11.59991 -1.1524,-10.83398 0.7277,0.27924 8.7152,0.13172 17.75,-0.32813 17.5421,-0.89286 24.6773,-2.38264 37.375,-7.80078 l 6.9493,-2.96484 -4.4493,-1.16797 c -25.0385,-6.57615 -47.209,-17.82848 -57.4394,-29.15234 -3.0667,-3.39449 -3.5114,-4.54757 -3.5234,-9.13282 -0.01,-2.88592 -0.2837,-6.25859 -0.6153,-7.49609 -0.5762,-2.14994 -0.338,-2.25 5.3828,-2.25 12.4346,0 36.0989,-5.35526 46.3047,-10.47852 4.4596,-2.2387 14.8435,-8.87462 14.8985,-9.52148 0.04,-0.46758 -16.1576,-4.04295 -34.4571,-7.60547 -9.257,-1.80214 -31.7752,-9.12495 -40.8008,-13.26758 -3.4094,-1.56487 -7.2287,-3.9695 -8.4882,-5.34375 l -2.2911,-2.49804 4.959,0.47656 c 10.916,1.04889 26.5319,-5.3131 46.543,-18.95899 2.0845,-1.42145 -0.1359,-1.61426 -7.9219,-0.6875 -15.6738,1.8656 -27.1588,1.17763 -41.7051,-2.50195 -29.6529,-7.50087 -54.2845,-19.34922 -81.1718,-39.04297 l -4.875,-3.57031 h 3.5605 c 1.9586,0 6.7872,-0.68027 10.7305,-1.50977 9.047,-1.90309 33.6533,-5.82538 49.9609,-7.96484 6.875,-0.90195 17.134,-2.32077 22.7969,-3.15234 z m -539.8222,104.23437 c 0.5578,-0.25495 2.0407,0.33577 4.9804,1.91407 7.5301,4.04273 12.6824,5.2003 26.25,5.89843 l 12,0.61719 -9,4.60547 c -10.6417,5.4436 -30.9258,13.28459 -39.7422,15.36328 -9.0225,2.12729 -9.1302,2.09351 -6.8242,-2.24414 5.2905,-9.95137 12.0664,-24.34022 12.0664,-25.62305 0,-0.26795 0.084,-0.44626 0.2696,-0.53125 z m 230.9375,21.62891 3.5097,6.88672 c 8.2141,16.12055 20.6504,32.98764 37.6192,51.02148 l 7.6543,8.13477 -2.5801,4.61523 c -2.811,5.02948 -3.2607,5.29656 -5.4453,3.23438 -0.8054,-0.7602 -3.9399,-2.17045 -6.9649,-3.13477 -3.025,-0.96431 -6.8459,-2.43575 -8.4922,-3.26953 -5.8677,-2.97183 -16.4866,-12.32216 -19.1445,-16.85742 -5.603,-9.56082 -8.1149,-24.49858 -6.8828,-40.9336 z m 289.4062,4.93945 c 1.1279,-0.13767 1.3373,0.62408 1.7656,3.30274 0.6809,4.25825 5.8227,12.36142 11.9961,18.9082 4.6023,4.88056 17.2353,13.43751 28.625,19.38867 l 7.5,3.91992 -13,-0.51562 c -13.2133,-0.52286 -38.72,-4.80831 -41.3144,-6.94141 -2.1774,-1.79023 3.4285,9.89491 11.8847,24.77344 8.1876,14.40589 17.6506,27.90963 22.9512,32.75 l 3.0098,2.75 h -2.9043 c -18.1644,0 -59.0835,-17.22819 -75.0684,-31.60547 -3.2565,-2.92895 -5.1079,-4.09119 -4.6094,-2.89453 0.4582,1.1 1.4447,4.25 2.1934,7 2.8817,10.584 9.6586,29.31611 13.1289,36.29297 2.3138,4.65166 5.5263,9.08844 8.8692,12.25 3.1922,3.01905 4.5801,4.90708 3.5507,4.83008 -25.0377,-1.87392 -56.4439,-15.46817 -80.5039,-34.84571 -4.2976,-3.46117 -8.4291,-7.24548 -9.1816,-8.41015 -0.7525,-1.16467 -1.8626,-5.94219 -2.4649,-10.61719 -0.6024,-4.675 -1.5566,-10.75 -2.1211,-13.5 -0.5646,-2.75 -1.871,-11.61319 -2.9023,-19.69531 -1.1539,-9.04203 -2.6708,-16.49581 -3.9453,-19.37696 -1.1392,-2.57529 -2.0723,-4.743 -2.0723,-4.8164 0,-0.0734 4.3754,0.29086 9.7227,0.80859 11.0436,1.06926 33.4196,-0.29404 57.6484,-3.51172 15.8495,-2.10489 51.3774,-8.37616 55.7656,-9.84375 0.6221,-0.20804 1.1006,-0.3545 1.4766,-0.40039 z m -508.9902,17.57031 c 0.75,-0.20211 -0.4364,2.21672 -4.1758,9.00196 -4.554,8.26352 -13.2965,18.27082 -18.9473,21.6914 -3.8555,2.33382 -16.9459,3.6776 -16.1718,1.66016 0.2858,-0.74462 1.417,-4.21859 2.5136,-7.7207 4.1029,-13.10253 4.4503,-13.57855 10.8907,-14.91211 7.7845,-1.61187 22.357,-6.79019 24.5175,-8.71094 0.6581,-0.58499 1.1231,-0.94239 1.3731,-1.00977 z m 170.5644,43.57032 2.6563,2.52734 c 11.1499,10.61122 30.585,21.39383 40.541,22.49219 l 6.1152,0.67578 -3.5,2.11133 c -1.925,1.16131 -5.9859,4.31131 -9.0234,7 -3.0376,2.6887 -7.0876,6.12055 -9,7.62695 -3.2247,2.53998 -3.3068,2.7397 -1.1504,2.75 4.346,0.0207 22.7121,-7.92539 28.834,-12.47461 4.5893,-3.41039 7.667,-4.82705 12.9316,-5.95117 10.9473,-2.33753 24.8119,-7.41367 40.0254,-14.6543 l 4.1172,-1.95898 3.3828,3.18555 c 1.8604,1.75228 5.3139,4.42036 7.6738,5.92773 l 4.2911,2.74023 -9.2911,4.95899 c -14.964,7.9863 -25.9671,14.24734 -30.791,17.52344 -15.6607,10.63562 -28.9829,19.34209 -32,20.91211 l -3.5,1.82031 4,-0.63086 c 3.3689,-0.53213 18.4423,-5.09838 23.5,-7.11914 0.825,-0.32962 -3.3755,4.52574 -9.334,10.78906 -5.9586,6.26332 -11.3105,12.29874 -11.8945,13.41406 -1.0063,1.92187 -0.9625,1.94286 0.834,0.375 1.0425,-0.90987 4.8952,-3.65892 8.5625,-6.10742 6.7012,-4.47404 15.3361,-11.5938 23.6309,-19.48828 2.4561,-2.3375 4.6312,-4.25 4.8339,-4.25 0.2026,0 0.3672,0.84232 0.3672,1.87305 0,3.74711 5.2451,11.3246 9.8672,14.25586 8.0239,5.08862 15.1906,6.09257 23.4414,3.28125 12.9743,-4.42079 15.2157,-20.15418 4.9531,-34.76758 l -3.4101,-4.85547 2.248,-2.39453 c 1.2369,-1.31662 2.6928,-2.39258 3.2344,-2.39258 0.5417,0 3.3195,1.76294 6.1738,3.91797 2.8543,2.15502 8.2961,5.80413 12.0918,8.10937 3.7956,2.30525 8.3503,5.27935 10.1211,6.60938 l 3.2188,2.41797 -6.2188,6.27734 c -10.3184,10.41282 -22.5595,19.61136 -29.4824,22.1543 -2.0552,0.75505 -3.0023,1.40456 -2.1035,1.44336 2.9018,0.12511 17.1912,-7.71257 23.4043,-12.83594 3.3215,-2.73889 7.5461,-7.07875 9.3887,-9.64453 l 3.3515,-4.66406 2.2227,6.85742 c 3.0331,9.35081 5.5708,15.47563 10.748,25.95703 2.4177,4.8947 5.2267,11.15039 6.2442,13.90039 1.0174,2.75 2.168,5.45 2.5566,6 1.4621,2.06956 3.303,22.56563 3.375,37.58008 l 0.074,15.58203 4.6895,-2.87891 c 6.0878,-3.73886 9.4173,-7.62549 19.0644,-22.24609 4.3688,-6.62124 8.1738,-12.26211 8.4551,-12.53711 0.2812,-0.275 0.3006,5.575 0.043,13 -0.3459,9.96976 -1.21,16.69514 -3.3028,25.72266 l -2.8339,12.22461 -9.7559,8.07031 c -27.4376,22.69393 -81.3228,61.50003 -117.0371,84.28515 h -0 c -6.9242,4.4175 -9.4317,5.02414 -13.3203,3.22461 -1.65,-0.76357 -10.65,-4.80005 -20,-8.9707 -19.6282,-8.75536 -43.3921,-21.30948 -55.1738,-29.14648 -11.5178,-7.66149 -21.9731,-21.32208 -31.3105,-40.91016 -13.1522,-27.59112 -13.5762,-28.60198 -23.4004,-56 -3.5499,-9.9 -6.7804,-18.9 -7.1797,-20 -0.4811,-1.32551 0.757,-0.60296 3.6699,2.14453 5.1043,4.81434 14.589,10.35547 17.7266,10.35547 3.2113,0 2.6112,-1.19871 -2.002,-4 -2.2643,-1.375 -7.8805,-6.16937 -12.4785,-10.6543 -6.6279,-6.46495 -9.1104,-9.73729 -11.9844,-15.78906 -1.9938,-4.19831 -3.4545,-7.72895 -3.2461,-7.8457 0.2084,-0.11675 4.7433,-0.0691 10.0781,0.10547 l 9.7012,0.31836 -0.9512,2.49609 c -3.4965,9.19664 4.2349,21.90232 15.5196,25.50391 5.8683,1.87286 7.7269,1.51528 11.4355,-2.19336 3.5964,-3.59642 5.4025,-10.18136 5.5098,-20.08008 0.06,-5.50283 0.3887,-7.48806 1.0859,-6.55469 0.55,0.73624 3.25,2.61272 6,4.16797 2.75,1.55526 7.025,4.07297 9.5,5.5957 17.3858,10.69652 52,27.3598 52,25.0332 0,-0.37406 -2.2719,-2.91325 -5.0488,-5.64257 -6.2204,-6.11397 -10.498,-12.63807 -12.375,-18.875 -1.2239,-4.0664 -1.2271,-4.66652 -0.019,-4.20313 1.1479,0.44041 1.3685,-0.88914 1.1894,-7.17187 -0.1209,-4.24166 0.1702,-11.34576 0.6465,-15.78711 l 0.8652,-8.07422 -2.8789,-1.08203 c -1.5836,-0.59502 -5.5713,-1.91214 -8.8613,-2.92578 -5.0564,-1.55786 -6.5438,-2.59211 -9.6191,-6.6875 -2.0009,-2.66471 -4.4398,-7.20411 -5.42,-10.08789 -1.3521,-3.97776 -2.4435,-5.4942 -4.5234,-6.2793 -1.508,-0.56918 -3.4922,-2.17818 -4.4082,-3.57617 -1.9289,-2.94387 -3.3001,-15.23507 -2.7402,-24.5586 z m -61.8965,28.35351 c 1.0463,-0.0208 5.2222,8.19701 7.7676,15.66602 2.712,7.95768 10.5065,19.69891 16.8848,25.43359 l 4.8887,4.39649 -17.9766,-0.13477 c -9.8872,-0.0733 -18.2006,0.2305 -18.4746,0.67383 -0.274,0.44333 -0.9846,0.80664 -1.5781,0.80664 -2.225,0 1.2356,-21.80391 5.7617,-36.30273 1.3395,-4.2909 2.4564,-8.79089 2.4824,-10 0.01,-0.36549 0.095,-0.5361 0.2441,-0.53907 z m -153.0878,11.52539 c 0.3047,-0.0373 0.6898,0.0847 1.1914,0.27539 1.8516,0.70398 13.5061,1.69169 43.2812,3.66602 l 8.1738,0.54101 -3.0234,5.16602 c -1.6629,2.84157 -4.0379,6.51797 -5.2793,8.16797 -1.2414,1.65 -4.9354,6.82947 -8.209,11.51172 -3.2735,4.68225 -11.2138,14.95987 -17.6445,22.83789 -6.4308,7.87802 -11.6934,14.7341 -11.6934,15.23633 0,1.71434 2.9959,0.91527 10.75,-2.86914 7.8928,-3.85213 17.5899,-9.74752 20.2676,-12.32032 0.8155,-0.78354 3.9574,-3.36324 6.9824,-5.73437 3.025,-2.37114 10.1175,-8.84863 15.7598,-14.39453 5.6423,-5.5459 10.4308,-9.90015 10.6426,-9.67578 0.9801,1.03847 -2.8459,23.77037 -6.3653,37.81445 -4.0354,16.10296 -5.2756,25.12242 -3.5371,25.73633 0.55,0.19422 1.675,-0.72554 2.5,-2.04297 0.825,-1.31743 3.3359,-4.80405 5.5782,-7.74805 4.2143,-5.53288 9.5493,-14.39858 15.7109,-26.10547 l 3.5547,-6.75195 3.1719,10.25195 c 4.0309,13.0273 9.6904,26.92632 11.5507,28.36524 1.2096,0.93569 0.3146,3.70009 -5.6718,17.5 -17.9789,41.44495 -20.4958,47.88867 -18.7051,47.88867 1.6854,0 22.3317,-21.65013 28.6094,-30 3.1013,-4.125 6.8477,-8.92983 8.3242,-10.67578 2.6004,-3.07484 2.7039,-3.10622 3.3496,-1 1.6214,5.28928 1.7013,46.70141 0.1328,68.8164 -1.8404,25.94882 -1.8317,25.71971 -0.8398,24.33008 0.4041,-0.5661 2.3656,-2.3661 4.3574,-4 7.355,-6.03343 22.9718,-27.1711 27.9648,-37.84961 1.5742,-3.36653 3.9878,-9.27109 5.3633,-13.12109 2.1852,-6.11645 2.5904,-6.68445 3.2051,-4.5 1.1951,4.24713 9.4482,20.09637 14.4726,27.79297 11.6161,17.79414 22.8825,29.66167 35.2481,37.13086 16.1511,9.75574 54.8404,27.45832 76.7851,35.13281 3.3034,1.15526 3.5721,1.51356 2.75,3.67578 -0.5011,1.318 -0.9121,4.85998 -0.9121,7.87109 0,6.59219 2.4057,11.78871 7.5469,16.30274 2.0151,1.76934 3.5039,3.34757 3.3086,3.50781 -0.1953,0.16024 -9.5805,5.14755 -20.8555,11.08203 -23.5646,12.40294 -32.1555,17.1622 -47.5,26.31446 -10.8936,6.49749 -13.5294,8.33011 -28.9316,20.11718 -4.3633,3.33911 -8.2425,6.07227 -8.6192,6.07227 -3.5192,0 -45.3889,-25.14601 -57.7285,-34.66992 -33.9509,-26.20372 -64.9921,-60.26395 -84.8789,-93.13281 -8.3252,-13.75985 -22.8971,-43.36152 -28.8301,-58.56641 -5.7924,-14.84455 -11.2632,-33.89084 -16.4082,-57.13086 -5.7185,-25.82989 -8.4107,-60.72712 -6.4628,-83.77149 0.4557,-5.39039 0.6482,-6.93284 1.5625,-7.04492 z m 316.0683,14.57618 c 0.253,-0.0785 0.7482,0.35341 1.711,1.2246 1.6119,1.45888 2.9929,1.67542 7.3769,1.16016 5.3587,-0.62981 5.396,-0.61396 5.9824,2.31836 0.6973,3.48619 4.9033,6.03711 9.9531,6.03711 3.792,0 5.8416,-1.7759 8.1211,-7.03125 l 1.5059,-3.46875 0.037,4.5 c 0.046,5.49409 -2.5961,11.10143 -5.959,12.64648 -9.6703,4.44287 -21.1834,0.46239 -26.7343,-9.24218 -1.2284,-2.14772 -2.24,-4.9878 -2.25,-6.31055 -0.01,-1.16747 0,-1.75547 0.2558,-1.83398 z m 85.7949,3.72851 2.7168,1.82617 c 1.4942,1.00479 6.5418,4.35773 11.2168,7.44922 4.675,3.09149 11.0964,8.2556 14.2696,11.47656 l 5.7695,5.85547 -1.5801,7.95313 c -2.042,10.26852 -3.6636,14.3924 -8.3711,21.30468 -2.1145,3.10501 -4.7704,6.4761 -5.9023,7.49219 -2.3814,2.13772 -2.2022,2.74779 -4.1699,-14.1875 -1.0665,-9.17877 -8.2544,-35.88562 -12.0274,-44.6875 z m 72.9336,3.43359 c 0.3753,0.13847 0.8579,0.56351 1.5449,1.01368 8.4417,5.53126 28.1242,12.19144 44.5762,15.08398 4.4938,0.79008 8.4049,1.6725 8.6914,1.95898 0.9233,0.9233 -11.1999,17.92013 -22.8398,32.02149 -3.632,4.4 -7.4495,9.44568 -8.4824,11.21289 -1.974,3.37721 -2.8672,3.70896 -12.9903,4.82227 -11.1459,1.22579 -14.1535,3.59721 -28.123,22.17187 -7.5186,9.99714 -10.377,13.29982 -10.377,11.99219 0,-0.23 1.556,-3.78564 3.4571,-7.90039 6.0271,-13.04481 18.4583,-58.63417 21.4863,-78.79883 1.7757,-11.82571 1.9309,-13.99353 3.0566,-13.57813 z m -144.7539,19.02149 c -0.666,0.0574 -0.7471,0.24603 -0.2461,0.56641 1.3607,0.87011 10.8973,1.4748 9.918,0.6289 -0.2292,-0.19794 -2.893,-0.6366 -5.918,-0.97461 -1.8371,-0.20528 -3.0879,-0.27807 -3.7539,-0.2207 z m -161.041,8.05664 0.7695,3.24219 c 1.2944,5.45268 4.9665,8.40511 12.125,9.74804 4.3457,0.81527 5.8951,-0.72711 6.0957,-6.0625 l 0.1426,-3.80273 3.4199,3.9375 c 2.9437,3.38924 3.3498,4.46837 2.9161,7.76367 -0.2771,2.10518 -1.3282,4.7399 -2.336,5.85352 -3.522,3.89169 -6.4817,4.79818 -10.3496,3.17187 -1.9103,-0.80322 -4.5491,-2.44836 -5.8633,-3.65625 -3.5134,-3.2291 -7.1209,-11.55803 -7.0136,-16.19531 z m 315.8184,0.1543 c -4.6751,0.22908 -6.6493,2.68565 -8.5723,10.66797 -0.9509,3.94685 -2.3414,8.39176 -3.0898,9.87695 -0.7485,1.48519 -1.3536,3.06019 -1.3536,3.5 0.021,2.48739 4.1291,-6.05774 5.5918,-11.62891 0.9489,-3.61405 2.1197,-7.35781 2.5996,-8.32031 1.2274,-2.46176 6.3096,-2.23064 10.1465,0.46289 l 3.1543,2.21484 -2.6601,-3.46484 c -2.1203,-2.76107 -3.3016,-3.43181 -5.8164,-3.30859 z m -362.0235,38.78515 c 0,-2.43532 16.7244,16.33134 19.8828,22.31055 0.6536,1.2375 1.0364,2.25 0.8497,2.25 -1.1985,0 -9.7653,-6.31545 -12.3731,-9.12109 -2.8272,-3.04164 -8.3594,-13.25895 -8.3594,-15.43946 z m 79,3.76563 c -8.7359,-0.30279 -19.7835,1.58275 -25.5,4.35351 l -3,1.45508 4,-0.45312 c 2.2,-0.24852 8.725,-0.96072 14.5,-1.58399 5.775,-0.62327 12.3,-1.66014 14.5,-2.30469 3.905,-1.1441 3.7982,-1.17916 -4.5,-1.46679 z m 120.5567,52.63086 c -37.1832,0.005 -62.1089,6.38643 -85.9336,22 -4.3331,2.83968 -8.2987,5.16406 -8.8106,5.16406 -0.5119,0 -0.6674,0.42474 -0.3457,0.94531 0.702,1.13582 4.5601,-0.17399 17.5332,-5.95508 12.8442,-5.72367 27.4409,-10.59196 39.5,-13.17382 8.7147,-1.86581 14.1129,-2.1952 42,-2.56055 18.481,-0.24212 32.4195,-0.82424 32.9922,-1.37891 3.0321,-2.93665 -12.4099,-5.04401 -36.9355,-5.04101 z m 284.1308,36.87695 c 11.4893,-0.07 22.8188,0.34536 29.9903,1.27344 l 10.1777,1.31836 -5.0938,7.59765 c -20.5729,30.68832 -51.1443,65.37785 -80.2617,91.07422 -16.3302,14.41151 -46.351,34.7238 -67.5,45.66992 -29.0656,15.04353 -71.3153,30.27064 -91,32.79883 l -4.5,0.57813 4.4864,-3.76172 c 2.4667,-2.06929 6.7838,-5.78672 9.5937,-8.26172 2.8098,-2.475 9.1152,-7.93731 14.0137,-12.13672 4.8985,-4.19941 13.8562,-11.88032 19.9062,-17.07031 19.7771,-16.96581 53.1807,-42.57975 73.0918,-56.04688 10.1492,-6.86454 21.4456,-13.11105 41.791,-23.11132 15.335,-7.53751 27.6271,-13.95893 27.3164,-14.26954 -0.881,-0.88103 -7.3299,1.51199 -17.6992,6.56836 -13.3649,6.51712 -25.106,11.29423 -25.8593,10.52149 -0.6423,-0.65894 1.024,-2.25055 14.8593,-14.17969 8.6216,-7.43377 11.5578,-9.15332 18.5,-10.83594 2.75,-0.66653 10.3141,-2.83827 16.8086,-4.82617 6.4944,-1.9879 12.6819,-3.61328 13.75,-3.61328 1.068,0 1.9414,-0.45 1.9414,-1 0,-0.55 -0.4196,-1 -0.9336,-1 -2.0969,0 -14.9888,3.01515 -21.0664,4.92773 -3.575,1.12503 -8.301,2.0516 -10.5019,2.0586 -3.8301,0.0123 -18.9782,4.03437 -41.4981,11.01953 -13.3104,4.12857 -28.2299,9.98532 -49,19.23242 -36.4783,16.24064 -77.987,41.85228 -105.5,65.0957 -14.5804,12.31775 -43.9462,42.2214 -51.4746,52.41602 -2.2365,3.02855 -2.7799,3.23968 -7.9629,3.11523 -12.0772,-0.28998 -45.6381,-4.8837 -62.0625,-8.49609 -19.5595,-4.30192 -49,-13.54236 -49,-15.37891 0,-0.42743 0.6319,-1.01878 1.4024,-1.31445 0.7705,-0.29567 8.983,-5.5826 18.25,-11.74805 15.1938,-10.10864 48.8743,-30.1079 61.3613,-36.43554 2.6733,-1.35463 7.8448,-3.58611 11.4922,-4.95899 3.6474,-1.37289 9.1962,-4.08012 12.332,-6.01562 3.1357,-1.9355 6.0301,-3.51758 6.4317,-3.51758 0.4017,0 0.7361,2.5875 0.7461,5.75 0.01,3.1625 0.3645,6.29939 0.791,6.9707 0.4265,0.6713 2.7818,1.92438 5.2343,2.78516 9.4709,3.32401 11.3049,4.54393 8.9805,5.98047 -3.1144,1.92485 -22.0331,27.51367 -20.3418,27.51367 0.3875,0 8.6067,-7.78144 18.2637,-17.29102 63.5353,-62.56571 107.7819,-91.92378 168.0566,-111.5039 22.6176,-7.34729 46.3594,-12.66451 70.7383,-15.84571 7.812,-1.01937 19.4599,-1.57647 30.9492,-1.64648 z m -798.1328,322.9023 c -0.1494,-0.1482 -0.2539,1.1161 -0.2539,3.3848 0,3.025 0.1869,4.2625 0.416,2.75 0.2292,-1.5125 0.2292,-3.9875 0,-5.5 -0.057,-0.3781 -0.1123,-0.5853 -0.1621,-0.6348 z"
           transform="translate(57.646688,-32.317083)" />
        <path
           style="fill:#f9bf04;fill-opacity:1;stroke:none;stroke-width:1.74687"
           d="m 1353.3747,571.23484 c -20.0618,-25.03861 -28.1881,-54.39447 -26.3146,-95.05927 0.771,-16.73376 0.4998,-20.67082 -1.4241,-20.67082 -1.3071,0 -11.1347,3.12422 -21.8392,6.94272 -12.1892,4.34813 -26.4179,7.91755 -38.0736,9.55118 -10.2359,1.43464 -21.2884,3.14978 -24.561,3.81141 l -5.9502,1.20298 1.1271,-6.82369 c 0.6199,-3.75303 1.1357,-8.07492 1.1463,-9.6042 0.012,-1.70196 2.6123,-3.55741 6.7041,-4.78335 10.4066,-3.11792 24.9469,-13.35504 56.2024,-39.56944 15.8528,-13.296 35.8982,-29.5521 44.5452,-36.12466 8.647,-6.57256 22.1078,-16.86236 29.9129,-22.86621 7.8051,-6.00385 19.0069,-13.9128 24.8929,-17.57546 12.3612,-7.69195 15.1223,-13.62543 4.151,-8.92025 -33.4089,14.32783 -62.4139,22.95612 -82.6615,24.58978 -10.8499,0.8754 -15.6436,0.34846 -26.7061,-2.93564 -7.4155,-2.2014 -13.9145,-4.70131 -14.4424,-5.55537 -0.979,-1.5842 15.9805,-25.01656 32.2471,-44.55446 8.3406,-10.01798 9.9938,-11.13212 21.6831,-14.61336 20.8131,-6.19842 51.7794,-12.23881 69.3023,-13.51832 9.9155,-0.72404 16.72,-2.00393 17.1227,-3.22072 0.7018,-2.12037 -7.771,-3.02413 -51.0459,-5.44483 l -22.7093,-1.27031 17.3007,-13.39385 c 21.8506,-16.91632 47.1072,-31.99151 72.7385,-43.41626 19.6554,-8.76107 49.0476,-19.27471 61.0267,-21.82935 l 6.0757,-1.29569 -4.7946,5.90362 c -7.5855,9.34 -10.5148,13.80912 -9.6308,14.69315 1.7432,1.74314 23.1668,-6.6911 43.6895,-17.20001 24.4544,-12.52222 37.2139,-15.93476 69.9357,-18.70439 20.2107,-1.71068 31.7871,-3.59573 38.9412,-6.34102 6.9455,-2.66522 -0.1535,3.45524 -17.53,15.11352 -19.4633,13.05849 -23.5831,17.37374 -23.5831,24.70224 0,9.2261 1.2878,10.2354 13.0596,10.2354 14.5036,0 35.2453,3.73999 72.4474,13.0632 46.7369,11.71271 67.9035,15.59061 72.8344,13.34391 2.2646,-1.03182 4.1175,-2.70445 4.1175,-3.71695 0,-1.0125 4.3443,1.4391 9.6541,5.448 5.3097,4.0089 9.4274,7.51558 9.1503,7.79263 -0.277,0.27705 -9.5344,2.66737 -20.572,5.31181 -17.6891,4.23807 -23.3331,4.79409 -47.6074,4.69008 -15.1465,-0.0649 -31.939,-0.66773 -37.3166,-1.33961 -6.1938,-0.77387 -9.5457,-0.5911 -9.1451,0.49868 0.3478,0.94616 7.9149,7.33592 16.8158,14.19947 8.9009,6.86355 28.9462,24.83993 44.5451,39.94751 31.2487,30.2644 44.5106,41.10349 63.6034,51.98401 l 12.7262,7.25234 -13.5027,2.86287 c -46.3952,9.83678 -117.1545,10.39553 -152.9581,1.20784 -7.5245,-1.93087 -21.126,-6.69159 -30.2256,-10.57936 -24.2838,-10.3752 -24.5687,-8.63687 -2.945,17.97314 13.1726,16.21016 35.2266,48.84601 46.7463,69.17608 6.2302,10.995 7.7408,14.98685 6.0636,16.0234 -2.68,1.6563 7.3776,14.70889 16.9734,22.02796 6.4862,4.94727 6.5398,5.35913 3.0722,23.57941 l -0.8854,4.65209 -13.4328,-9.64319 c -7.388,-5.30376 -16.9702,-11.43803 -21.2937,-13.63171 -15.4601,-7.84427 -50.4112,-32.16574 -68.3363,-47.55337 -43.0625,-36.96658 -71.8061,-77.1908 -74.1487,-103.76463 -1.3128,-14.8926 -2.2402,-19.00597 -4.2853,-19.00597 -0.9425,0 -1.7136,2.01861 -1.7136,4.48581 0,2.46719 -3.3409,14.06204 -7.4242,25.76631 -7.264,20.82125 -7.4209,21.75179 -7.2726,43.11639 0.1281,18.42526 0.7832,23.46265 4.1948,32.25115 4.6611,12.0075 16.3533,24.52401 27.6803,29.63176 9.3718,4.2261 9.305,6.59023 -0.1464,5.17304 -11.3844,-1.70707 -25.1673,-6.91625 -35.1053,-13.26792 -14.2242,-9.09117 -38.8913,-30.30312 -45.1809,-38.85239 -6.2583,-8.50685 -11.1426,-10.64156 -9.1926,-4.01771 0.6364,2.16175 3.9266,10.21919 7.3114,17.90541 4.3536,9.88597 7.1182,20.08198 9.4486,34.84694 1.8119,11.4796 4.5655,25.40225 6.1191,30.93924 3.2687,11.64975 11.8954,22.71132 21.5555,27.63952 5.6786,2.89699 6.6882,4.35163 7.5908,10.93666 0.5725,4.17738 1.5285,8.8655 2.1242,10.41803 3.1132,8.11269 -28.3019,-7.09632 -47.4519,-22.97299 -14.3151,-11.86816 -25.385,-26.08491 -39.063,-50.16736 -5.2842,-9.30391 -10.3938,-17.16049 -11.3546,-17.45907 -2.1392,-0.6648 -18.4711,32.7153 -23.6386,48.31411 -7.3194,22.09461 -6.3283,45.31449 2.8169,65.9933 2.3245,5.25624 4.2264,10.24509 4.2264,11.08631 0,3.20029 -3.0983,1.29316 -8.1576,-5.02125 z"
           id="path4397" />
        <path
           style="fill:#f9bf04;fill-opacity:1;stroke:none;stroke-width:1.74687"
           d="m 1722.0234,672.74617 c 0.611,-4.45761 1.1109,-15.84386 1.1109,-25.30279 v -17.19805 l 8.8948,6.73222 c 8.7945,6.65629 18.5374,10.68282 25.8492,10.68282 3.4376,0 3.1572,-0.77319 -3.1945,-8.80872 -8.1417,-10.30002 -10.0776,-18.09034 -7.1202,-28.6532 l 2.1351,-7.62565 5.4966,3.181 c 10.3577,5.99416 36.0669,11.47555 36.0669,7.68974 0,-0.56447 -2.6693,-5.87058 -5.9318,-11.79137 -10.5842,-19.20826 -12.2568,-17.74736 20.3644,-17.78696 24.8524,-0.0302 38.3669,-1.43996 52.4813,-5.47472 5.1043,-1.45911 2.6713,-4.04086 -7.8301,-8.30897 -19.9917,-8.12525 -41.8141,-23.3951 -54.2694,-37.97414 -7.7989,-9.12881 -20.5362,-28.62927 -20.5362,-31.44049 0,-0.73449 2.948,-0.29531 6.5512,0.97596 17.4228,6.14715 67.1449,9.61276 81.5669,5.6852 5.1393,-1.39961 5.1363,-1.40336 -6.1141,-7.72352 -14.4601,-8.12334 -30.2202,-23.86903 -35.724,-35.69151 -2.3766,-5.10494 -4.3287,-10.11807 -4.3381,-11.14029 -0.01,-1.10077 8.36,-2.6467 20.5281,-3.79149 18.6987,-1.75919 36.712,-6.51558 41.1865,-10.87522 0.8055,-0.78487 -5.0902,-3.58949 -13.1016,-6.23248 -17.5264,-5.78207 -29.2439,-11.44962 -40.2405,-19.46365 -8.1845,-5.96463 -8.91,-7.11298 -10.9611,-17.34865 l -1.0855,-5.41712 11.873,-1.05368 c 6.5302,-0.57952 16.5896,-2.29368 22.3542,-3.80925 16.7164,-4.39484 34.9739,-14.54548 31.8253,-17.69401 -0.5443,-0.54432 -9.5029,-2.7927 -19.908,-4.9964 -23.3951,-4.95484 -40.6815,-10.11168 -52.0952,-15.54086 l -8.7344,-4.15468 5.2406,-1.24696 c 13.3671,-3.1806 22.4524,-6.92606 32.4068,-13.35991 5.9353,-3.83619 10.3942,-7.37213 9.9087,-7.85765 -0.4855,-0.48552 -11.3843,-1.08807 -24.2194,-1.339 -21.0138,-0.41081 -24.9777,-1.01492 -39.8232,-6.06924 -19.7469,-6.72308 -39.7147,-16.50536 -56.5879,-27.72263 l -12.4068,-8.24802 22.8003,-3.80215 c 12.5401,-2.09119 33.1666,-5.21635 45.8366,-6.9448 l 23.0364,-3.14264 10.6376,10.38794 c 40.4513,39.50154 66.1297,79.69336 83.579,130.81778 14.5517,42.6347 19.9149,73.47714 19.9143,114.52408 -4e-4,39.15044 -5.8636,70.49298 -20.9815,112.16102 l -8.0536,22.19726 -7.2128,0.92598 c -3.9671,0.5093 -17.8251,1.75394 -30.7956,2.76587 -47.603,3.71389 -87.923,10.73231 -115.4576,20.09741 -6.9717,2.37122 -13.431,4.31131 -14.3541,4.31131 -0.9917,0 -1.2239,-3.31594 -0.5675,-8.10472 z"
           id="path4399" />
        <path
           style="fill:#f9bf04;fill-opacity:1;stroke:none;stroke-width:1.74687"
           d="m 1403.9012,812.93862 c -30.6178,-18.56566 -42.3183,-27.33823 -62.8901,-47.15237 -32.098,-30.91599 -50.0426,-54.89214 -68.1443,-91.0494 -18.2788,-36.51112 -25.8019,-58.10694 -33.4694,-96.07781 -6.8657,-34.00038 -8.4827,-86.28506 -2.5987,-84.02716 1.2495,0.47946 12.1386,1.41997 24.1981,2.09 12.0596,0.67004 21.9264,1.53547 21.9264,1.92317 0,2.6734 -7.5987,13.80177 -23.687,34.68975 -10.2311,13.28351 -18.9973,25.18169 -19.4803,26.44041 -1.4218,3.70516 4.0847,2.67006 14.8305,-2.7878 13.0946,-6.65084 21.9491,-13.21777 37.1245,-27.53355 l 12.4636,-11.75746 -1.1944,6.89858 c -0.6568,3.79422 -3.0801,15.45471 -5.385,25.91219 -4.75,21.5514 -5.2445,29.0253 -1.9203,29.0253 2.3797,0 17.9216,-22.48132 23.1441,-33.47807 l 3.0403,-6.4016 4.8039,13.38907 c 2.6422,7.364 5.8144,15.86205 7.0494,18.88456 2.1163,5.17935 1.524,7.20947 -10.2969,35.29058 -6.8984,16.3873 -12.5425,30.61877 -12.5425,31.62549 0,6.21375 10.3329,-2.85763 33.7316,-29.61357 l 8.402,-9.60746 -0.8798,46.72875 c -0.4839,25.70082 -0.2106,46.72876 0.6072,46.72876 5.098,0 30.4883,-34.73434 36.4097,-49.80893 l 3.2683,-8.32053 7.4153,13.77962 c 17.512,32.54198 29.9217,43.81313 69.1374,62.79433 16.3332,7.90562 34.6099,16.1351 40.6147,18.28773 l 10.9179,3.9139 v 8.25651 c 0,5.96894 1.2339,10.07477 4.4536,14.81913 2.4494,3.60945 4.2181,6.73433 3.9304,6.94422 -0.2877,0.20987 -9.9561,5.34111 -21.4855,11.40274 -30.6628,16.12121 -51.3181,28.50095 -67.1972,40.27457 -7.7285,5.73032 -14.2695,10.41878 -14.5355,10.41878 -0.2661,0 -10.059,-5.80609 -21.762,-12.90243 z"
           id="path4401" />
        <path
           style="fill:#f9bf04;fill-opacity:1;stroke:none;stroke-width:0.873435"
           d="m 1651.9678,570.32119 c -2.2322,-16.68863 -6.4445,-34.99268 -11.3323,-49.24347 -1.2234,-3.56696 -2.2244,-6.62504 -2.2244,-6.79573 0,-1.32575 20.426,13.96528 26.7543,20.02838 l 3.6082,3.45703 -1.6312,7.56266 c -0.8972,4.15946 -2.2487,9.20709 -3.0033,11.21696 -1.3141,3.49974 -6.2158,11.4285 -9.8655,15.95775 l -1.7271,2.14337 z"
           id="path6051" />
        <path
           style="fill:#f9bf04;fill-opacity:1;stroke:none;stroke-width:0.436717"
           d="m 1565.525,525.15332 c -6.6899,-1.87909 -12.2528,-7.07288 -14.4482,-13.48958 -1.148,-3.35534 -1.1139,-3.68474 0.2497,-2.40971 1.0853,1.01484 1.3662,1.05632 6.7735,1.00039 l 5.6413,-0.0584 0.2656,1.15014 c 0.1461,0.63258 0.7334,1.97079 1.3052,2.97379 1.9649,3.44701 8.4529,5.4659 12.5442,3.90342 2.1645,-0.82661 3.2214,-1.83115 4.8769,-4.63527 l 1.1603,-1.96522 -0.267,2.58578 c -0.2936,2.84428 -1.4333,5.77479 -3.0911,7.9483 -2.1998,2.88402 -9.9221,4.42552 -15.0104,2.99631 z"
           id="path6055" />
        <path
           style="fill:#f9bf04;fill-opacity:1;stroke:none;stroke-width:0.617612"
           d="m 2270.649,527.23508 c -5.3713,-2.96172 -9.5494,-9.81244 -10.5197,-17.24871 l -0.3417,-2.61846 0.9042,2.38568 c 0.4973,1.31212 1.6721,3.18731 2.6108,4.16709 3.3411,3.48733 12.5831,5.5772 14.492,3.27705 0.4466,-0.53811 0.9315,-2.62962 1.0774,-4.6478 l 0.2655,-3.66941 2.0936,2.33175 c 3.3264,3.70468 4.1029,5.52242 3.6498,8.54398 -0.4826,3.21803 -2.4295,6.24651 -5.2282,8.13255 -2.8098,1.89352 -4.6229,1.76188 -9.0037,-0.65372 z"
           id="path6544"
           transform="translate(-857.24487,40.762364)" />
      </g>
    </g>
    <path
       id="path6655"
       style="display:none;fill:#ffff00;fill-opacity:1;stroke:none"
       sodipodi:type="inkscape:offset"
       inkscape:radius="-57.197193"
       inkscape:original="M 511.83203 87.34375 A 471.65472 439.33765 0 0 0 40.177734 526.68164 A 471.65472 439.33765 0 0 0 511.83203 966.01953 A 471.65472 439.33765 0 0 0 983.48828 526.68164 A 471.65472 439.33765 0 0 0 511.83203 87.34375 z "
       d="M 511.83203,144.54102 C 402.30132,144.54111 293.68981,186.72538 217.30664,257.875 140.92347,329.02462 97.374942,427.73901 97.375,526.68164 c -5.8e-5,98.94264 43.54847,197.65703 119.93164,268.80664 76.38317,71.14962 184.99468,113.33389 294.52539,113.33399 109.531,3.3e-4 218.14186,-42.18433 294.52539,-113.33399 76.38354,-71.14966 119.93365,-169.86374 119.9336,-268.80664 5e-5,-98.9429 -43.55006,-197.65698 -119.9336,-268.80664 C 729.97389,186.72534 621.36303,144.54068 511.83203,144.54102 Z" />
  </g>
</svg>
