<?xml version="1.0" encoding="UTF-8" standalone="no"?>
<!-- Created with Inkscape (http://www.inkscape.org/) -->

<svg
   width="116.48982mm"
   height="116.25453mm"
   viewBox="0 0 116.48982 116.25453"
   version="1.1"
   id="svg5"
   xml:space="preserve"
   inkscape:export-filename="bitmap.png"
   inkscape:export-xdpi="96"
   inkscape:export-ydpi="96"
   xmlns:inkscape="http://www.inkscape.org/namespaces/inkscape"
   xmlns:sodipodi="http://sodipodi.sourceforge.net/DTD/sodipodi-0.dtd"
   xmlns="http://www.w3.org/2000/svg"
   xmlns:svg="http://www.w3.org/2000/svg"><sodipodi:namedview
     id="namedview7"
     pagecolor="#ffffff"
     bordercolor="#000000"
     borderopacity="0.25"
     inkscape:showpageshadow="2"
     inkscape:pageopacity="0.0"
     inkscape:pagecheckerboard="0"
     inkscape:deskcolor="#d1d1d1"
     inkscape:document-units="mm"
     showgrid="false" /><defs
     id="defs2" /><g
     inkscape:label="Camada 1"
     inkscape:groupmode="layer"
     id="layer1"
     transform="translate(-239.40554,-150.33247)"><path
       style="fill:#000000;stroke-width:0.264583"
       d="m 289.07588,265.9158 c -47.86031,-7.24357 -66.5878,-66.07 -31.66278,-99.45854 36.32323,-34.72524 97.26608,-9.73318 98.46485,40.37946 0.86957,36.35075 -30.96309,64.50324 -66.80207,59.07908 z m 9.48364,-10.62273 c 8.81828,-9.64841 20.80036,-16.28608 35.02869,-19.40472 1.16417,-0.25517 2.29526,-0.52624 2.51355,-0.60237 0.21828,-0.0761 0.32547,-0.058 0.2382,0.0403 -0.0873,0.0983 -1.21473,0.48494 -2.50546,0.85914 -2.9147,0.845 -3.38,1.08516 -5.10182,2.63322 -1.85762,1.67016 -1.61173,1.71097 1.55706,0.25845 4.03684,-1.85042 3.39217,-1.34134 -1.42047,1.1217 -5.65102,2.89211 -13.6192,8.78743 -20.81335,15.39893 l -1.45521,1.33735 1.05834,-0.16241 c 6.82135,-1.04675 17.44592,-6.77233 23.75939,-12.80393 3.85309,-3.68106 10.5085,-11.73118 10.06521,-12.17447 -0.70672,-0.70671 -9.54525,-0.36913 -14.03942,0.53623 -10.74435,2.16447 -18.75527,6.74587 -28.83918,16.49297 -3.53029,3.41237 -4.04195,3.66969 -1.79626,0.90334 l 1.44247,-1.77689 -1.18309,-0.52334 c -1.02883,-0.4551 -1.18308,-0.62876 -1.18308,-1.33196 0,-0.44475 -0.0421,-0.80863 -0.0936,-0.80863 -0.86406,0 -10.47289,5.34008 -14.5756,8.10035 l -1.30778,0.87986 0.93003,0.38859 c 2.77195,1.1582 10.22358,2.66624 14.94376,3.02428 0.39354,0.0299 1.21298,-0.67405 2.77766,-2.38603 z m -19.00409,-3.75555 c 2.03216,-1.51244 5.15296,-3.37221 9.78122,-5.82889 1.56435,-0.83036 2.84427,-1.56911 2.84427,-1.64167 0,-0.0726 -0.29765,-0.56997 -0.66146,-1.10535 -0.43108,-0.6344 -0.66286,-1.34367 -0.6655,-2.03648 -0.005,-1.27425 -0.18314,-1.58837 -1.05429,-1.85769 -1.51404,-0.46807 -8.14195,-3.64366 -9.92724,-4.75638 -2.4694,-1.53911 -4.42005,-3.66222 -6.06586,-6.60217 l -1.30872,-2.33781 -0.8319,1.82154 c -0.84087,1.84115 -3.79643,6.01739 -4.43085,6.26085 -0.27843,0.10684 -0.32315,-1.09942 -0.23433,-6.32083 0.0673,-3.95456 0.0129,-6.45286 -0.14037,-6.45286 -0.13758,0 -1.12338,1.01721 -2.19067,2.26047 -1.06729,1.24327 -2.28107,2.50298 -2.69729,2.79935 l -0.75678,0.53887 0.55468,-1.40723 c 0.30508,-0.77398 1.09507,-2.64828 1.75554,-4.16511 1.05119,-2.41413 1.16683,-2.85971 0.9278,-3.57493 -0.15018,-0.44937 -0.62423,-1.82196 -1.05344,-3.05019 l -0.78038,-2.23313 -1.22005,2.10084 c -1.3521,2.32822 -2.43065,3.76577 -2.65724,3.54173 -0.0816,-0.0806 0.22126,-1.95989 0.67292,-4.1761 0.93422,-4.58395 0.89618,-4.77913 -0.64376,-3.30287 -1.70676,1.63617 -4.06209,3.46301 -5.23887,4.06335 -2.44178,1.24571 -2.42409,1.15471 0.53675,-2.76098 4.22576,-5.58853 4.26356,-5.36111 -0.91473,-5.50318 l -2.91042,-0.0798 0.0184,4.89479 c 0.0626,16.63014 8.60047,31.51224 23.13261,40.3218 3.94734,2.39292 3.76153,2.37512 6.15993,0.59011 z m 16.81735,-15.87148 c 4.15735,-2.81337 8.57939,-6.02798 12.43402,-9.03892 l 2.63855,-2.06103 0.44363,-2.1416 c 0.24399,-1.17787 0.40411,-2.776 0.35581,-3.5514 l -0.0878,-1.4098 -1.36908,1.97287 c -0.753,1.08509 -1.73527,2.23363 -2.18282,2.55231 l -0.81372,0.57942 -0.0116,-1.80395 c -0.0236,-3.67349 -0.38013,-5.38404 -1.7841,-8.56104 -1.2179,-2.75594 -1.73832,-4.1901 -1.76604,-4.86682 -0.0102,-0.24813 -4.0086,-3.06047 -4.35121,-3.06047 -0.65324,0 -0.7611,0.66008 -0.22978,1.40625 1.30804,1.83696 0.64357,4.9864 -1.0395,4.92698 -0.39694,-0.014 -0.38262,-0.0541 0.0871,-0.24381 0.3092,-0.12486 0.69616,-0.61133 0.8599,-1.08104 0.43834,-1.25742 0.37185,-1.40094 -0.37635,-0.81241 -0.74244,0.58401 -2.05113,0.37253 -2.33913,-0.378 -0.19585,-0.51037 -1.72153,-0.49405 -1.919,0.0205 -0.22336,0.58207 0.61004,1.70408 1.57872,2.12544 0.46196,0.20094 0.67539,0.37 0.47428,0.3757 -0.67442,0.0191 -2.10971,-1.06191 -2.45969,-1.85256 -0.38995,-0.88096 -0.54681,-0.9455 -0.99258,-0.40838 -0.17096,0.20599 -1.27119,1.11745 -2.44495,2.02546 -2.17998,1.68642 -2.44386,1.47574 -0.50495,-0.40317 1.33826,-1.29686 1.35759,-1.54091 0.0871,-1.09937 -2.55051,0.88638 -2.41251,0.61818 0.7276,-1.41411 1.81901,-1.17727 4.16999,-2.58442 5.22439,-3.12702 2.24065,-1.15304 2.19611,-1.04567 0.82688,-1.99338 l -1.07241,-0.74225 -1.89411,0.78502 c -1.04177,0.43176 -2.56053,0.97729 -3.37503,1.21229 -0.8145,0.235 -2.51601,0.9599 -3.78113,1.61088 -1.26512,0.65099 -2.50371,1.17965 -2.75242,1.17481 -0.49645,-0.01 -0.49526,-0.0109 1.6595,-1.73789 l 1.02393,-0.82066 -1.51993,-0.47808 c -0.83596,-0.26294 -2.34515,-1.0576 -3.35376,-1.76592 l -1.83382,-1.28785 v 1.84977 c 0,1.67801 0.0737,1.93371 0.79375,2.7538 0.43656,0.49722 0.79375,1.033 0.79375,1.19063 0,0.62564 1.61225,2.08074 2.64994,2.39164 l 1.08786,0.32593 -0.18305,2.16715 c -0.10068,1.19194 -0.22259,2.21205 -0.27092,2.26691 -0.22603,0.25663 0.81128,2.12182 1.69002,3.03881 0.89703,0.93608 0.92372,1.00535 0.31781,0.82484 -0.91564,-0.27279 -5.37962,-2.52276 -7.2868,-3.67276 -1.98103,-1.19452 -1.97361,-1.19547 -1.97361,0.25166 0,0.66207 -0.18166,1.55504 -0.40367,1.98438 -0.9589,1.8543 -4.09425,0.24357 -4.09425,-2.10335 v -1.08479 h -1.32292 c -0.7276,0 -1.32291,0.10561 -1.32291,0.23468 0,0.57033 1.84142,2.88614 3.11876,3.92224 1.6076,1.30397 1.27979,1.50941 -0.55342,0.34682 -1.50892,-0.95692 -1.50544,-1.09493 -0.0718,2.84961 2.7061,7.44552 5.00824,11.17657 8.15033,13.20918 2.32953,1.50697 9.65308,5.07021 10.45841,5.0885 0.33304,0.008 2.21522,-1.08148 4.25623,-2.46268 z m -13.58457,-5.88836 c 3.38948,-2.62786 10.81169,-4.1526 16.65835,-3.42211 2.6662,0.33312 1.22155,0.61626 -3.82605,0.74987 -5.39223,0.14274 -6.72545,0.4088 -10.81102,2.1575 -2.4094,1.03126 -2.82352,1.13672 -2.02128,0.51474 z m -7.01145,-10.6854 c 0.3638,-0.11651 1.25677,-0.21002 1.98437,-0.20779 l 1.32292,0.004 -1.05834,0.21891 c -1.45432,0.30082 -3.19888,0.28904 -2.24895,-0.0152 z m 24.07708,-8.0698 c 0,-0.0728 0.0595,-0.13229 0.13229,-0.13229 0.0728,0 0.13229,0.0595 0.13229,0.13229 0,0.0728 -0.0595,0.1323 -0.13229,0.1323 -0.0728,0 -0.13229,-0.0595 -0.13229,-0.1323 z m 0.66146,-0.39687 c 0.0899,-0.14552 0.22305,-0.26458 0.29581,-0.26458 0.0728,0 0.0587,0.11906 -0.0312,0.26458 -0.0899,0.14552 -0.22305,0.26458 -0.29581,0.26458 -0.0728,0 -0.0587,-0.11906 0.0312,-0.26458 z m 0.66146,-0.34615 c 0,-0.0551 0.62507,-0.61567 1.38906,-1.2457 1.38011,-1.13814 1.38309,-1.13912 0.46302,-0.152 -0.82957,0.89003 -1.85208,1.66168 -1.85208,1.3977 z m 19.61204,21.8978 c 3.85653,-1.36161 10.34521,-2.52087 16.90046,-3.01943 6.07048,-0.46169 5.31831,-0.0358 6.69218,-3.78922 6.37513,-17.41686 2.35943,-36.24978 -10.6636,-50.01041 -2.83332,-2.9938 -2.13143,-2.83543 -8.35696,-1.88566 -2.45997,0.37529 -4.94155,0.75116 -5.51463,0.83527 -2.32135,0.34067 -2.4501,0.65914 -0.74371,1.83962 5.02012,3.47293 11.40506,5.66783 15.32064,5.26667 0.92322,-0.0946 1.67858,-0.11415 1.67858,-0.0435 0,0.25891 -2.34358,1.49227 -3.60101,1.89511 -0.71158,0.22797 -1.55032,0.53812 -1.86387,0.68922 -0.31355,0.1511 -0.7005,0.19413 -0.8599,0.0956 -0.15939,-0.0985 -0.28981,-0.0456 -0.28981,0.11768 0,0.73046 4.50213,2.25886 10.71563,3.63777 l 1.05833,0.23487 -0.92604,0.58263 c -1.25169,0.78752 -3.96737,1.58557 -6.21771,1.82718 l -1.85208,0.19886 -0.0793,1.22275 c -0.12372,1.90879 2.03664,3.58169 6.82613,5.28589 l 1.98438,0.70608 -1.39936,0.41633 c -0.76964,0.22898 -2.37698,0.54394 -3.57187,0.69991 -4.14232,0.54069 -3.98845,0.40819 -2.98265,2.56844 0.82004,1.7613 2.50968,3.60052 4.48917,4.88658 l 1.56237,1.01506 -3.14987,-0.002 c -3.15402,-0.002 -5.59419,-0.26434 -7.72842,-0.83087 -4.66342,-1.23792 1.93862,6.86434 7.98386,9.79807 2.58007,1.2521 2.52028,1.27776 -3.80219,1.63143 -2.54662,0.14245 -4.90073,0.28703 -5.23137,0.32129 -0.59912,0.0621 -0.59797,0.0689 0.33803,2.01731 0.51656,1.07527 0.8828,2.01142 0.81388,2.08034 -0.20241,0.20241 -2.84706,-0.49265 -3.91365,-1.02857 -1.38514,-0.696 -1.45683,-0.65908 -1.81328,0.93369 -0.3705,1.65559 -0.24644,2.34463 0.66358,3.68563 0.9691,1.42804 -0.72731,1.0445 -3.0828,-0.69699 -0.95894,-0.70897 -0.9052,-0.87602 -1.1117,3.45577 -0.20142,4.22537 -0.2808,4.07098 1.72852,3.36155 z m -5.50887,-11.44243 c 1.42255,-1.83464 1.85517,-2.12963 3.73573,-2.54724 1.26235,-0.28032 1.40135,-0.40747 3.64179,-3.3314 1.28114,-1.67198 2.29573,-3.14245 2.25466,-3.26771 -0.0411,-0.12527 -1.14186,-0.49895 -2.44617,-0.83041 -1.30431,-0.33146 -3.0464,-0.90274 -3.87131,-1.26952 l -1.49984,-0.66687 -0.18031,1.36498 c -0.2435,1.84336 -2.06692,8.98289 -2.7137,10.62541 -1.11087,2.82106 -1.1715,2.8254 1.07915,-0.0772 z m 1.77183,-5.21443 c 0,-0.0728 0.0595,-0.13229 0.13229,-0.13229 0.0728,0 0.13229,0.0595 0.13229,0.13229 0,0.0728 -0.0595,0.13229 -0.13229,0.13229 -0.0728,0 -0.13229,-0.0595 -0.13229,-0.13229 z m 0.30177,-0.66146 c 0,-0.21828 0.10233,-0.635 0.22739,-0.92604 0.14333,-0.33354 0.22739,-0.38245 0.22739,-0.13229 0,0.21828 -0.10232,0.635 -0.22739,0.92604 -0.14333,0.33354 -0.22739,0.38245 -0.22739,0.13229 z m 0.66515,-1.91823 c 0.0675,-0.10914 0.34671,-0.19843 0.62058,-0.19843 0.27386,0 0.55312,0.0893 0.62057,0.19843 0.0675,0.10914 -0.2118,0.19844 -0.62057,0.19844 -0.40878,0 -0.68804,-0.0893 -0.62058,-0.19844 z m -47.79817,8.3629 c 0,-0.28157 -2.43434,-3.0402 -2.56633,-2.9082 -0.20043,0.20043 0.45644,1.2984 1.32706,2.21822 0.76734,0.8107 1.23927,1.07345 1.23927,0.68998 z m -2.27261,-5.0334 c -1.47338,-3.66576 -1.66813,-5.38721 -0.9367,-8.27963 0.50624,-2.00191 3.08721,-7.94913 3.44913,-7.94768 0.0864,2.7e-4 0.51424,0.68495 0.9508,1.52134 2.87411,5.50636 6.63247,9.30406 10.98021,11.09515 2.14457,0.88348 2.18356,0.86559 1.9818,-0.9093 -0.17963,-1.58021 -0.35728,-1.8271 -2.47559,-3.44055 -1.36713,-1.04129 -2.68121,-4.91739 -2.68121,-7.90864 0,-0.50476 -0.42974,-1.9528 -0.95497,-3.21787 -0.52524,-1.26507 -1.05864,-2.56951 -1.18534,-2.89875 -0.13287,-0.34528 0.57921,0.21618 1.68258,1.32667 3.46704,3.48944 6.85518,5.66548 9.75438,6.26479 1.42959,0.29552 3.45323,0.12139 2.59996,-0.22372 -5.66383,-2.29074 -7.53158,-7.98321 -5.03346,-15.34087 0.57328,-1.68845 1.08512,-3.30804 1.13743,-3.59908 0.0523,-0.29104 0.18183,0.36023 0.28785,1.44728 0.59486,6.09955 8.48025,15.01001 18.6053,21.02392 1.57954,0.93819 3.74234,2.321 4.80623,3.0729 2.21323,1.5642 2.07944,1.57888 2.42942,-0.26654 0.3792,-1.99951 0.41971,-1.88663 -1.31549,-3.66546 -0.88827,-0.9106 -1.52225,-1.77731 -1.4458,-1.97654 0.28685,-0.74752 -4.28367,-8.12912 -7.81656,-12.6241 -2.36531,-3.00944 -2.37363,-3.02745 -1.1521,-2.49286 5.04201,2.20656 7.42706,2.7393 13.18703,2.9455 5.92845,0.21225 15.56284,-0.71375 16.42804,-1.57895 0.14276,-0.14276 -0.41231,-0.55104 -3.46346,-2.54757 -1.3876,-0.90797 -4.26201,-3.3095 -6.88842,-5.75517 -2.47894,-2.30835 -5.27691,-4.84409 -6.21771,-5.63499 -0.94079,-0.79089 -1.85535,-1.5648 -2.03235,-1.71979 -0.22887,-0.20041 1.01615,-0.25633 4.31093,-0.19362 4.27905,0.0814 4.88438,0.0321 7.92859,-0.64599 3.77567,-0.84105 3.73899,-0.79938 1.94916,-2.21416 -1.43885,-1.13735 -1.69177,-1.23491 -1.98239,-0.76467 -0.31615,0.51154 -3.33737,0.0682 -9.23864,-1.35569 -6.49445,-1.56702 -9.4592,-2.11913 -11.37935,-2.11913 -2.56672,0 -2.68593,-1.64985 -0.24087,-3.33382 0.97348,-0.67046 1.33692,-1.06043 1.11571,-1.19714 -0.37893,-0.23419 -0.44572,-0.16247 1.16445,-1.25042 1.64096,-1.10876 1.75676,-1.35598 0.50324,-1.07433 -0.56512,0.12697 -2.65102,0.41086 -4.63533,0.63087 -4.78862,0.53092 -5.4987,0.72484 -9.67889,2.64326 -5.98172,2.7452 -6.32014,2.81097 -4.54294,0.88294 l 1.06129,-1.15136 -0.97115,0.0284 c -2.75316,0.0804 -10.26087,3.17565 -15.36895,6.3362 -2.27177,1.40563 -6.61861,4.62918 -6.24227,4.62918 0.10981,0 0.0641,0.16333 -0.10158,0.36295 -0.40832,0.49199 0.64829,0.69088 3.77523,0.71063 1.32788,0.008 2.89057,0.11376 3.47266,0.23416 l 1.05833,0.21891 -1.02509,0.0304 c -1.46772,0.0436 -7.31101,1.26169 -9.37892,1.95518 -1.88288,0.63145 -3.09,1.81699 -6.04345,5.93546 -1.98073,2.76205 -1.96922,3.08147 0.13608,3.77423 3.15141,1.03699 7.82738,0.33443 13.60362,-2.04393 1.41651,-0.58324 2.57547,-1.03265 2.57547,-0.99867 0,0.034 -0.8632,0.63352 -1.91823,1.33234 -2.33852,1.54896 -7.82173,5.80164 -12.64772,9.80935 -4.07822,3.38674 -7.06685,5.5173 -8.31905,5.93057 -0.76097,0.25114 -0.87695,0.42104 -1.02507,1.50167 -0.26011,1.89768 -0.21911,2.27958 0.22636,2.10864 0.21636,-0.083 1.77822,-0.34247 3.47079,-0.57653 2.05093,-0.28363 4.05054,-0.77418 5.99489,-1.47069 1.60461,-0.57481 2.94471,-1.01272 2.97799,-0.97313 0.0333,0.0396 -0.0428,0.90541 -0.16897,1.92406 -0.52437,4.23218 0.67462,10.03422 2.70049,13.06798 0.82062,1.22889 2.94638,3.46848 3.29219,3.46848 0.0246,0 -0.46575,-1.26993 -1.08961,-2.82207 z m 43.39764,-2.21749 c 0.57682,-2.05578 0.44884,-2.37519 -1.64296,-4.10061 -2.56685,-2.11726 -2.82719,-1.99814 -1.90584,0.87194 0.40875,1.2733 0.89583,3.31579 1.0824,4.53885 l 0.33921,2.22376 0.84068,-0.97254 c 0.48845,-0.56505 1.02749,-1.63825 1.28651,-2.5614 z m -34.00043,1.29005 c 0.33968,-0.60718 0.34395,-0.80298 0.0303,-1.38907 -0.43269,-0.80849 -0.80488,-0.8865 -0.80488,-0.16871 0,1.01795 -1.92547,0.77026 -2.26231,-0.29102 -0.092,-0.28984 -0.22779,-0.46646 -0.30176,-0.39249 -0.2872,0.2872 0.52082,2.04139 1.17865,2.55884 0.8831,0.69464 1.65744,0.58081 2.16002,-0.31755 z m -2.70283,-6.11747 c -0.62731,-0.77017 -1.47998,-2.19892 -1.89482,-3.175 -0.41484,-0.97608 -0.83667,-1.77469 -0.93741,-1.77469 -0.2517,0 -1.32496,4.45752 -1.32496,5.50288 v 0.84712 h 2.64888 2.64887 z m 50.29843,-0.9148 c -1.10269,-1.18563 -1.50549,-1.96982 -2.47266,-4.81396 -0.50511,-1.48534 -0.91838,-2.75204 -0.91838,-2.8149 0,-0.0628 0.68461,0.34913 1.52136,0.91553 2.10905,1.42763 3.7989,2.23608 6.36365,3.04447 3.6067,1.13679 3.73242,1.05945 2.06215,-1.26856 -1.38807,-1.93468 -3.59716,-5.73235 -3.59716,-6.18392 0,-0.12772 0.70425,-0.0871 1.565,0.0903 0.86075,0.17738 2.55739,0.4053 3.77031,0.50649 l 2.20532,0.18399 -2.15986,-1.34454 c -2.22908,-1.38764 -4.21812,-3.35143 -4.48944,-4.43243 -0.188,-0.74908 -0.31664,-0.75227 -3.77338,-0.0936 -4.02999,0.76791 -9.82053,1.38176 -12.09908,1.28261 l -1.98983,-0.0866 0.14336,0.66146 c 0.0788,0.3638 0.44749,2.50085 0.81919,4.74899 0.7561,4.57298 0.68685,4.44448 3.40421,6.3167 3.2243,2.2215 7.22291,3.86805 9.67714,3.98487 l 0.64481,0.0307 z m -30.9093,-7.60379 c 0.33324,-0.62266 0.27344,-0.74139 -1.09946,-2.18281 -1.73424,-1.82079 -3.64782,-4.38114 -4.64832,-6.2194 l -0.72745,-1.33657 -0.19433,1.13832 c -0.66545,3.89805 1.08149,7.0508 4.81907,8.69712 1.52136,0.67012 1.43779,0.67449 1.85049,-0.0967 z m -41.38376,-2.25193 c 0.52348,0 2.43331,-2.02349 3.04913,-3.23059 0.28136,-0.55151 0.47938,-1.00115 0.44004,-0.99921 -0.0393,0.002 -0.95604,0.28574 -2.03712,0.63065 -1.9299,0.6157 -1.97188,0.64808 -2.31109,1.78239 -0.4759,1.59138 -0.45663,2.17752 0.065,1.97735 0.23019,-0.0883 0.58751,-0.16059 0.79405,-0.16059 z m 2.63819,-7.14867 c 4.74784,-1.6335 5.85799,-2.57683 3.08606,-2.62232 -0.62313,-0.0102 -1.56041,-0.19719 -2.08283,-0.41547 -0.52242,-0.21828 -0.99982,-0.39688 -1.0609,-0.39688 -0.14279,0 -1.67641,3.41124 -1.67641,3.72883 0,0.313 -0.0605,0.32326 1.73408,-0.29416 z m 67.05758,-24.46572 c 0,-0.52543 -7.21878,-3.51604 -10.80133,-4.4748 l -2.31346,-0.61912 -1.03371,0.86786 -1.03372,0.86786 1.17496,0.29345 c 0.64624,0.1614 3.10692,0.83386 5.46819,1.49435 4.35737,1.21885 8.53907,1.98789 8.53907,1.5704 z"
       id="path357" /><g
       id="g3271"
       transform="translate(-138.47686,-4.8283223)"><path
         style="fill:#f9bf04;fill-opacity:1;stroke:none;stroke-width:0.264583"
         d="m 460.99119,171.85607 c 0,-0.52543 -7.21878,-3.51604 -10.80133,-4.4748 l -2.31346,-0.61912 -1.03371,0.86786 -1.03372,0.86786 1.17496,0.29345 c 0.64624,0.1614 3.10692,0.83386 5.46819,1.49435 4.35737,1.21885 8.53907,1.98789 8.53907,1.5704 z"
         id="path407" /><path
         style="fill:#f9bf04;fill-opacity:1;stroke:none;stroke-width:0.264583"
         d="m 393.93361,196.32179 c 4.74784,-1.6335 5.85799,-2.57683 3.08606,-2.62232 -0.62313,-0.0102 -1.56041,-0.19719 -2.08283,-0.41547 -0.52242,-0.21828 -0.99982,-0.39688 -1.0609,-0.39688 -0.14279,0 -1.67641,3.41124 -1.67641,3.72883 0,0.313 -0.0605,0.32326 1.73408,-0.29416 z"
         id="path405" /><path
         style="fill:#f9bf04;fill-opacity:1;stroke:none;stroke-width:0.264583"
         d="m 391.29542,203.47046 c 0.52348,0 2.43331,-2.02349 3.04913,-3.23059 0.28136,-0.55151 0.47938,-1.00115 0.44004,-0.99921 -0.0393,0.002 -0.95604,0.28574 -2.03712,0.63065 -1.9299,0.6157 -1.97188,0.64808 -2.31109,1.78239 -0.4759,1.59138 -0.45663,2.17752 0.065,1.97735 0.23019,-0.0883 0.58751,-0.16059 0.79405,-0.16059 z"
         id="path403" /><path
         style="fill:#f9bf04;fill-opacity:1;stroke:none;stroke-width:0.264583"
         d="m 463.58848,213.32618 c -1.10269,-1.18563 -1.50549,-1.96982 -2.47266,-4.81396 -0.50511,-1.48534 -0.91838,-2.75204 -0.91838,-2.8149 0,-0.0628 0.68461,0.34913 1.52136,0.91553 2.10905,1.42763 3.7989,2.23608 6.36365,3.04447 3.6067,1.13679 3.73242,1.05945 2.06215,-1.26856 -1.38807,-1.93468 -3.59716,-5.73235 -3.59716,-6.18392 0,-0.12772 0.70425,-0.0871 1.565,0.0903 0.86075,0.17738 2.55739,0.4053 3.77031,0.50649 l 2.20532,0.18399 -2.15986,-1.34454 c -2.22908,-1.38764 -4.21812,-3.35143 -4.48944,-4.43243 -0.188,-0.74908 -0.31664,-0.75227 -3.77338,-0.0936 -4.02999,0.76791 -9.82053,1.38176 -12.09908,1.28261 l -1.98983,-0.0866 0.14336,0.66146 c 0.0788,0.3638 0.44749,2.50085 0.81919,4.74899 0.7561,4.57298 0.68685,4.44448 3.40421,6.3167 3.2243,2.2215 7.22291,3.86805 9.67714,3.98487 l 0.64481,0.0307 z"
         id="path399" /><path
         style="fill:#f9bf04;fill-opacity:1;stroke:none;stroke-width:0.264583"
         d="m 449.99331,219.0684 c 0.57682,-2.05578 0.44884,-2.37519 -1.64296,-4.10061 -2.56685,-2.11726 -2.82719,-1.99814 -1.90584,0.87194 0.40875,1.2733 0.89583,3.31579 1.0824,4.53885 l 0.33921,2.22376 0.84068,-0.97254 c 0.48845,-0.56505 1.02749,-1.63825 1.28651,-2.5614 z"
         id="path393" /><path
         style="fill:#f9bf04;fill-opacity:1;stroke:none;stroke-width:0.264583"
         d="m 406.59567,221.28589 c -1.47338,-3.66576 -1.66813,-5.38721 -0.9367,-8.27963 0.50624,-2.00191 3.08721,-7.94913 3.44913,-7.94768 0.0864,2.7e-4 0.51424,0.68495 0.9508,1.52134 2.87411,5.50636 6.63247,9.30406 10.98021,11.09515 2.14457,0.88348 2.18356,0.86559 1.9818,-0.9093 -0.17963,-1.58021 -0.35728,-1.8271 -2.47559,-3.44055 -1.36713,-1.04129 -2.68121,-4.91739 -2.68121,-7.90864 0,-0.50476 -0.42974,-1.9528 -0.95497,-3.21787 -0.52524,-1.26507 -1.05864,-2.56951 -1.18534,-2.89875 -0.13287,-0.34528 0.57921,0.21618 1.68258,1.32667 3.46704,3.48944 6.85518,5.66548 9.75438,6.26479 1.42959,0.29552 3.45323,0.12139 2.59996,-0.22372 -5.66383,-2.29074 -7.53158,-7.98321 -5.03346,-15.34087 0.57328,-1.68845 1.08512,-3.30804 1.13743,-3.59908 0.0523,-0.29104 0.18183,0.36023 0.28785,1.44728 0.59486,6.09955 8.48025,15.01001 18.6053,21.02392 1.57954,0.93819 3.74234,2.321 4.80623,3.0729 2.21323,1.5642 2.07944,1.57888 2.42942,-0.26654 0.3792,-1.99951 0.41971,-1.88663 -1.31549,-3.66546 -0.88827,-0.9106 -1.52225,-1.77731 -1.4458,-1.97654 0.28685,-0.74752 -4.28367,-8.12912 -7.81656,-12.6241 -2.36531,-3.00944 -2.37363,-3.02745 -1.1521,-2.49286 5.04201,2.20656 7.42706,2.7393 13.18703,2.9455 5.92845,0.21225 15.56284,-0.71375 16.42804,-1.57895 0.14276,-0.14276 -0.41231,-0.55104 -3.46346,-2.54757 -1.3876,-0.90797 -4.26201,-3.3095 -6.88842,-5.75517 -2.47894,-2.30835 -5.27691,-4.84409 -6.21771,-5.63499 -0.94079,-0.79089 -1.85535,-1.5648 -2.03235,-1.71979 -0.22887,-0.20041 1.01615,-0.25633 4.31093,-0.19362 4.27905,0.0814 4.88438,0.0321 7.92859,-0.64599 3.77567,-0.84105 3.73899,-0.79938 1.94916,-2.21416 -1.43885,-1.13735 -1.69177,-1.23491 -1.98239,-0.76467 -0.31615,0.51154 -3.33737,0.0682 -9.23864,-1.35569 -6.49445,-1.56702 -9.4592,-2.11913 -11.37935,-2.11913 -2.56672,0 -2.68593,-1.64985 -0.24087,-3.33382 0.97348,-0.67046 1.33692,-1.06043 1.11571,-1.19714 -0.37893,-0.23419 -0.44572,-0.16247 1.16445,-1.25042 1.64096,-1.10876 1.75676,-1.35598 0.50324,-1.07433 -0.56512,0.12697 -2.65102,0.41086 -4.63533,0.63087 -4.78862,0.53092 -5.4987,0.72484 -9.67889,2.64326 -5.98172,2.7452 -6.32014,2.81097 -4.54294,0.88294 l 1.06129,-1.15136 -0.97115,0.0284 c -2.75316,0.0804 -10.26087,3.17565 -15.36895,6.3362 -2.27177,1.40563 -6.61861,4.62918 -6.24227,4.62918 0.10981,0 0.0641,0.16333 -0.10158,0.36295 -0.40832,0.49199 0.64829,0.69088 3.77523,0.71063 1.32788,0.008 2.89057,0.11376 3.47266,0.23416 l 1.05833,0.21891 -1.02509,0.0304 c -1.46772,0.0436 -7.31101,1.26169 -9.37892,1.95518 -1.88288,0.63145 -3.09,1.81699 -6.04345,5.93546 -1.98073,2.76205 -1.96922,3.08147 0.13608,3.77423 3.15141,1.03699 7.82738,0.33443 13.60362,-2.04393 1.41651,-0.58324 2.57547,-1.03265 2.57547,-0.99867 0,0.034 -0.8632,0.63352 -1.91823,1.33234 -2.33852,1.54896 -7.82173,5.80164 -12.64772,9.80935 -4.07822,3.38674 -7.06685,5.5173 -8.31905,5.93057 -0.76097,0.25114 -0.87695,0.42104 -1.02507,1.50167 -0.26011,1.89768 -0.21911,2.27958 0.22636,2.10864 0.21636,-0.083 1.77822,-0.34247 3.47079,-0.57653 2.05093,-0.28363 4.05054,-0.77418 5.99489,-1.47069 1.60461,-0.57481 2.94471,-1.01272 2.97799,-0.97313 0.0333,0.0396 -0.0428,0.90541 -0.16897,1.92406 -0.52437,4.23218 0.67462,10.03422 2.70049,13.06798 0.82062,1.22889 2.94638,3.46848 3.29219,3.46848 0.0246,0 -0.46575,-1.26993 -1.08961,-2.82207 z"
         id="path391" /><path
         style="fill:#f9bf04;fill-opacity:1;stroke:none;stroke-width:0.264583"
         d="m 459.43657,237.19294 c 3.85653,-1.36161 10.34521,-2.52087 16.90046,-3.01943 6.07048,-0.46169 5.31831,-0.0358 6.69218,-3.78922 6.37513,-17.41686 2.35943,-36.24978 -10.6636,-50.01041 -2.83332,-2.9938 -2.13143,-2.83543 -8.35696,-1.88566 -2.45997,0.37529 -4.94155,0.75116 -5.51463,0.83527 -2.32135,0.34067 -2.4501,0.65914 -0.74371,1.83962 5.02012,3.47293 11.40506,5.66783 15.32064,5.26667 0.92322,-0.0946 1.67858,-0.11415 1.67858,-0.0435 0,0.25891 -2.34358,1.49227 -3.60101,1.89511 -0.71158,0.22797 -1.55032,0.53812 -1.86387,0.68922 -0.31355,0.1511 -0.7005,0.19413 -0.8599,0.0956 -0.15939,-0.0985 -0.28981,-0.0456 -0.28981,0.11768 0,0.73046 4.50213,2.25886 10.71563,3.63777 l 1.05833,0.23487 -0.92604,0.58263 c -1.25169,0.78752 -3.96737,1.58557 -6.21771,1.82718 l -1.85208,0.19886 -0.0793,1.22275 c -0.12372,1.90879 2.03664,3.58169 6.82613,5.28589 l 1.98438,0.70608 -1.39936,0.41633 c -0.76964,0.22898 -2.37698,0.54394 -3.57187,0.69991 -4.14232,0.54069 -3.98845,0.40819 -2.98265,2.56844 0.82004,1.7613 2.50968,3.60052 4.48917,4.88658 l 1.56237,1.01506 -3.14987,-0.002 c -3.15402,-0.002 -5.59419,-0.26434 -7.72842,-0.83087 -4.66342,-1.23792 1.93862,6.86434 7.98386,9.79807 2.58007,1.2521 2.52028,1.27776 -3.80219,1.63143 -2.54662,0.14245 -4.90073,0.28703 -5.23137,0.32129 -0.59912,0.0621 -0.59797,0.0689 0.33803,2.01731 0.51656,1.07527 0.8828,2.01142 0.81388,2.08034 -0.20241,0.20241 -2.84706,-0.49265 -3.91365,-1.02857 -1.38514,-0.696 -1.45683,-0.65908 -1.81328,0.93369 -0.3705,1.65559 -0.24644,2.34463 0.66358,3.68563 0.9691,1.42804 -0.72731,1.0445 -3.0828,-0.69699 -0.95894,-0.70897 -0.9052,-0.87602 -1.1117,3.45577 -0.20142,4.22537 -0.2808,4.07098 1.72852,3.36155 z"
         id="path379" /><path
         style="fill:#f9bf04;fill-opacity:1;stroke:none;stroke-width:0.264583"
         d="m 418.2032,256.5532 c 2.03216,-1.51244 5.15296,-3.37221 9.78122,-5.82889 1.56435,-0.83036 2.84427,-1.56911 2.84427,-1.64167 0,-0.0726 -0.29765,-0.56997 -0.66146,-1.10535 -0.43108,-0.6344 -0.66286,-1.34367 -0.6655,-2.03648 -0.005,-1.27425 -0.18314,-1.58837 -1.05429,-1.85769 -1.51404,-0.46807 -8.14195,-3.64366 -9.92724,-4.75638 -2.4694,-1.53911 -4.42005,-3.66222 -6.06586,-6.60217 l -1.30872,-2.33781 -0.8319,1.82154 c -0.84087,1.84115 -3.79643,6.01739 -4.43085,6.26085 -0.27843,0.10684 -0.32315,-1.09942 -0.23433,-6.32083 0.0673,-3.95456 0.0129,-6.45286 -0.14037,-6.45286 -0.13758,0 -1.12338,1.01721 -2.19067,2.26047 -1.06729,1.24327 -2.28107,2.50298 -2.69729,2.79935 l -0.75678,0.53887 0.55468,-1.40723 c 0.30508,-0.77398 1.09507,-2.64828 1.75554,-4.16511 1.05119,-2.41413 1.16683,-2.85971 0.9278,-3.57493 -0.15018,-0.44937 -0.62423,-1.82196 -1.05344,-3.05019 l -0.78038,-2.23313 -1.22005,2.10084 c -1.3521,2.32822 -2.43065,3.76577 -2.65724,3.54173 -0.0816,-0.0806 0.22126,-1.95989 0.67292,-4.1761 0.93422,-4.58395 0.89618,-4.77913 -0.64376,-3.30287 -1.70676,1.63617 -4.06209,3.46301 -5.23887,4.06335 -2.44178,1.24571 -2.42409,1.15471 0.53675,-2.76098 4.22576,-5.58853 4.26356,-5.36111 -0.91473,-5.50318 l -2.91042,-0.0798 0.0184,4.89479 c 0.0626,16.63014 8.60047,31.51224 23.13261,40.3218 3.94734,2.39292 3.76153,2.37512 6.15993,0.59011 z"
         id="path365" /></g></g></svg>
